<?xml version="1.0" standalone="no"?>
 <!DOCTYPE svg PUBLIC "-//W3C//DTD SVG 1.1//EN" 
 "http://www.w3.org/Graphics/SVG/1.1/DTD/svg11.dtd"> 
<svg
  xmlns:svg="http://www.w3.org/2000/svg"
  xmlns="http://www.w3.org/2000/svg"
  xmlns:xlink="http://www.w3.org/1999/xlink"
  version="1.1"
  width="297.0022mm" height="210.0072mm" viewBox="0.0000 0.0000 297.0022 210.0072">
<title>SVG Image created as DarkQuest_A5202_Adapter-F_Silkscreen.svg date 2025/06/11 08:11:06 </title>
  <desc>Image generated by PCBNEW </desc>
<g style="fill:#000000; fill-opacity:1.0000;stroke:#000000; stroke-opacity:1.0000;
stroke-linecap:round; stroke-linejoin:round;"
 transform="translate(0 0) scale(1 1)">
</g>
<g style="fill:none; 
stroke:#000000; stroke-width:0.3000; stroke-opacity:1; 
stroke-linecap:round; stroke-linejoin:round;">
<text x="131.7500" y="69.1702"
textLength="17.4571" font-size="2.0000" lengthAdjust="spacingAndGlyphs"
text-anchor="start" opacity="0" stroke-opacity="0">A5202 to CAT6</text>
<g class="stroked-text"><desc>A5202 to CAT6</desc>
<path d="M132.2331 68.5424
L132.9474 68.5424
" />
<path d="M132.0902 68.9710
L132.5902 67.4710
" />
<path d="M132.5902 67.4710
L133.0902 68.9710
" />
<path d="M134.3045 67.4710
L133.5902 67.4710
" />
<path d="M133.5902 67.4710
L133.5188 68.1853
" />
<path d="M133.5188 68.1853
L133.5902 68.1139
" />
<path d="M133.5902 68.1139
L133.7331 68.0424
" />
<path d="M133.7331 68.0424
L134.0902 68.0424
" />
<path d="M134.0902 68.0424
L134.2331 68.1139
" />
<path d="M134.2331 68.1139
L134.3045 68.1853
" />
<path d="M134.3045 68.1853
L134.3759 68.3281
" />
<path d="M134.3759 68.3281
L134.3759 68.6853
" />
<path d="M134.3759 68.6853
L134.3045 68.8281
" />
<path d="M134.3045 68.8281
L134.2331 68.8996
" />
<path d="M134.2331 68.8996
L134.0902 68.9710
" />
<path d="M134.0902 68.9710
L133.7331 68.9710
" />
<path d="M133.7331 68.9710
L133.5902 68.8996
" />
<path d="M133.5902 68.8996
L133.5188 68.8281
" />
<path d="M134.9474 67.6139
L135.0188 67.5424
" />
<path d="M135.0188 67.5424
L135.1617 67.4710
" />
<path d="M135.1617 67.4710
L135.5188 67.4710
" />
<path d="M135.5188 67.4710
L135.6617 67.5424
" />
<path d="M135.6617 67.5424
L135.7331 67.6139
" />
<path d="M135.7331 67.6139
L135.8045 67.7567
" />
<path d="M135.8045 67.7567
L135.8045 67.8996
" />
<path d="M135.8045 67.8996
L135.7331 68.1139
" />
<path d="M135.7331 68.1139
L134.8759 68.9710
" />
<path d="M134.8759 68.9710
L135.8045 68.9710
" />
<path d="M136.7331 67.4710
L136.8759 67.4710
" />
<path d="M136.8759 67.4710
L137.0188 67.5424
" />
<path d="M137.0188 67.5424
L137.0902 67.6139
" />
<path d="M137.0902 67.6139
L137.1617 67.7567
" />
<path d="M137.1617 67.7567
L137.2331 68.0424
" />
<path d="M137.2331 68.0424
L137.2331 68.3996
" />
<path d="M137.2331 68.3996
L137.1617 68.6853
" />
<path d="M137.1617 68.6853
L137.0902 68.8281
" />
<path d="M137.0902 68.8281
L137.0188 68.8996
" />
<path d="M137.0188 68.8996
L136.8759 68.9710
" />
<path d="M136.8759 68.9710
L136.7331 68.9710
" />
<path d="M136.7331 68.9710
L136.5902 68.8996
" />
<path d="M136.5902 68.8996
L136.5188 68.8281
" />
<path d="M136.5188 68.8281
L136.4474 68.6853
" />
<path d="M136.4474 68.6853
L136.3759 68.3996
" />
<path d="M136.3759 68.3996
L136.3759 68.0424
" />
<path d="M136.3759 68.0424
L136.4474 67.7567
" />
<path d="M136.4474 67.7567
L136.5188 67.6139
" />
<path d="M136.5188 67.6139
L136.5902 67.5424
" />
<path d="M136.5902 67.5424
L136.7331 67.4710
" />
<path d="M137.8045 67.6139
L137.8759 67.5424
" />
<path d="M137.8759 67.5424
L138.0188 67.4710
" />
<path d="M138.0188 67.4710
L138.3759 67.4710
" />
<path d="M138.3759 67.4710
L138.5188 67.5424
" />
<path d="M138.5188 67.5424
L138.5902 67.6139
" />
<path d="M138.5902 67.6139
L138.6617 67.7567
" />
<path d="M138.6617 67.7567
L138.6617 67.8996
" />
<path d="M138.6617 67.8996
L138.5902 68.1139
" />
<path d="M138.5902 68.1139
L137.7331 68.9710
" />
<path d="M137.7331 68.9710
L138.6617 68.9710
" />
<path d="M140.2331 67.9710
L140.8045 67.9710
" />
<path d="M140.4474 67.4710
L140.4474 68.7567
" />
<path d="M140.4474 68.7567
L140.5188 68.8996
" />
<path d="M140.5188 68.8996
L140.6617 68.9710
" />
<path d="M140.6617 68.9710
L140.8045 68.9710
" />
<path d="M141.5188 68.9710
L141.3759 68.8996
" />
<path d="M141.3759 68.8996
L141.3045 68.8281
" />
<path d="M141.3045 68.8281
L141.2331 68.6853
" />
<path d="M141.2331 68.6853
L141.2331 68.2567
" />
<path d="M141.2331 68.2567
L141.3045 68.1139
" />
<path d="M141.3045 68.1139
L141.3759 68.0424
" />
<path d="M141.3759 68.0424
L141.5188 67.9710
" />
<path d="M141.5188 67.9710
L141.7331 67.9710
" />
<path d="M141.7331 67.9710
L141.8759 68.0424
" />
<path d="M141.8759 68.0424
L141.9474 68.1139
" />
<path d="M141.9474 68.1139
L142.0188 68.2567
" />
<path d="M142.0188 68.2567
L142.0188 68.6853
" />
<path d="M142.0188 68.6853
L141.9474 68.8281
" />
<path d="M141.9474 68.8281
L141.8759 68.8996
" />
<path d="M141.8759 68.8996
L141.7331 68.9710
" />
<path d="M141.7331 68.9710
L141.5188 68.9710
" />
<path d="M144.6617 68.8281
L144.5902 68.8996
" />
<path d="M144.5902 68.8996
L144.3759 68.9710
" />
<path d="M144.3759 68.9710
L144.2331 68.9710
" />
<path d="M144.2331 68.9710
L144.0188 68.8996
" />
<path d="M144.0188 68.8996
L143.8759 68.7567
" />
<path d="M143.8759 68.7567
L143.8045 68.6139
" />
<path d="M143.8045 68.6139
L143.7331 68.3281
" />
<path d="M143.7331 68.3281
L143.7331 68.1139
" />
<path d="M143.7331 68.1139
L143.8045 67.8281
" />
<path d="M143.8045 67.8281
L143.8759 67.6853
" />
<path d="M143.8759 67.6853
L144.0188 67.5424
" />
<path d="M144.0188 67.5424
L144.2331 67.4710
" />
<path d="M144.2331 67.4710
L144.3759 67.4710
" />
<path d="M144.3759 67.4710
L144.5902 67.5424
" />
<path d="M144.5902 67.5424
L144.6617 67.6139
" />
<path d="M145.2331 68.5424
L145.9474 68.5424
" />
<path d="M145.0902 68.9710
L145.5902 67.4710
" />
<path d="M145.5902 67.4710
L146.0902 68.9710
" />
<path d="M146.3759 67.4710
L147.2331 67.4710
" />
<path d="M146.8045 68.9710
L146.8045 67.4710
" />
<path d="M148.3759 67.4710
L148.0902 67.4710
" />
<path d="M148.0902 67.4710
L147.9474 67.5424
" />
<path d="M147.9474 67.5424
L147.8759 67.6139
" />
<path d="M147.8759 67.6139
L147.7331 67.8281
" />
<path d="M147.7331 67.8281
L147.6617 68.1139
" />
<path d="M147.6617 68.1139
L147.6617 68.6853
" />
<path d="M147.6617 68.6853
L147.7331 68.8281
" />
<path d="M147.7331 68.8281
L147.8045 68.8996
" />
<path d="M147.8045 68.8996
L147.9474 68.9710
" />
<path d="M147.9474 68.9710
L148.2331 68.9710
" />
<path d="M148.2331 68.9710
L148.3759 68.8996
" />
<path d="M148.3759 68.8996
L148.4474 68.8281
" />
<path d="M148.4474 68.8281
L148.5188 68.6853
" />
<path d="M148.5188 68.6853
L148.5188 68.3281
" />
<path d="M148.5188 68.3281
L148.4474 68.1853
" />
<path d="M148.4474 68.1853
L148.3759 68.1139
" />
<path d="M148.3759 68.1139
L148.2331 68.0424
" />
<path d="M148.2331 68.0424
L147.9474 68.0424
" />
<path d="M147.9474 68.0424
L147.8045 68.1139
" />
<path d="M147.8045 68.1139
L147.7331 68.1853
" />
<path d="M147.7331 68.1853
L147.6617 68.3281
" />
</g><text x="131.7500" y="71.5851"
textLength="11.8857" font-size="2.0000" lengthAdjust="spacingAndGlyphs"
text-anchor="start" opacity="0" stroke-opacity="0">DarkQuest</text>
<g class="stroked-text"><desc>DarkQuest</desc>
<path d="M132.3045 71.3859
L132.3045 69.8859
" />
<path d="M132.3045 69.8859
L132.6617 69.8859
" />
<path d="M132.6617 69.8859
L132.8759 69.9573
" />
<path d="M132.8759 69.9573
L133.0188 70.1002
" />
<path d="M133.0188 70.1002
L133.0902 70.2431
" />
<path d="M133.0902 70.2431
L133.1617 70.5288
" />
<path d="M133.1617 70.5288
L133.1617 70.7431
" />
<path d="M133.1617 70.7431
L133.0902 71.0288
" />
<path d="M133.0902 71.0288
L133.0188 71.1716
" />
<path d="M133.0188 71.1716
L132.8759 71.3145
" />
<path d="M132.8759 71.3145
L132.6617 71.3859
" />
<path d="M132.6617 71.3859
L132.3045 71.3859
" />
<path d="M134.4474 71.3859
L134.4474 70.6002
" />
<path d="M134.4474 70.6002
L134.3759 70.4573
" />
<path d="M134.3759 70.4573
L134.2331 70.3859
" />
<path d="M134.2331 70.3859
L133.9474 70.3859
" />
<path d="M133.9474 70.3859
L133.8045 70.4573
" />
<path d="M134.4474 71.3145
L134.3045 71.3859
" />
<path d="M134.3045 71.3859
L133.9474 71.3859
" />
<path d="M133.9474 71.3859
L133.8045 71.3145
" />
<path d="M133.8045 71.3145
L133.7331 71.1716
" />
<path d="M133.7331 71.1716
L133.7331 71.0288
" />
<path d="M133.7331 71.0288
L133.8045 70.8859
" />
<path d="M133.8045 70.8859
L133.9474 70.8145
" />
<path d="M133.9474 70.8145
L134.3045 70.8145
" />
<path d="M134.3045 70.8145
L134.4474 70.7431
" />
<path d="M135.1617 71.3859
L135.1617 70.3859
" />
<path d="M135.1617 70.6716
L135.2331 70.5288
" />
<path d="M135.2331 70.5288
L135.3045 70.4573
" />
<path d="M135.3045 70.4573
L135.4474 70.3859
" />
<path d="M135.4474 70.3859
L135.5902 70.3859
" />
<path d="M136.0902 71.3859
L136.0902 69.8859
" />
<path d="M136.2331 70.8145
L136.6617 71.3859
" />
<path d="M136.6617 70.3859
L136.0902 70.9573
" />
<path d="M138.3045 71.5288
L138.1617 71.4573
" />
<path d="M138.1617 71.4573
L138.0188 71.3145
" />
<path d="M138.0188 71.3145
L137.8045 71.1002
" />
<path d="M137.8045 71.1002
L137.6617 71.0288
" />
<path d="M137.6617 71.0288
L137.5188 71.0288
" />
<path d="M137.5902 71.3859
L137.4474 71.3145
" />
<path d="M137.4474 71.3145
L137.3045 71.1716
" />
<path d="M137.3045 71.1716
L137.2331 70.8859
" />
<path d="M137.2331 70.8859
L137.2331 70.3859
" />
<path d="M137.2331 70.3859
L137.3045 70.1002
" />
<path d="M137.3045 70.1002
L137.4474 69.9573
" />
<path d="M137.4474 69.9573
L137.5902 69.8859
" />
<path d="M137.5902 69.8859
L137.8759 69.8859
" />
<path d="M137.8759 69.8859
L138.0188 69.9573
" />
<path d="M138.0188 69.9573
L138.1617 70.1002
" />
<path d="M138.1617 70.1002
L138.2331 70.3859
" />
<path d="M138.2331 70.3859
L138.2331 70.8859
" />
<path d="M138.2331 70.8859
L138.1617 71.1716
" />
<path d="M138.1617 71.1716
L138.0188 71.3145
" />
<path d="M138.0188 71.3145
L137.8759 71.3859
" />
<path d="M137.8759 71.3859
L137.5902 71.3859
" />
<path d="M139.5188 70.3859
L139.5188 71.3859
" />
<path d="M138.8759 70.3859
L138.8759 71.1716
" />
<path d="M138.8759 71.1716
L138.9474 71.3145
" />
<path d="M138.9474 71.3145
L139.0902 71.3859
" />
<path d="M139.0902 71.3859
L139.3045 71.3859
" />
<path d="M139.3045 71.3859
L139.4474 71.3145
" />
<path d="M139.4474 71.3145
L139.5188 71.2431
" />
<path d="M140.8045 71.3145
L140.6617 71.3859
" />
<path d="M140.6617 71.3859
L140.3759 71.3859
" />
<path d="M140.3759 71.3859
L140.2331 71.3145
" />
<path d="M140.2331 71.3145
L140.1617 71.1716
" />
<path d="M140.1617 71.1716
L140.1617 70.6002
" />
<path d="M140.1617 70.6002
L140.2331 70.4573
" />
<path d="M140.2331 70.4573
L140.3759 70.3859
" />
<path d="M140.3759 70.3859
L140.6617 70.3859
" />
<path d="M140.6617 70.3859
L140.8045 70.4573
" />
<path d="M140.8045 70.4573
L140.8759 70.6002
" />
<path d="M140.8759 70.6002
L140.8759 70.7431
" />
<path d="M140.8759 70.7431
L140.1617 70.8859
" />
<path d="M141.4474 71.3145
L141.5902 71.3859
" />
<path d="M141.5902 71.3859
L141.8759 71.3859
" />
<path d="M141.8759 71.3859
L142.0188 71.3145
" />
<path d="M142.0188 71.3145
L142.0902 71.1716
" />
<path d="M142.0902 71.1716
L142.0902 71.1002
" />
<path d="M142.0902 71.1002
L142.0188 70.9573
" />
<path d="M142.0188 70.9573
L141.8759 70.8859
" />
<path d="M141.8759 70.8859
L141.6617 70.8859
" />
<path d="M141.6617 70.8859
L141.5188 70.8145
" />
<path d="M141.5188 70.8145
L141.4474 70.6716
" />
<path d="M141.4474 70.6716
L141.4474 70.6002
" />
<path d="M141.4474 70.6002
L141.5188 70.4573
" />
<path d="M141.5188 70.4573
L141.6617 70.3859
" />
<path d="M141.6617 70.3859
L141.8759 70.3859
" />
<path d="M141.8759 70.3859
L142.0188 70.4573
" />
<path d="M142.5188 70.3859
L143.0902 70.3859
" />
<path d="M142.7331 69.8859
L142.7331 71.1716
" />
<path d="M142.7331 71.1716
L142.8045 71.3145
" />
<path d="M142.8045 71.3145
L142.9474 71.3859
" />
<path d="M142.9474 71.3859
L143.0902 71.3859
" />
</g><text x="131.7500" y="74.0000"
textLength="23.3857" font-size="2.0000" lengthAdjust="spacingAndGlyphs"
text-anchor="start" opacity="0" stroke-opacity="0">Rev 1 2025-05-19</text>
<g class="stroked-text"><desc>Rev 1 2025-05-19</desc>
<path d="M133.1617 73.8008
L132.6617 73.0865
" />
<path d="M132.3045 73.8008
L132.3045 72.3008
" />
<path d="M132.3045 72.3008
L132.8759 72.3008
" />
<path d="M132.8759 72.3008
L133.0188 72.3723
" />
<path d="M133.0188 72.3723
L133.0902 72.4437
" />
<path d="M133.0902 72.4437
L133.1617 72.5865
" />
<path d="M133.1617 72.5865
L133.1617 72.8008
" />
<path d="M133.1617 72.8008
L133.0902 72.9437
" />
<path d="M133.0902 72.9437
L133.0188 73.0151
" />
<path d="M133.0188 73.0151
L132.8759 73.0865
" />
<path d="M132.8759 73.0865
L132.3045 73.0865
" />
<path d="M134.3759 73.7294
L134.2331 73.8008
" />
<path d="M134.2331 73.8008
L133.9474 73.8008
" />
<path d="M133.9474 73.8008
L133.8045 73.7294
" />
<path d="M133.8045 73.7294
L133.7331 73.5865
" />
<path d="M133.7331 73.5865
L133.7331 73.0151
" />
<path d="M133.7331 73.0151
L133.8045 72.8723
" />
<path d="M133.8045 72.8723
L133.9474 72.8008
" />
<path d="M133.9474 72.8008
L134.2331 72.8008
" />
<path d="M134.2331 72.8008
L134.3759 72.8723
" />
<path d="M134.3759 72.8723
L134.4474 73.0151
" />
<path d="M134.4474 73.0151
L134.4474 73.1580
" />
<path d="M134.4474 73.1580
L133.7331 73.3008
" />
<path d="M134.9474 72.8008
L135.3045 73.8008
" />
<path d="M135.3045 73.8008
L135.6617 72.8008
" />
<path d="M138.1617 73.8008
L137.3045 73.8008
" />
<path d="M137.7331 73.8008
L137.7331 72.3008
" />
<path d="M137.7331 72.3008
L137.5902 72.5151
" />
<path d="M137.5902 72.5151
L137.4474 72.6580
" />
<path d="M137.4474 72.6580
L137.3045 72.7294
" />
<path d="M139.8759 72.4437
L139.9474 72.3723
" />
<path d="M139.9474 72.3723
L140.0902 72.3008
" />
<path d="M140.0902 72.3008
L140.4474 72.3008
" />
<path d="M140.4474 72.3008
L140.5902 72.3723
" />
<path d="M140.5902 72.3723
L140.6617 72.4437
" />
<path d="M140.6617 72.4437
L140.7331 72.5865
" />
<path d="M140.7331 72.5865
L140.7331 72.7294
" />
<path d="M140.7331 72.7294
L140.6617 72.9437
" />
<path d="M140.6617 72.9437
L139.8045 73.8008
" />
<path d="M139.8045 73.8008
L140.7331 73.8008
" />
<path d="M141.6617 72.3008
L141.8045 72.3008
" />
<path d="M141.8045 72.3008
L141.9474 72.3723
" />
<path d="M141.9474 72.3723
L142.0188 72.4437
" />
<path d="M142.0188 72.4437
L142.0902 72.5865
" />
<path d="M142.0902 72.5865
L142.1617 72.8723
" />
<path d="M142.1617 72.8723
L142.1617 73.2294
" />
<path d="M142.1617 73.2294
L142.0902 73.5151
" />
<path d="M142.0902 73.5151
L142.0188 73.6580
" />
<path d="M142.0188 73.6580
L141.9474 73.7294
" />
<path d="M141.9474 73.7294
L141.8045 73.8008
" />
<path d="M141.8045 73.8008
L141.6617 73.8008
" />
<path d="M141.6617 73.8008
L141.5188 73.7294
" />
<path d="M141.5188 73.7294
L141.4474 73.6580
" />
<path d="M141.4474 73.6580
L141.3759 73.5151
" />
<path d="M141.3759 73.5151
L141.3045 73.2294
" />
<path d="M141.3045 73.2294
L141.3045 72.8723
" />
<path d="M141.3045 72.8723
L141.3759 72.5865
" />
<path d="M141.3759 72.5865
L141.4474 72.4437
" />
<path d="M141.4474 72.4437
L141.5188 72.3723
" />
<path d="M141.5188 72.3723
L141.6617 72.3008
" />
<path d="M142.7331 72.4437
L142.8045 72.3723
" />
<path d="M142.8045 72.3723
L142.9474 72.3008
" />
<path d="M142.9474 72.3008
L143.3045 72.3008
" />
<path d="M143.3045 72.3008
L143.4474 72.3723
" />
<path d="M143.4474 72.3723
L143.5188 72.4437
" />
<path d="M143.5188 72.4437
L143.5902 72.5865
" />
<path d="M143.5902 72.5865
L143.5902 72.7294
" />
<path d="M143.5902 72.7294
L143.5188 72.9437
" />
<path d="M143.5188 72.9437
L142.6617 73.8008
" />
<path d="M142.6617 73.8008
L143.5902 73.8008
" />
<path d="M144.9474 72.3008
L144.2331 72.3008
" />
<path d="M144.2331 72.3008
L144.1617 73.0151
" />
<path d="M144.1617 73.0151
L144.2331 72.9437
" />
<path d="M144.2331 72.9437
L144.3759 72.8723
" />
<path d="M144.3759 72.8723
L144.7331 72.8723
" />
<path d="M144.7331 72.8723
L144.8759 72.9437
" />
<path d="M144.8759 72.9437
L144.9474 73.0151
" />
<path d="M144.9474 73.0151
L145.0188 73.1580
" />
<path d="M145.0188 73.1580
L145.0188 73.5151
" />
<path d="M145.0188 73.5151
L144.9474 73.6580
" />
<path d="M144.9474 73.6580
L144.8759 73.7294
" />
<path d="M144.8759 73.7294
L144.7331 73.8008
" />
<path d="M144.7331 73.8008
L144.3759 73.8008
" />
<path d="M144.3759 73.8008
L144.2331 73.7294
" />
<path d="M144.2331 73.7294
L144.1617 73.6580
" />
<path d="M145.6616 73.2294
L146.8045 73.2294
" />
<path d="M147.8045 72.3008
L147.9474 72.3008
" />
<path d="M147.9474 72.3008
L148.0902 72.3723
" />
<path d="M148.0902 72.3723
L148.1617 72.4437
" />
<path d="M148.1617 72.4437
L148.2331 72.5865
" />
<path d="M148.2331 72.5865
L148.3045 72.8723
" />
<path d="M148.3045 72.8723
L148.3045 73.2294
" />
<path d="M148.3045 73.2294
L148.2331 73.5151
" />
<path d="M148.2331 73.5151
L148.1617 73.6580
" />
<path d="M148.1617 73.6580
L148.0902 73.7294
" />
<path d="M148.0902 73.7294
L147.9474 73.8008
" />
<path d="M147.9474 73.8008
L147.8045 73.8008
" />
<path d="M147.8045 73.8008
L147.6617 73.7294
" />
<path d="M147.6617 73.7294
L147.5902 73.6580
" />
<path d="M147.5902 73.6580
L147.5188 73.5151
" />
<path d="M147.5188 73.5151
L147.4474 73.2294
" />
<path d="M147.4474 73.2294
L147.4474 72.8723
" />
<path d="M147.4474 72.8723
L147.5188 72.5865
" />
<path d="M147.5188 72.5865
L147.5902 72.4437
" />
<path d="M147.5902 72.4437
L147.6617 72.3723
" />
<path d="M147.6617 72.3723
L147.8045 72.3008
" />
<path d="M149.6616 72.3008
L148.9474 72.3008
" />
<path d="M148.9474 72.3008
L148.8759 73.0151
" />
<path d="M148.8759 73.0151
L148.9474 72.9437
" />
<path d="M148.9474 72.9437
L149.0902 72.8723
" />
<path d="M149.0902 72.8723
L149.4474 72.8723
" />
<path d="M149.4474 72.8723
L149.5902 72.9437
" />
<path d="M149.5902 72.9437
L149.6616 73.0151
" />
<path d="M149.6616 73.0151
L149.7331 73.1580
" />
<path d="M149.7331 73.1580
L149.7331 73.5151
" />
<path d="M149.7331 73.5151
L149.6616 73.6580
" />
<path d="M149.6616 73.6580
L149.5902 73.7294
" />
<path d="M149.5902 73.7294
L149.4474 73.8008
" />
<path d="M149.4474 73.8008
L149.0902 73.8008
" />
<path d="M149.0902 73.8008
L148.9474 73.7294
" />
<path d="M148.9474 73.7294
L148.8759 73.6580
" />
<path d="M150.3759 73.2294
L151.5188 73.2294
" />
<path d="M153.0188 73.8008
L152.1616 73.8008
" />
<path d="M152.5902 73.8008
L152.5902 72.3008
" />
<path d="M152.5902 72.3008
L152.4474 72.5151
" />
<path d="M152.4474 72.5151
L152.3045 72.6580
" />
<path d="M152.3045 72.6580
L152.1616 72.7294
" />
<path d="M153.7331 73.8008
L154.0188 73.8008
" />
<path d="M154.0188 73.8008
L154.1616 73.7294
" />
<path d="M154.1616 73.7294
L154.2331 73.6580
" />
<path d="M154.2331 73.6580
L154.3759 73.4437
" />
<path d="M154.3759 73.4437
L154.4474 73.1580
" />
<path d="M154.4474 73.1580
L154.4474 72.5865
" />
<path d="M154.4474 72.5865
L154.3759 72.4437
" />
<path d="M154.3759 72.4437
L154.3045 72.3723
" />
<path d="M154.3045 72.3723
L154.1616 72.3008
" />
<path d="M154.1616 72.3008
L153.8759 72.3008
" />
<path d="M153.8759 72.3008
L153.7331 72.3723
" />
<path d="M153.7331 72.3723
L153.6616 72.4437
" />
<path d="M153.6616 72.4437
L153.5902 72.5865
" />
<path d="M153.5902 72.5865
L153.5902 72.9437
" />
<path d="M153.5902 72.9437
L153.6616 73.0865
" />
<path d="M153.6616 73.0865
L153.7331 73.1580
" />
<path d="M153.7331 73.1580
L153.8759 73.2294
" />
<path d="M153.8759 73.2294
L154.1616 73.2294
" />
<path d="M154.1616 73.2294
L154.3045 73.1580
" />
<path d="M154.3045 73.1580
L154.3759 73.0865
" />
<path d="M154.3759 73.0865
L154.4474 72.9437
" />
</g></g>
<g style="fill:none; 
stroke:#000000; stroke-width:0.1000; stroke-opacity:1; 
stroke-linecap:round; stroke-linejoin:round;">
<g transform="rotate(-180.000000 69.2500 79.7500)">
<text x="69.2500" y="80.2500"
textLength="1.8143" font-size="1.3333" lengthAdjust="spacingAndGlyphs"
text-anchor="middle" opacity="0" stroke-opacity="0">J2</text>
</g>
<g class="stroked-text"><desc>J2</desc>
<path d="M69.5833 80.2926
L69.5833 79.5783
" />
<path d="M69.5833 79.5783
L69.6310 79.4354
" />
<path d="M69.6310 79.4354
L69.7262 79.3402
" />
<path d="M69.7262 79.3402
L69.8690 79.2926
" />
<path d="M69.8690 79.2926
L69.9643 79.2926
" />
<path d="M69.1548 80.1973
L69.1071 80.2450
" />
<path d="M69.1071 80.2450
L69.0119 80.2926
" />
<path d="M69.0119 80.2926
L68.7738 80.2926
" />
<path d="M68.7738 80.2926
L68.6786 80.2450
" />
<path d="M68.6786 80.2450
L68.6310 80.1973
" />
<path d="M68.6310 80.1973
L68.5833 80.1021
" />
<path d="M68.5833 80.1021
L68.5833 80.0069
" />
<path d="M68.5833 80.0069
L68.6310 79.8640
" />
<path d="M68.6310 79.8640
L69.2024 79.2926
" />
<path d="M69.2024 79.2926
L68.5833 79.2926
" />
</g><g transform="rotate(-180.000000 121.0000 77.5000)">
<text x="121.0000" y="78.0000"
textLength="1.8143" font-size="1.3333" lengthAdjust="spacingAndGlyphs"
text-anchor="middle" opacity="0" stroke-opacity="0">J8</text>
</g>
<g class="stroked-text"><desc>J8</desc>
<path d="M121.3333 78.0426
L121.3333 77.3283
" />
<path d="M121.3333 77.3283
L121.3810 77.1854
" />
<path d="M121.3810 77.1854
L121.4762 77.0902
" />
<path d="M121.4762 77.0902
L121.6190 77.0426
" />
<path d="M121.6190 77.0426
L121.7143 77.0426
" />
<path d="M120.7143 77.6140
L120.8095 77.6616
" />
<path d="M120.8095 77.6616
L120.8571 77.7092
" />
<path d="M120.8571 77.7092
L120.9048 77.8045
" />
<path d="M120.9048 77.8045
L120.9048 77.8521
" />
<path d="M120.9048 77.8521
L120.8571 77.9473
" />
<path d="M120.8571 77.9473
L120.8095 77.9950
" />
<path d="M120.8095 77.9950
L120.7143 78.0426
" />
<path d="M120.7143 78.0426
L120.5238 78.0426
" />
<path d="M120.5238 78.0426
L120.4286 77.9950
" />
<path d="M120.4286 77.9950
L120.3810 77.9473
" />
<path d="M120.3810 77.9473
L120.3333 77.8521
" />
<path d="M120.3333 77.8521
L120.3333 77.8045
" />
<path d="M120.3333 77.8045
L120.3810 77.7092
" />
<path d="M120.3810 77.7092
L120.4286 77.6616
" />
<path d="M120.4286 77.6616
L120.5238 77.6140
" />
<path d="M120.5238 77.6140
L120.7143 77.6140
" />
<path d="M120.7143 77.6140
L120.8095 77.5664
" />
<path d="M120.8095 77.5664
L120.8571 77.5188
" />
<path d="M120.8571 77.5188
L120.9048 77.4235
" />
<path d="M120.9048 77.4235
L120.9048 77.2331
" />
<path d="M120.9048 77.2331
L120.8571 77.1378
" />
<path d="M120.8571 77.1378
L120.8095 77.0902
" />
<path d="M120.8095 77.0902
L120.7143 77.0426
" />
<path d="M120.7143 77.0426
L120.5238 77.0426
" />
<path d="M120.5238 77.0426
L120.4286 77.0902
" />
<path d="M120.4286 77.0902
L120.3810 77.1378
" />
<path d="M120.3810 77.1378
L120.3333 77.2331
" />
<path d="M120.3333 77.2331
L120.3333 77.4235
" />
<path d="M120.3333 77.4235
L120.3810 77.5188
" />
<path d="M120.3810 77.5188
L120.4286 77.5664
" />
<path d="M120.4286 77.5664
L120.5238 77.6140
" />
</g><text x="70.7500" y="89.0000"
textLength="1.8143" font-size="1.3333" lengthAdjust="spacingAndGlyphs"
text-anchor="middle" opacity="0" stroke-opacity="0">J3</text>
<g class="stroked-text"><desc>J3</desc>
<path d="M70.4167 87.9574
L70.4167 88.6717
" />
<path d="M70.4167 88.6717
L70.3690 88.8146
" />
<path d="M70.3690 88.8146
L70.2738 88.9098
" />
<path d="M70.2738 88.9098
L70.1310 88.9574
" />
<path d="M70.1310 88.9574
L70.0357 88.9574
" />
<path d="M70.7976 87.9574
L71.4167 87.9574
" />
<path d="M71.4167 87.9574
L71.0833 88.3384
" />
<path d="M71.0833 88.3384
L71.2262 88.3384
" />
<path d="M71.2262 88.3384
L71.3214 88.3860
" />
<path d="M71.3214 88.3860
L71.3690 88.4336
" />
<path d="M71.3690 88.4336
L71.4167 88.5288
" />
<path d="M71.4167 88.5288
L71.4167 88.7669
" />
<path d="M71.4167 88.7669
L71.3690 88.8622
" />
<path d="M71.3690 88.8622
L71.3214 88.9098
" />
<path d="M71.3214 88.9098
L71.2262 88.9574
" />
<path d="M71.2262 88.9574
L70.9405 88.9574
" />
<path d="M70.9405 88.9574
L70.8452 88.9098
" />
<path d="M70.8452 88.9098
L70.7976 88.8622
" />
</g><text x="88.0000" y="91.2500"
textLength="1.8143" font-size="1.3333" lengthAdjust="spacingAndGlyphs"
text-anchor="middle" opacity="0" stroke-opacity="0">J5</text>
<g class="stroked-text"><desc>J5</desc>
<path d="M87.6667 90.2074
L87.6667 90.9217
" />
<path d="M87.6667 90.9217
L87.6190 91.0646
" />
<path d="M87.6190 91.0646
L87.5238 91.1598
" />
<path d="M87.5238 91.1598
L87.3810 91.2074
" />
<path d="M87.3810 91.2074
L87.2857 91.2074
" />
<path d="M88.6190 90.2074
L88.1429 90.2074
" />
<path d="M88.1429 90.2074
L88.0952 90.6836
" />
<path d="M88.0952 90.6836
L88.1429 90.6360
" />
<path d="M88.1429 90.6360
L88.2381 90.5884
" />
<path d="M88.2381 90.5884
L88.4762 90.5884
" />
<path d="M88.4762 90.5884
L88.5714 90.6360
" />
<path d="M88.5714 90.6360
L88.6190 90.6836
" />
<path d="M88.6190 90.6836
L88.6667 90.7788
" />
<path d="M88.6667 90.7788
L88.6667 91.0169
" />
<path d="M88.6667 91.0169
L88.6190 91.1122
" />
<path d="M88.6190 91.1122
L88.5714 91.1598
" />
<path d="M88.5714 91.1598
L88.4762 91.2074
" />
<path d="M88.4762 91.2074
L88.2381 91.2074
" />
<path d="M88.2381 91.2074
L88.1429 91.1598
" />
<path d="M88.1429 91.1598
L88.0952 91.1122
" />
</g><g transform="rotate(-180.000000 103.7500 79.7500)">
<text x="103.7500" y="80.2500"
textLength="1.8143" font-size="1.3333" lengthAdjust="spacingAndGlyphs"
text-anchor="middle" opacity="0" stroke-opacity="0">J6</text>
</g>
<g class="stroked-text"><desc>J6</desc>
<path d="M104.0833 80.2926
L104.0833 79.5783
" />
<path d="M104.0833 79.5783
L104.1310 79.4354
" />
<path d="M104.1310 79.4354
L104.2262 79.3402
" />
<path d="M104.2262 79.3402
L104.3690 79.2926
" />
<path d="M104.3690 79.2926
L104.4643 79.2926
" />
<path d="M103.1786 80.2926
L103.3690 80.2926
" />
<path d="M103.3690 80.2926
L103.4643 80.2450
" />
<path d="M103.4643 80.2450
L103.5119 80.1973
" />
<path d="M103.5119 80.1973
L103.6071 80.0545
" />
<path d="M103.6071 80.0545
L103.6548 79.8640
" />
<path d="M103.6548 79.8640
L103.6548 79.4831
" />
<path d="M103.6548 79.4831
L103.6071 79.3878
" />
<path d="M103.6071 79.3878
L103.5595 79.3402
" />
<path d="M103.5595 79.3402
L103.4643 79.2926
" />
<path d="M103.4643 79.2926
L103.2738 79.2926
" />
<path d="M103.2738 79.2926
L103.1786 79.3402
" />
<path d="M103.1786 79.3402
L103.1310 79.3878
" />
<path d="M103.1310 79.3878
L103.0833 79.4831
" />
<path d="M103.0833 79.4831
L103.0833 79.7212
" />
<path d="M103.0833 79.7212
L103.1310 79.8164
" />
<path d="M103.1310 79.8164
L103.1786 79.8640
" />
<path d="M103.1786 79.8640
L103.2738 79.9116
" />
<path d="M103.2738 79.9116
L103.4643 79.9116
" />
<path d="M103.4643 79.9116
L103.5595 79.8640
" />
<path d="M103.5595 79.8640
L103.6071 79.8164
" />
<path d="M103.6071 79.8164
L103.6548 79.7212
" />
</g></g>
<g style="fill:none; 
stroke:#000000; stroke-width:0.1500; stroke-opacity:1; 
stroke-linecap:round; stroke-linejoin:round;">
<text x="139.7500" y="87.0950"
textLength="2.9167" font-size="1.3333" lengthAdjust="spacingAndGlyphs"
text-anchor="middle" opacity="0" stroke-opacity="0">J18</text>
<g class="stroked-text"><desc>J18</desc>
<path d="M138.9405 86.0498
L138.9405 86.7641
" />
<path d="M138.9405 86.7641
L138.8929 86.9070
" />
<path d="M138.8929 86.9070
L138.7976 87.0022
" />
<path d="M138.7976 87.0022
L138.6548 87.0498
" />
<path d="M138.6548 87.0498
L138.5595 87.0498
" />
<path d="M139.9405 87.0498
L139.3690 87.0498
" />
<path d="M139.6548 87.0498
L139.6548 86.0498
" />
<path d="M139.6548 86.0498
L139.5595 86.1927
" />
<path d="M139.5595 86.1927
L139.4643 86.2879
" />
<path d="M139.4643 86.2879
L139.3690 86.3355
" />
<path d="M140.5119 86.4784
L140.4167 86.4308
" />
<path d="M140.4167 86.4308
L140.3690 86.3832
" />
<path d="M140.3690 86.3832
L140.3214 86.2879
" />
<path d="M140.3214 86.2879
L140.3214 86.2403
" />
<path d="M140.3214 86.2403
L140.3690 86.1451
" />
<path d="M140.3690 86.1451
L140.4167 86.0974
" />
<path d="M140.4167 86.0974
L140.5119 86.0498
" />
<path d="M140.5119 86.0498
L140.7024 86.0498
" />
<path d="M140.7024 86.0498
L140.7976 86.0974
" />
<path d="M140.7976 86.0974
L140.8452 86.1451
" />
<path d="M140.8452 86.1451
L140.8929 86.2403
" />
<path d="M140.8929 86.2403
L140.8929 86.2879
" />
<path d="M140.8929 86.2879
L140.8452 86.3832
" />
<path d="M140.8452 86.3832
L140.7976 86.4308
" />
<path d="M140.7976 86.4308
L140.7024 86.4784
" />
<path d="M140.7024 86.4784
L140.5119 86.4784
" />
<path d="M140.5119 86.4784
L140.4167 86.5260
" />
<path d="M140.4167 86.5260
L140.3690 86.5736
" />
<path d="M140.3690 86.5736
L140.3214 86.6689
" />
<path d="M140.3214 86.6689
L140.3214 86.8593
" />
<path d="M140.3214 86.8593
L140.3690 86.9546
" />
<path d="M140.3690 86.9546
L140.4167 87.0022
" />
<path d="M140.4167 87.0022
L140.5119 87.0498
" />
<path d="M140.5119 87.0498
L140.7024 87.0498
" />
<path d="M140.7024 87.0498
L140.7976 87.0022
" />
<path d="M140.7976 87.0022
L140.8452 86.9546
" />
<path d="M140.8452 86.9546
L140.8929 86.8593
" />
<path d="M140.8929 86.8593
L140.8929 86.6689
" />
<path d="M140.8929 86.6689
L140.8452 86.5736
" />
<path d="M140.8452 86.5736
L140.7976 86.5260
" />
<path d="M140.7976 86.5260
L140.7024 86.4784
" />
</g></g>
<g style="fill:none; 
stroke:#000000; stroke-width:0.1000; stroke-opacity:1; 
stroke-linecap:round; stroke-linejoin:round;">
<g transform="rotate(-180.000000 86.5000 77.5000)">
<text x="86.5000" y="78.0000"
textLength="1.8143" font-size="1.3333" lengthAdjust="spacingAndGlyphs"
text-anchor="middle" opacity="0" stroke-opacity="0">J4</text>
</g>
<g class="stroked-text"><desc>J4</desc>
<path d="M86.8333 78.0426
L86.8333 77.3283
" />
<path d="M86.8333 77.3283
L86.8810 77.1854
" />
<path d="M86.8810 77.1854
L86.9762 77.0902
" />
<path d="M86.9762 77.0902
L87.1190 77.0426
" />
<path d="M87.1190 77.0426
L87.2143 77.0426
" />
<path d="M85.9286 77.7092
L85.9286 77.0426
" />
<path d="M86.1667 78.0902
L86.4048 77.3759
" />
<path d="M86.4048 77.3759
L85.7857 77.3759
" />
</g><text x="122.5000" y="91.0000"
textLength="1.8143" font-size="1.3333" lengthAdjust="spacingAndGlyphs"
text-anchor="middle" opacity="0" stroke-opacity="0">J9</text>
<g class="stroked-text"><desc>J9</desc>
<path d="M122.1667 89.9574
L122.1667 90.6717
" />
<path d="M122.1667 90.6717
L122.1190 90.8146
" />
<path d="M122.1190 90.8146
L122.0238 90.9098
" />
<path d="M122.0238 90.9098
L121.8810 90.9574
" />
<path d="M121.8810 90.9574
L121.7857 90.9574
" />
<path d="M122.6905 90.9574
L122.8810 90.9574
" />
<path d="M122.8810 90.9574
L122.9762 90.9098
" />
<path d="M122.9762 90.9098
L123.0238 90.8622
" />
<path d="M123.0238 90.8622
L123.1190 90.7193
" />
<path d="M123.1190 90.7193
L123.1667 90.5288
" />
<path d="M123.1667 90.5288
L123.1667 90.1479
" />
<path d="M123.1667 90.1479
L123.1190 90.0527
" />
<path d="M123.1190 90.0527
L123.0714 90.0050
" />
<path d="M123.0714 90.0050
L122.9762 89.9574
" />
<path d="M122.9762 89.9574
L122.7857 89.9574
" />
<path d="M122.7857 89.9574
L122.6905 90.0050
" />
<path d="M122.6905 90.0050
L122.6429 90.0527
" />
<path d="M122.6429 90.0527
L122.5952 90.1479
" />
<path d="M122.5952 90.1479
L122.5952 90.3860
" />
<path d="M122.5952 90.3860
L122.6429 90.4812
" />
<path d="M122.6429 90.4812
L122.6905 90.5288
" />
<path d="M122.6905 90.5288
L122.7857 90.5765
" />
<path d="M122.7857 90.5765
L122.9762 90.5765
" />
<path d="M122.9762 90.5765
L123.0714 90.5288
" />
<path d="M123.0714 90.5288
L123.1190 90.4812
" />
<path d="M123.1190 90.4812
L123.1667 90.3860
" />
</g><text x="105.2500" y="89.0000"
textLength="1.8143" font-size="1.3333" lengthAdjust="spacingAndGlyphs"
text-anchor="middle" opacity="0" stroke-opacity="0">J7</text>
<g class="stroked-text"><desc>J7</desc>
<path d="M104.9167 87.9574
L104.9167 88.6717
" />
<path d="M104.9167 88.6717
L104.8690 88.8146
" />
<path d="M104.8690 88.8146
L104.7738 88.9098
" />
<path d="M104.7738 88.9098
L104.6310 88.9574
" />
<path d="M104.6310 88.9574
L104.5357 88.9574
" />
<path d="M105.2976 87.9574
L105.9643 87.9574
" />
<path d="M105.9643 87.9574
L105.5357 88.9574
" />
</g><path style="fill:none; 
stroke:#000000; stroke-width:0.1000; stroke-opacity:1; 
stroke-linecap:round; stroke-linejoin:round;fill:none"
d="M 77.2500,61.9000
61.2500,61.9000
61.2500,78.6000
77.2500,78.6000
Z" /> 
<path style="fill:none; 
stroke:#000000; stroke-width:0.1000; stroke-opacity:1; 
stroke-linecap:round; stroke-linejoin:round;fill:none"
d="M 129.0000,59.6500
113.0000,59.6500
113.0000,76.3500
129.0000,76.3500
Z" /> 
<path style="fill:none; 
stroke:#000000; stroke-width:0.1000; stroke-opacity:1; 
stroke-linecap:round; stroke-linejoin:round;fill:none"
d="M 62.7500,106.3500
78.7500,106.3500
78.7500,89.6500
62.7500,89.6500
Z" /> 
<path style="fill:none; 
stroke:#000000; stroke-width:0.1000; stroke-opacity:1; 
stroke-linecap:round; stroke-linejoin:round;fill:none"
d="M 80.0000,108.6000
96.0000,108.6000
96.0000,91.9000
80.0000,91.9000
Z" /> 
<path style="fill:none; 
stroke:#000000; stroke-width:0.1000; stroke-opacity:1; 
stroke-linecap:round; stroke-linejoin:round;fill:none"
d="M 111.7500,61.9000
95.7500,61.9000
95.7500,78.6000
111.7500,78.6000
Z" /> 
</g>
<g style="fill:none; 
stroke:#000000; stroke-width:0.1200; stroke-opacity:1; 
stroke-linecap:round; stroke-linejoin:round;">
<path d="M138.3700 87.5950
L139.7500 87.5950
" />
<path d="M138.3700 88.9750
L138.3700 87.5950
" />
<path d="M138.3700 90.2450
L138.3700 92.8950
" />
<path d="M138.3700 90.2450
L141.1300 90.2450
" />
<path d="M138.3700 92.8950
L141.1300 92.8950
" />
<path d="M141.1300 90.2450
L141.1300 92.8950
" />
<path style="fill:none; 
stroke:#000000; stroke-width:0.1000; stroke-opacity:1; 
stroke-linecap:round; stroke-linejoin:round;fill:none"
d="M 94.5000,59.6500
78.5000,59.6500
78.5000,76.3500
94.5000,76.3500
Z" /> 
<path style="fill:none; 
stroke:#000000; stroke-width:0.1000; stroke-opacity:1; 
stroke-linecap:round; stroke-linejoin:round;fill:none"
d="M 114.5000,108.3500
130.5000,108.3500
130.5000,91.6500
114.5000,91.6500
Z" /> 
<path style="fill:none; 
stroke:#000000; stroke-width:0.1000; stroke-opacity:1; 
stroke-linecap:round; stroke-linejoin:round;fill:none"
d="M 97.2500,106.3500
113.2500,106.3500
113.2500,89.6500
97.2500,89.6500
Z" /> 
</g> 
</svg>
