%TF.GenerationSoftware,KiCad,Pcbnew,9.0.2*%
%TF.CreationDate,2025-05-19T01:03:43-04:00*%
%TF.ProjectId,DarkQuest_A5202_Adapter,4461726b-5175-4657-9374-5f4135323032,1*%
%TF.SameCoordinates,Original*%
%TF.FileFunction,Legend,Bot*%
%TF.FilePolarity,Positive*%
%FSLAX46Y46*%
G04 Gerber Fmt 4.6, Leading zero omitted, Abs format (unit mm)*
G04 Created by KiCad (PCBNEW 9.0.2) date 2025-05-19 01:03:43*
%MOMM*%
%LPD*%
G01*
G04 APERTURE LIST*
%ADD10C,0.300000*%
%ADD11C,0.150000*%
%ADD12C,0.200000*%
G04 APERTURE END LIST*
D10*
X154016917Y-68542425D02*
X153302632Y-68542425D01*
X154159774Y-68970996D02*
X153659774Y-67470996D01*
X153659774Y-67470996D02*
X153159774Y-68970996D01*
X151945489Y-67470996D02*
X152659775Y-67470996D01*
X152659775Y-67470996D02*
X152731203Y-68185282D01*
X152731203Y-68185282D02*
X152659775Y-68113853D01*
X152659775Y-68113853D02*
X152516918Y-68042425D01*
X152516918Y-68042425D02*
X152159775Y-68042425D01*
X152159775Y-68042425D02*
X152016918Y-68113853D01*
X152016918Y-68113853D02*
X151945489Y-68185282D01*
X151945489Y-68185282D02*
X151874060Y-68328139D01*
X151874060Y-68328139D02*
X151874060Y-68685282D01*
X151874060Y-68685282D02*
X151945489Y-68828139D01*
X151945489Y-68828139D02*
X152016918Y-68899568D01*
X152016918Y-68899568D02*
X152159775Y-68970996D01*
X152159775Y-68970996D02*
X152516918Y-68970996D01*
X152516918Y-68970996D02*
X152659775Y-68899568D01*
X152659775Y-68899568D02*
X152731203Y-68828139D01*
X151302632Y-67613853D02*
X151231204Y-67542425D01*
X151231204Y-67542425D02*
X151088347Y-67470996D01*
X151088347Y-67470996D02*
X150731204Y-67470996D01*
X150731204Y-67470996D02*
X150588347Y-67542425D01*
X150588347Y-67542425D02*
X150516918Y-67613853D01*
X150516918Y-67613853D02*
X150445489Y-67756710D01*
X150445489Y-67756710D02*
X150445489Y-67899568D01*
X150445489Y-67899568D02*
X150516918Y-68113853D01*
X150516918Y-68113853D02*
X151374061Y-68970996D01*
X151374061Y-68970996D02*
X150445489Y-68970996D01*
X149516918Y-67470996D02*
X149374061Y-67470996D01*
X149374061Y-67470996D02*
X149231204Y-67542425D01*
X149231204Y-67542425D02*
X149159776Y-67613853D01*
X149159776Y-67613853D02*
X149088347Y-67756710D01*
X149088347Y-67756710D02*
X149016918Y-68042425D01*
X149016918Y-68042425D02*
X149016918Y-68399568D01*
X149016918Y-68399568D02*
X149088347Y-68685282D01*
X149088347Y-68685282D02*
X149159776Y-68828139D01*
X149159776Y-68828139D02*
X149231204Y-68899568D01*
X149231204Y-68899568D02*
X149374061Y-68970996D01*
X149374061Y-68970996D02*
X149516918Y-68970996D01*
X149516918Y-68970996D02*
X149659776Y-68899568D01*
X149659776Y-68899568D02*
X149731204Y-68828139D01*
X149731204Y-68828139D02*
X149802633Y-68685282D01*
X149802633Y-68685282D02*
X149874061Y-68399568D01*
X149874061Y-68399568D02*
X149874061Y-68042425D01*
X149874061Y-68042425D02*
X149802633Y-67756710D01*
X149802633Y-67756710D02*
X149731204Y-67613853D01*
X149731204Y-67613853D02*
X149659776Y-67542425D01*
X149659776Y-67542425D02*
X149516918Y-67470996D01*
X148445490Y-67613853D02*
X148374062Y-67542425D01*
X148374062Y-67542425D02*
X148231205Y-67470996D01*
X148231205Y-67470996D02*
X147874062Y-67470996D01*
X147874062Y-67470996D02*
X147731205Y-67542425D01*
X147731205Y-67542425D02*
X147659776Y-67613853D01*
X147659776Y-67613853D02*
X147588347Y-67756710D01*
X147588347Y-67756710D02*
X147588347Y-67899568D01*
X147588347Y-67899568D02*
X147659776Y-68113853D01*
X147659776Y-68113853D02*
X148516919Y-68970996D01*
X148516919Y-68970996D02*
X147588347Y-68970996D01*
X146016919Y-67970996D02*
X145445491Y-67970996D01*
X145802634Y-67470996D02*
X145802634Y-68756710D01*
X145802634Y-68756710D02*
X145731205Y-68899568D01*
X145731205Y-68899568D02*
X145588348Y-68970996D01*
X145588348Y-68970996D02*
X145445491Y-68970996D01*
X144731205Y-68970996D02*
X144874062Y-68899568D01*
X144874062Y-68899568D02*
X144945491Y-68828139D01*
X144945491Y-68828139D02*
X145016919Y-68685282D01*
X145016919Y-68685282D02*
X145016919Y-68256710D01*
X145016919Y-68256710D02*
X144945491Y-68113853D01*
X144945491Y-68113853D02*
X144874062Y-68042425D01*
X144874062Y-68042425D02*
X144731205Y-67970996D01*
X144731205Y-67970996D02*
X144516919Y-67970996D01*
X144516919Y-67970996D02*
X144374062Y-68042425D01*
X144374062Y-68042425D02*
X144302634Y-68113853D01*
X144302634Y-68113853D02*
X144231205Y-68256710D01*
X144231205Y-68256710D02*
X144231205Y-68685282D01*
X144231205Y-68685282D02*
X144302634Y-68828139D01*
X144302634Y-68828139D02*
X144374062Y-68899568D01*
X144374062Y-68899568D02*
X144516919Y-68970996D01*
X144516919Y-68970996D02*
X144731205Y-68970996D01*
X141588348Y-68828139D02*
X141659776Y-68899568D01*
X141659776Y-68899568D02*
X141874062Y-68970996D01*
X141874062Y-68970996D02*
X142016919Y-68970996D01*
X142016919Y-68970996D02*
X142231205Y-68899568D01*
X142231205Y-68899568D02*
X142374062Y-68756710D01*
X142374062Y-68756710D02*
X142445491Y-68613853D01*
X142445491Y-68613853D02*
X142516919Y-68328139D01*
X142516919Y-68328139D02*
X142516919Y-68113853D01*
X142516919Y-68113853D02*
X142445491Y-67828139D01*
X142445491Y-67828139D02*
X142374062Y-67685282D01*
X142374062Y-67685282D02*
X142231205Y-67542425D01*
X142231205Y-67542425D02*
X142016919Y-67470996D01*
X142016919Y-67470996D02*
X141874062Y-67470996D01*
X141874062Y-67470996D02*
X141659776Y-67542425D01*
X141659776Y-67542425D02*
X141588348Y-67613853D01*
X141016919Y-68542425D02*
X140302634Y-68542425D01*
X141159776Y-68970996D02*
X140659776Y-67470996D01*
X140659776Y-67470996D02*
X140159776Y-68970996D01*
X139874062Y-67470996D02*
X139016920Y-67470996D01*
X139445491Y-68970996D02*
X139445491Y-67470996D01*
X137874063Y-67470996D02*
X138159777Y-67470996D01*
X138159777Y-67470996D02*
X138302634Y-67542425D01*
X138302634Y-67542425D02*
X138374063Y-67613853D01*
X138374063Y-67613853D02*
X138516920Y-67828139D01*
X138516920Y-67828139D02*
X138588348Y-68113853D01*
X138588348Y-68113853D02*
X138588348Y-68685282D01*
X138588348Y-68685282D02*
X138516920Y-68828139D01*
X138516920Y-68828139D02*
X138445491Y-68899568D01*
X138445491Y-68899568D02*
X138302634Y-68970996D01*
X138302634Y-68970996D02*
X138016920Y-68970996D01*
X138016920Y-68970996D02*
X137874063Y-68899568D01*
X137874063Y-68899568D02*
X137802634Y-68828139D01*
X137802634Y-68828139D02*
X137731205Y-68685282D01*
X137731205Y-68685282D02*
X137731205Y-68328139D01*
X137731205Y-68328139D02*
X137802634Y-68185282D01*
X137802634Y-68185282D02*
X137874063Y-68113853D01*
X137874063Y-68113853D02*
X138016920Y-68042425D01*
X138016920Y-68042425D02*
X138302634Y-68042425D01*
X138302634Y-68042425D02*
X138445491Y-68113853D01*
X138445491Y-68113853D02*
X138516920Y-68185282D01*
X138516920Y-68185282D02*
X138588348Y-68328139D01*
X153945489Y-71385912D02*
X153945489Y-69885912D01*
X153945489Y-69885912D02*
X153588346Y-69885912D01*
X153588346Y-69885912D02*
X153374060Y-69957341D01*
X153374060Y-69957341D02*
X153231203Y-70100198D01*
X153231203Y-70100198D02*
X153159774Y-70243055D01*
X153159774Y-70243055D02*
X153088346Y-70528769D01*
X153088346Y-70528769D02*
X153088346Y-70743055D01*
X153088346Y-70743055D02*
X153159774Y-71028769D01*
X153159774Y-71028769D02*
X153231203Y-71171626D01*
X153231203Y-71171626D02*
X153374060Y-71314484D01*
X153374060Y-71314484D02*
X153588346Y-71385912D01*
X153588346Y-71385912D02*
X153945489Y-71385912D01*
X151802632Y-71385912D02*
X151802632Y-70600198D01*
X151802632Y-70600198D02*
X151874060Y-70457341D01*
X151874060Y-70457341D02*
X152016917Y-70385912D01*
X152016917Y-70385912D02*
X152302632Y-70385912D01*
X152302632Y-70385912D02*
X152445489Y-70457341D01*
X151802632Y-71314484D02*
X151945489Y-71385912D01*
X151945489Y-71385912D02*
X152302632Y-71385912D01*
X152302632Y-71385912D02*
X152445489Y-71314484D01*
X152445489Y-71314484D02*
X152516917Y-71171626D01*
X152516917Y-71171626D02*
X152516917Y-71028769D01*
X152516917Y-71028769D02*
X152445489Y-70885912D01*
X152445489Y-70885912D02*
X152302632Y-70814484D01*
X152302632Y-70814484D02*
X151945489Y-70814484D01*
X151945489Y-70814484D02*
X151802632Y-70743055D01*
X151088346Y-71385912D02*
X151088346Y-70385912D01*
X151088346Y-70671626D02*
X151016917Y-70528769D01*
X151016917Y-70528769D02*
X150945489Y-70457341D01*
X150945489Y-70457341D02*
X150802631Y-70385912D01*
X150802631Y-70385912D02*
X150659774Y-70385912D01*
X150159775Y-71385912D02*
X150159775Y-69885912D01*
X150016918Y-70814484D02*
X149588346Y-71385912D01*
X149588346Y-70385912D02*
X150159775Y-70957341D01*
X147945489Y-71528769D02*
X148088346Y-71457341D01*
X148088346Y-71457341D02*
X148231203Y-71314484D01*
X148231203Y-71314484D02*
X148445489Y-71100198D01*
X148445489Y-71100198D02*
X148588346Y-71028769D01*
X148588346Y-71028769D02*
X148731203Y-71028769D01*
X148659774Y-71385912D02*
X148802632Y-71314484D01*
X148802632Y-71314484D02*
X148945489Y-71171626D01*
X148945489Y-71171626D02*
X149016917Y-70885912D01*
X149016917Y-70885912D02*
X149016917Y-70385912D01*
X149016917Y-70385912D02*
X148945489Y-70100198D01*
X148945489Y-70100198D02*
X148802632Y-69957341D01*
X148802632Y-69957341D02*
X148659774Y-69885912D01*
X148659774Y-69885912D02*
X148374060Y-69885912D01*
X148374060Y-69885912D02*
X148231203Y-69957341D01*
X148231203Y-69957341D02*
X148088346Y-70100198D01*
X148088346Y-70100198D02*
X148016917Y-70385912D01*
X148016917Y-70385912D02*
X148016917Y-70885912D01*
X148016917Y-70885912D02*
X148088346Y-71171626D01*
X148088346Y-71171626D02*
X148231203Y-71314484D01*
X148231203Y-71314484D02*
X148374060Y-71385912D01*
X148374060Y-71385912D02*
X148659774Y-71385912D01*
X146731203Y-70385912D02*
X146731203Y-71385912D01*
X147374060Y-70385912D02*
X147374060Y-71171626D01*
X147374060Y-71171626D02*
X147302631Y-71314484D01*
X147302631Y-71314484D02*
X147159774Y-71385912D01*
X147159774Y-71385912D02*
X146945488Y-71385912D01*
X146945488Y-71385912D02*
X146802631Y-71314484D01*
X146802631Y-71314484D02*
X146731203Y-71243055D01*
X145445488Y-71314484D02*
X145588345Y-71385912D01*
X145588345Y-71385912D02*
X145874060Y-71385912D01*
X145874060Y-71385912D02*
X146016917Y-71314484D01*
X146016917Y-71314484D02*
X146088345Y-71171626D01*
X146088345Y-71171626D02*
X146088345Y-70600198D01*
X146088345Y-70600198D02*
X146016917Y-70457341D01*
X146016917Y-70457341D02*
X145874060Y-70385912D01*
X145874060Y-70385912D02*
X145588345Y-70385912D01*
X145588345Y-70385912D02*
X145445488Y-70457341D01*
X145445488Y-70457341D02*
X145374060Y-70600198D01*
X145374060Y-70600198D02*
X145374060Y-70743055D01*
X145374060Y-70743055D02*
X146088345Y-70885912D01*
X144802631Y-71314484D02*
X144659774Y-71385912D01*
X144659774Y-71385912D02*
X144374060Y-71385912D01*
X144374060Y-71385912D02*
X144231203Y-71314484D01*
X144231203Y-71314484D02*
X144159774Y-71171626D01*
X144159774Y-71171626D02*
X144159774Y-71100198D01*
X144159774Y-71100198D02*
X144231203Y-70957341D01*
X144231203Y-70957341D02*
X144374060Y-70885912D01*
X144374060Y-70885912D02*
X144588346Y-70885912D01*
X144588346Y-70885912D02*
X144731203Y-70814484D01*
X144731203Y-70814484D02*
X144802631Y-70671626D01*
X144802631Y-70671626D02*
X144802631Y-70600198D01*
X144802631Y-70600198D02*
X144731203Y-70457341D01*
X144731203Y-70457341D02*
X144588346Y-70385912D01*
X144588346Y-70385912D02*
X144374060Y-70385912D01*
X144374060Y-70385912D02*
X144231203Y-70457341D01*
X143731202Y-70385912D02*
X143159774Y-70385912D01*
X143516917Y-69885912D02*
X143516917Y-71171626D01*
X143516917Y-71171626D02*
X143445488Y-71314484D01*
X143445488Y-71314484D02*
X143302631Y-71385912D01*
X143302631Y-71385912D02*
X143159774Y-71385912D01*
X153088346Y-73800828D02*
X153588346Y-73086542D01*
X153945489Y-73800828D02*
X153945489Y-72300828D01*
X153945489Y-72300828D02*
X153374060Y-72300828D01*
X153374060Y-72300828D02*
X153231203Y-72372257D01*
X153231203Y-72372257D02*
X153159774Y-72443685D01*
X153159774Y-72443685D02*
X153088346Y-72586542D01*
X153088346Y-72586542D02*
X153088346Y-72800828D01*
X153088346Y-72800828D02*
X153159774Y-72943685D01*
X153159774Y-72943685D02*
X153231203Y-73015114D01*
X153231203Y-73015114D02*
X153374060Y-73086542D01*
X153374060Y-73086542D02*
X153945489Y-73086542D01*
X151874060Y-73729400D02*
X152016917Y-73800828D01*
X152016917Y-73800828D02*
X152302632Y-73800828D01*
X152302632Y-73800828D02*
X152445489Y-73729400D01*
X152445489Y-73729400D02*
X152516917Y-73586542D01*
X152516917Y-73586542D02*
X152516917Y-73015114D01*
X152516917Y-73015114D02*
X152445489Y-72872257D01*
X152445489Y-72872257D02*
X152302632Y-72800828D01*
X152302632Y-72800828D02*
X152016917Y-72800828D01*
X152016917Y-72800828D02*
X151874060Y-72872257D01*
X151874060Y-72872257D02*
X151802632Y-73015114D01*
X151802632Y-73015114D02*
X151802632Y-73157971D01*
X151802632Y-73157971D02*
X152516917Y-73300828D01*
X151302632Y-72800828D02*
X150945489Y-73800828D01*
X150945489Y-73800828D02*
X150588346Y-72800828D01*
X148088346Y-73800828D02*
X148945489Y-73800828D01*
X148516918Y-73800828D02*
X148516918Y-72300828D01*
X148516918Y-72300828D02*
X148659775Y-72515114D01*
X148659775Y-72515114D02*
X148802632Y-72657971D01*
X148802632Y-72657971D02*
X148945489Y-72729400D01*
X146374061Y-72443685D02*
X146302633Y-72372257D01*
X146302633Y-72372257D02*
X146159776Y-72300828D01*
X146159776Y-72300828D02*
X145802633Y-72300828D01*
X145802633Y-72300828D02*
X145659776Y-72372257D01*
X145659776Y-72372257D02*
X145588347Y-72443685D01*
X145588347Y-72443685D02*
X145516918Y-72586542D01*
X145516918Y-72586542D02*
X145516918Y-72729400D01*
X145516918Y-72729400D02*
X145588347Y-72943685D01*
X145588347Y-72943685D02*
X146445490Y-73800828D01*
X146445490Y-73800828D02*
X145516918Y-73800828D01*
X144588347Y-72300828D02*
X144445490Y-72300828D01*
X144445490Y-72300828D02*
X144302633Y-72372257D01*
X144302633Y-72372257D02*
X144231205Y-72443685D01*
X144231205Y-72443685D02*
X144159776Y-72586542D01*
X144159776Y-72586542D02*
X144088347Y-72872257D01*
X144088347Y-72872257D02*
X144088347Y-73229400D01*
X144088347Y-73229400D02*
X144159776Y-73515114D01*
X144159776Y-73515114D02*
X144231205Y-73657971D01*
X144231205Y-73657971D02*
X144302633Y-73729400D01*
X144302633Y-73729400D02*
X144445490Y-73800828D01*
X144445490Y-73800828D02*
X144588347Y-73800828D01*
X144588347Y-73800828D02*
X144731205Y-73729400D01*
X144731205Y-73729400D02*
X144802633Y-73657971D01*
X144802633Y-73657971D02*
X144874062Y-73515114D01*
X144874062Y-73515114D02*
X144945490Y-73229400D01*
X144945490Y-73229400D02*
X144945490Y-72872257D01*
X144945490Y-72872257D02*
X144874062Y-72586542D01*
X144874062Y-72586542D02*
X144802633Y-72443685D01*
X144802633Y-72443685D02*
X144731205Y-72372257D01*
X144731205Y-72372257D02*
X144588347Y-72300828D01*
X143516919Y-72443685D02*
X143445491Y-72372257D01*
X143445491Y-72372257D02*
X143302634Y-72300828D01*
X143302634Y-72300828D02*
X142945491Y-72300828D01*
X142945491Y-72300828D02*
X142802634Y-72372257D01*
X142802634Y-72372257D02*
X142731205Y-72443685D01*
X142731205Y-72443685D02*
X142659776Y-72586542D01*
X142659776Y-72586542D02*
X142659776Y-72729400D01*
X142659776Y-72729400D02*
X142731205Y-72943685D01*
X142731205Y-72943685D02*
X143588348Y-73800828D01*
X143588348Y-73800828D02*
X142659776Y-73800828D01*
X141302634Y-72300828D02*
X142016920Y-72300828D01*
X142016920Y-72300828D02*
X142088348Y-73015114D01*
X142088348Y-73015114D02*
X142016920Y-72943685D01*
X142016920Y-72943685D02*
X141874063Y-72872257D01*
X141874063Y-72872257D02*
X141516920Y-72872257D01*
X141516920Y-72872257D02*
X141374063Y-72943685D01*
X141374063Y-72943685D02*
X141302634Y-73015114D01*
X141302634Y-73015114D02*
X141231205Y-73157971D01*
X141231205Y-73157971D02*
X141231205Y-73515114D01*
X141231205Y-73515114D02*
X141302634Y-73657971D01*
X141302634Y-73657971D02*
X141374063Y-73729400D01*
X141374063Y-73729400D02*
X141516920Y-73800828D01*
X141516920Y-73800828D02*
X141874063Y-73800828D01*
X141874063Y-73800828D02*
X142016920Y-73729400D01*
X142016920Y-73729400D02*
X142088348Y-73657971D01*
X140588349Y-73229400D02*
X139445492Y-73229400D01*
X138445491Y-72300828D02*
X138302634Y-72300828D01*
X138302634Y-72300828D02*
X138159777Y-72372257D01*
X138159777Y-72372257D02*
X138088349Y-72443685D01*
X138088349Y-72443685D02*
X138016920Y-72586542D01*
X138016920Y-72586542D02*
X137945491Y-72872257D01*
X137945491Y-72872257D02*
X137945491Y-73229400D01*
X137945491Y-73229400D02*
X138016920Y-73515114D01*
X138016920Y-73515114D02*
X138088349Y-73657971D01*
X138088349Y-73657971D02*
X138159777Y-73729400D01*
X138159777Y-73729400D02*
X138302634Y-73800828D01*
X138302634Y-73800828D02*
X138445491Y-73800828D01*
X138445491Y-73800828D02*
X138588349Y-73729400D01*
X138588349Y-73729400D02*
X138659777Y-73657971D01*
X138659777Y-73657971D02*
X138731206Y-73515114D01*
X138731206Y-73515114D02*
X138802634Y-73229400D01*
X138802634Y-73229400D02*
X138802634Y-72872257D01*
X138802634Y-72872257D02*
X138731206Y-72586542D01*
X138731206Y-72586542D02*
X138659777Y-72443685D01*
X138659777Y-72443685D02*
X138588349Y-72372257D01*
X138588349Y-72372257D02*
X138445491Y-72300828D01*
X136588349Y-72300828D02*
X137302635Y-72300828D01*
X137302635Y-72300828D02*
X137374063Y-73015114D01*
X137374063Y-73015114D02*
X137302635Y-72943685D01*
X137302635Y-72943685D02*
X137159778Y-72872257D01*
X137159778Y-72872257D02*
X136802635Y-72872257D01*
X136802635Y-72872257D02*
X136659778Y-72943685D01*
X136659778Y-72943685D02*
X136588349Y-73015114D01*
X136588349Y-73015114D02*
X136516920Y-73157971D01*
X136516920Y-73157971D02*
X136516920Y-73515114D01*
X136516920Y-73515114D02*
X136588349Y-73657971D01*
X136588349Y-73657971D02*
X136659778Y-73729400D01*
X136659778Y-73729400D02*
X136802635Y-73800828D01*
X136802635Y-73800828D02*
X137159778Y-73800828D01*
X137159778Y-73800828D02*
X137302635Y-73729400D01*
X137302635Y-73729400D02*
X137374063Y-73657971D01*
X135874064Y-73229400D02*
X134731207Y-73229400D01*
X133231206Y-73800828D02*
X134088349Y-73800828D01*
X133659778Y-73800828D02*
X133659778Y-72300828D01*
X133659778Y-72300828D02*
X133802635Y-72515114D01*
X133802635Y-72515114D02*
X133945492Y-72657971D01*
X133945492Y-72657971D02*
X134088349Y-72729400D01*
X132516921Y-73800828D02*
X132231207Y-73800828D01*
X132231207Y-73800828D02*
X132088350Y-73729400D01*
X132088350Y-73729400D02*
X132016921Y-73657971D01*
X132016921Y-73657971D02*
X131874064Y-73443685D01*
X131874064Y-73443685D02*
X131802635Y-73157971D01*
X131802635Y-73157971D02*
X131802635Y-72586542D01*
X131802635Y-72586542D02*
X131874064Y-72443685D01*
X131874064Y-72443685D02*
X131945493Y-72372257D01*
X131945493Y-72372257D02*
X132088350Y-72300828D01*
X132088350Y-72300828D02*
X132374064Y-72300828D01*
X132374064Y-72300828D02*
X132516921Y-72372257D01*
X132516921Y-72372257D02*
X132588350Y-72443685D01*
X132588350Y-72443685D02*
X132659778Y-72586542D01*
X132659778Y-72586542D02*
X132659778Y-72943685D01*
X132659778Y-72943685D02*
X132588350Y-73086542D01*
X132588350Y-73086542D02*
X132516921Y-73157971D01*
X132516921Y-73157971D02*
X132374064Y-73229400D01*
X132374064Y-73229400D02*
X132088350Y-73229400D01*
X132088350Y-73229400D02*
X131945493Y-73157971D01*
X131945493Y-73157971D02*
X131874064Y-73086542D01*
X131874064Y-73086542D02*
X131802635Y-72943685D01*
D11*
X132708333Y-75933819D02*
X132708333Y-76648104D01*
X132708333Y-76648104D02*
X132755952Y-76790961D01*
X132755952Y-76790961D02*
X132851190Y-76886200D01*
X132851190Y-76886200D02*
X132994047Y-76933819D01*
X132994047Y-76933819D02*
X133089285Y-76933819D01*
X131708333Y-76933819D02*
X132279761Y-76933819D01*
X131994047Y-76933819D02*
X131994047Y-75933819D01*
X131994047Y-75933819D02*
X132089285Y-76076676D01*
X132089285Y-76076676D02*
X132184523Y-76171914D01*
X132184523Y-76171914D02*
X132279761Y-76219533D01*
D12*
%TO.C,J1*%
X133100000Y-88514000D02*
G75*
G02*
X132900000Y-88514000I-100000J0D01*
G01*
X132900000Y-88514000D02*
G75*
G02*
X133100000Y-88514000I100000J0D01*
G01*
X135700000Y-87614000D02*
X135700000Y-80614000D01*
X135700000Y-80614000D02*
X71900000Y-80614000D01*
X71900000Y-87614000D02*
X135700000Y-87614000D01*
X71900000Y-80614000D02*
X71900000Y-87614000D01*
%TD*%
M02*
