%TF.GenerationSoftware,KiCad,Pcbnew,9.0.2*%
%TF.CreationDate,2025-05-19T01:03:43-04:00*%
%TF.ProjectId,DarkQuest_A5202_Adapter,4461726b-5175-4657-9374-5f4135323032,1*%
%TF.SameCoordinates,Original*%
%TF.FileFunction,Legend,Top*%
%TF.FilePolarity,Positive*%
%FSLAX46Y46*%
G04 Gerber Fmt 4.6, Leading zero omitted, Abs format (unit mm)*
G04 Created by KiCad (PCBNEW 9.0.2) date 2025-05-19 01:03:43*
%MOMM*%
%LPD*%
G01*
G04 APERTURE LIST*
%ADD10C,0.300000*%
%ADD11C,0.100000*%
%ADD12C,0.150000*%
%ADD13C,0.120000*%
G04 APERTURE END LIST*
D10*
X132233082Y-68542425D02*
X132947368Y-68542425D01*
X132090225Y-68970996D02*
X132590225Y-67470996D01*
X132590225Y-67470996D02*
X133090225Y-68970996D01*
X134304510Y-67470996D02*
X133590224Y-67470996D01*
X133590224Y-67470996D02*
X133518796Y-68185282D01*
X133518796Y-68185282D02*
X133590224Y-68113853D01*
X133590224Y-68113853D02*
X133733082Y-68042425D01*
X133733082Y-68042425D02*
X134090224Y-68042425D01*
X134090224Y-68042425D02*
X134233082Y-68113853D01*
X134233082Y-68113853D02*
X134304510Y-68185282D01*
X134304510Y-68185282D02*
X134375939Y-68328139D01*
X134375939Y-68328139D02*
X134375939Y-68685282D01*
X134375939Y-68685282D02*
X134304510Y-68828139D01*
X134304510Y-68828139D02*
X134233082Y-68899568D01*
X134233082Y-68899568D02*
X134090224Y-68970996D01*
X134090224Y-68970996D02*
X133733082Y-68970996D01*
X133733082Y-68970996D02*
X133590224Y-68899568D01*
X133590224Y-68899568D02*
X133518796Y-68828139D01*
X134947367Y-67613853D02*
X135018795Y-67542425D01*
X135018795Y-67542425D02*
X135161653Y-67470996D01*
X135161653Y-67470996D02*
X135518795Y-67470996D01*
X135518795Y-67470996D02*
X135661653Y-67542425D01*
X135661653Y-67542425D02*
X135733081Y-67613853D01*
X135733081Y-67613853D02*
X135804510Y-67756710D01*
X135804510Y-67756710D02*
X135804510Y-67899568D01*
X135804510Y-67899568D02*
X135733081Y-68113853D01*
X135733081Y-68113853D02*
X134875938Y-68970996D01*
X134875938Y-68970996D02*
X135804510Y-68970996D01*
X136733081Y-67470996D02*
X136875938Y-67470996D01*
X136875938Y-67470996D02*
X137018795Y-67542425D01*
X137018795Y-67542425D02*
X137090224Y-67613853D01*
X137090224Y-67613853D02*
X137161652Y-67756710D01*
X137161652Y-67756710D02*
X137233081Y-68042425D01*
X137233081Y-68042425D02*
X137233081Y-68399568D01*
X137233081Y-68399568D02*
X137161652Y-68685282D01*
X137161652Y-68685282D02*
X137090224Y-68828139D01*
X137090224Y-68828139D02*
X137018795Y-68899568D01*
X137018795Y-68899568D02*
X136875938Y-68970996D01*
X136875938Y-68970996D02*
X136733081Y-68970996D01*
X136733081Y-68970996D02*
X136590224Y-68899568D01*
X136590224Y-68899568D02*
X136518795Y-68828139D01*
X136518795Y-68828139D02*
X136447366Y-68685282D01*
X136447366Y-68685282D02*
X136375938Y-68399568D01*
X136375938Y-68399568D02*
X136375938Y-68042425D01*
X136375938Y-68042425D02*
X136447366Y-67756710D01*
X136447366Y-67756710D02*
X136518795Y-67613853D01*
X136518795Y-67613853D02*
X136590224Y-67542425D01*
X136590224Y-67542425D02*
X136733081Y-67470996D01*
X137804509Y-67613853D02*
X137875937Y-67542425D01*
X137875937Y-67542425D02*
X138018795Y-67470996D01*
X138018795Y-67470996D02*
X138375937Y-67470996D01*
X138375937Y-67470996D02*
X138518795Y-67542425D01*
X138518795Y-67542425D02*
X138590223Y-67613853D01*
X138590223Y-67613853D02*
X138661652Y-67756710D01*
X138661652Y-67756710D02*
X138661652Y-67899568D01*
X138661652Y-67899568D02*
X138590223Y-68113853D01*
X138590223Y-68113853D02*
X137733080Y-68970996D01*
X137733080Y-68970996D02*
X138661652Y-68970996D01*
X140233080Y-67970996D02*
X140804508Y-67970996D01*
X140447365Y-67470996D02*
X140447365Y-68756710D01*
X140447365Y-68756710D02*
X140518794Y-68899568D01*
X140518794Y-68899568D02*
X140661651Y-68970996D01*
X140661651Y-68970996D02*
X140804508Y-68970996D01*
X141518794Y-68970996D02*
X141375937Y-68899568D01*
X141375937Y-68899568D02*
X141304508Y-68828139D01*
X141304508Y-68828139D02*
X141233080Y-68685282D01*
X141233080Y-68685282D02*
X141233080Y-68256710D01*
X141233080Y-68256710D02*
X141304508Y-68113853D01*
X141304508Y-68113853D02*
X141375937Y-68042425D01*
X141375937Y-68042425D02*
X141518794Y-67970996D01*
X141518794Y-67970996D02*
X141733080Y-67970996D01*
X141733080Y-67970996D02*
X141875937Y-68042425D01*
X141875937Y-68042425D02*
X141947366Y-68113853D01*
X141947366Y-68113853D02*
X142018794Y-68256710D01*
X142018794Y-68256710D02*
X142018794Y-68685282D01*
X142018794Y-68685282D02*
X141947366Y-68828139D01*
X141947366Y-68828139D02*
X141875937Y-68899568D01*
X141875937Y-68899568D02*
X141733080Y-68970996D01*
X141733080Y-68970996D02*
X141518794Y-68970996D01*
X144661651Y-68828139D02*
X144590223Y-68899568D01*
X144590223Y-68899568D02*
X144375937Y-68970996D01*
X144375937Y-68970996D02*
X144233080Y-68970996D01*
X144233080Y-68970996D02*
X144018794Y-68899568D01*
X144018794Y-68899568D02*
X143875937Y-68756710D01*
X143875937Y-68756710D02*
X143804508Y-68613853D01*
X143804508Y-68613853D02*
X143733080Y-68328139D01*
X143733080Y-68328139D02*
X143733080Y-68113853D01*
X143733080Y-68113853D02*
X143804508Y-67828139D01*
X143804508Y-67828139D02*
X143875937Y-67685282D01*
X143875937Y-67685282D02*
X144018794Y-67542425D01*
X144018794Y-67542425D02*
X144233080Y-67470996D01*
X144233080Y-67470996D02*
X144375937Y-67470996D01*
X144375937Y-67470996D02*
X144590223Y-67542425D01*
X144590223Y-67542425D02*
X144661651Y-67613853D01*
X145233080Y-68542425D02*
X145947366Y-68542425D01*
X145090223Y-68970996D02*
X145590223Y-67470996D01*
X145590223Y-67470996D02*
X146090223Y-68970996D01*
X146375937Y-67470996D02*
X147233080Y-67470996D01*
X146804508Y-68970996D02*
X146804508Y-67470996D01*
X148375937Y-67470996D02*
X148090222Y-67470996D01*
X148090222Y-67470996D02*
X147947365Y-67542425D01*
X147947365Y-67542425D02*
X147875937Y-67613853D01*
X147875937Y-67613853D02*
X147733079Y-67828139D01*
X147733079Y-67828139D02*
X147661651Y-68113853D01*
X147661651Y-68113853D02*
X147661651Y-68685282D01*
X147661651Y-68685282D02*
X147733079Y-68828139D01*
X147733079Y-68828139D02*
X147804508Y-68899568D01*
X147804508Y-68899568D02*
X147947365Y-68970996D01*
X147947365Y-68970996D02*
X148233079Y-68970996D01*
X148233079Y-68970996D02*
X148375937Y-68899568D01*
X148375937Y-68899568D02*
X148447365Y-68828139D01*
X148447365Y-68828139D02*
X148518794Y-68685282D01*
X148518794Y-68685282D02*
X148518794Y-68328139D01*
X148518794Y-68328139D02*
X148447365Y-68185282D01*
X148447365Y-68185282D02*
X148375937Y-68113853D01*
X148375937Y-68113853D02*
X148233079Y-68042425D01*
X148233079Y-68042425D02*
X147947365Y-68042425D01*
X147947365Y-68042425D02*
X147804508Y-68113853D01*
X147804508Y-68113853D02*
X147733079Y-68185282D01*
X147733079Y-68185282D02*
X147661651Y-68328139D01*
X132304510Y-71385912D02*
X132304510Y-69885912D01*
X132304510Y-69885912D02*
X132661653Y-69885912D01*
X132661653Y-69885912D02*
X132875939Y-69957341D01*
X132875939Y-69957341D02*
X133018796Y-70100198D01*
X133018796Y-70100198D02*
X133090225Y-70243055D01*
X133090225Y-70243055D02*
X133161653Y-70528769D01*
X133161653Y-70528769D02*
X133161653Y-70743055D01*
X133161653Y-70743055D02*
X133090225Y-71028769D01*
X133090225Y-71028769D02*
X133018796Y-71171626D01*
X133018796Y-71171626D02*
X132875939Y-71314484D01*
X132875939Y-71314484D02*
X132661653Y-71385912D01*
X132661653Y-71385912D02*
X132304510Y-71385912D01*
X134447368Y-71385912D02*
X134447368Y-70600198D01*
X134447368Y-70600198D02*
X134375939Y-70457341D01*
X134375939Y-70457341D02*
X134233082Y-70385912D01*
X134233082Y-70385912D02*
X133947368Y-70385912D01*
X133947368Y-70385912D02*
X133804510Y-70457341D01*
X134447368Y-71314484D02*
X134304510Y-71385912D01*
X134304510Y-71385912D02*
X133947368Y-71385912D01*
X133947368Y-71385912D02*
X133804510Y-71314484D01*
X133804510Y-71314484D02*
X133733082Y-71171626D01*
X133733082Y-71171626D02*
X133733082Y-71028769D01*
X133733082Y-71028769D02*
X133804510Y-70885912D01*
X133804510Y-70885912D02*
X133947368Y-70814484D01*
X133947368Y-70814484D02*
X134304510Y-70814484D01*
X134304510Y-70814484D02*
X134447368Y-70743055D01*
X135161653Y-71385912D02*
X135161653Y-70385912D01*
X135161653Y-70671626D02*
X135233082Y-70528769D01*
X135233082Y-70528769D02*
X135304511Y-70457341D01*
X135304511Y-70457341D02*
X135447368Y-70385912D01*
X135447368Y-70385912D02*
X135590225Y-70385912D01*
X136090224Y-71385912D02*
X136090224Y-69885912D01*
X136233082Y-70814484D02*
X136661653Y-71385912D01*
X136661653Y-70385912D02*
X136090224Y-70957341D01*
X138304510Y-71528769D02*
X138161653Y-71457341D01*
X138161653Y-71457341D02*
X138018796Y-71314484D01*
X138018796Y-71314484D02*
X137804510Y-71100198D01*
X137804510Y-71100198D02*
X137661653Y-71028769D01*
X137661653Y-71028769D02*
X137518796Y-71028769D01*
X137590225Y-71385912D02*
X137447368Y-71314484D01*
X137447368Y-71314484D02*
X137304510Y-71171626D01*
X137304510Y-71171626D02*
X137233082Y-70885912D01*
X137233082Y-70885912D02*
X137233082Y-70385912D01*
X137233082Y-70385912D02*
X137304510Y-70100198D01*
X137304510Y-70100198D02*
X137447368Y-69957341D01*
X137447368Y-69957341D02*
X137590225Y-69885912D01*
X137590225Y-69885912D02*
X137875939Y-69885912D01*
X137875939Y-69885912D02*
X138018796Y-69957341D01*
X138018796Y-69957341D02*
X138161653Y-70100198D01*
X138161653Y-70100198D02*
X138233082Y-70385912D01*
X138233082Y-70385912D02*
X138233082Y-70885912D01*
X138233082Y-70885912D02*
X138161653Y-71171626D01*
X138161653Y-71171626D02*
X138018796Y-71314484D01*
X138018796Y-71314484D02*
X137875939Y-71385912D01*
X137875939Y-71385912D02*
X137590225Y-71385912D01*
X139518797Y-70385912D02*
X139518797Y-71385912D01*
X138875939Y-70385912D02*
X138875939Y-71171626D01*
X138875939Y-71171626D02*
X138947368Y-71314484D01*
X138947368Y-71314484D02*
X139090225Y-71385912D01*
X139090225Y-71385912D02*
X139304511Y-71385912D01*
X139304511Y-71385912D02*
X139447368Y-71314484D01*
X139447368Y-71314484D02*
X139518797Y-71243055D01*
X140804511Y-71314484D02*
X140661654Y-71385912D01*
X140661654Y-71385912D02*
X140375940Y-71385912D01*
X140375940Y-71385912D02*
X140233082Y-71314484D01*
X140233082Y-71314484D02*
X140161654Y-71171626D01*
X140161654Y-71171626D02*
X140161654Y-70600198D01*
X140161654Y-70600198D02*
X140233082Y-70457341D01*
X140233082Y-70457341D02*
X140375940Y-70385912D01*
X140375940Y-70385912D02*
X140661654Y-70385912D01*
X140661654Y-70385912D02*
X140804511Y-70457341D01*
X140804511Y-70457341D02*
X140875940Y-70600198D01*
X140875940Y-70600198D02*
X140875940Y-70743055D01*
X140875940Y-70743055D02*
X140161654Y-70885912D01*
X141447368Y-71314484D02*
X141590225Y-71385912D01*
X141590225Y-71385912D02*
X141875939Y-71385912D01*
X141875939Y-71385912D02*
X142018796Y-71314484D01*
X142018796Y-71314484D02*
X142090225Y-71171626D01*
X142090225Y-71171626D02*
X142090225Y-71100198D01*
X142090225Y-71100198D02*
X142018796Y-70957341D01*
X142018796Y-70957341D02*
X141875939Y-70885912D01*
X141875939Y-70885912D02*
X141661654Y-70885912D01*
X141661654Y-70885912D02*
X141518796Y-70814484D01*
X141518796Y-70814484D02*
X141447368Y-70671626D01*
X141447368Y-70671626D02*
X141447368Y-70600198D01*
X141447368Y-70600198D02*
X141518796Y-70457341D01*
X141518796Y-70457341D02*
X141661654Y-70385912D01*
X141661654Y-70385912D02*
X141875939Y-70385912D01*
X141875939Y-70385912D02*
X142018796Y-70457341D01*
X142518797Y-70385912D02*
X143090225Y-70385912D01*
X142733082Y-69885912D02*
X142733082Y-71171626D01*
X142733082Y-71171626D02*
X142804511Y-71314484D01*
X142804511Y-71314484D02*
X142947368Y-71385912D01*
X142947368Y-71385912D02*
X143090225Y-71385912D01*
X133161653Y-73800828D02*
X132661653Y-73086542D01*
X132304510Y-73800828D02*
X132304510Y-72300828D01*
X132304510Y-72300828D02*
X132875939Y-72300828D01*
X132875939Y-72300828D02*
X133018796Y-72372257D01*
X133018796Y-72372257D02*
X133090225Y-72443685D01*
X133090225Y-72443685D02*
X133161653Y-72586542D01*
X133161653Y-72586542D02*
X133161653Y-72800828D01*
X133161653Y-72800828D02*
X133090225Y-72943685D01*
X133090225Y-72943685D02*
X133018796Y-73015114D01*
X133018796Y-73015114D02*
X132875939Y-73086542D01*
X132875939Y-73086542D02*
X132304510Y-73086542D01*
X134375939Y-73729400D02*
X134233082Y-73800828D01*
X134233082Y-73800828D02*
X133947368Y-73800828D01*
X133947368Y-73800828D02*
X133804510Y-73729400D01*
X133804510Y-73729400D02*
X133733082Y-73586542D01*
X133733082Y-73586542D02*
X133733082Y-73015114D01*
X133733082Y-73015114D02*
X133804510Y-72872257D01*
X133804510Y-72872257D02*
X133947368Y-72800828D01*
X133947368Y-72800828D02*
X134233082Y-72800828D01*
X134233082Y-72800828D02*
X134375939Y-72872257D01*
X134375939Y-72872257D02*
X134447368Y-73015114D01*
X134447368Y-73015114D02*
X134447368Y-73157971D01*
X134447368Y-73157971D02*
X133733082Y-73300828D01*
X134947367Y-72800828D02*
X135304510Y-73800828D01*
X135304510Y-73800828D02*
X135661653Y-72800828D01*
X138161653Y-73800828D02*
X137304510Y-73800828D01*
X137733081Y-73800828D02*
X137733081Y-72300828D01*
X137733081Y-72300828D02*
X137590224Y-72515114D01*
X137590224Y-72515114D02*
X137447367Y-72657971D01*
X137447367Y-72657971D02*
X137304510Y-72729400D01*
X139875938Y-72443685D02*
X139947366Y-72372257D01*
X139947366Y-72372257D02*
X140090224Y-72300828D01*
X140090224Y-72300828D02*
X140447366Y-72300828D01*
X140447366Y-72300828D02*
X140590224Y-72372257D01*
X140590224Y-72372257D02*
X140661652Y-72443685D01*
X140661652Y-72443685D02*
X140733081Y-72586542D01*
X140733081Y-72586542D02*
X140733081Y-72729400D01*
X140733081Y-72729400D02*
X140661652Y-72943685D01*
X140661652Y-72943685D02*
X139804509Y-73800828D01*
X139804509Y-73800828D02*
X140733081Y-73800828D01*
X141661652Y-72300828D02*
X141804509Y-72300828D01*
X141804509Y-72300828D02*
X141947366Y-72372257D01*
X141947366Y-72372257D02*
X142018795Y-72443685D01*
X142018795Y-72443685D02*
X142090223Y-72586542D01*
X142090223Y-72586542D02*
X142161652Y-72872257D01*
X142161652Y-72872257D02*
X142161652Y-73229400D01*
X142161652Y-73229400D02*
X142090223Y-73515114D01*
X142090223Y-73515114D02*
X142018795Y-73657971D01*
X142018795Y-73657971D02*
X141947366Y-73729400D01*
X141947366Y-73729400D02*
X141804509Y-73800828D01*
X141804509Y-73800828D02*
X141661652Y-73800828D01*
X141661652Y-73800828D02*
X141518795Y-73729400D01*
X141518795Y-73729400D02*
X141447366Y-73657971D01*
X141447366Y-73657971D02*
X141375937Y-73515114D01*
X141375937Y-73515114D02*
X141304509Y-73229400D01*
X141304509Y-73229400D02*
X141304509Y-72872257D01*
X141304509Y-72872257D02*
X141375937Y-72586542D01*
X141375937Y-72586542D02*
X141447366Y-72443685D01*
X141447366Y-72443685D02*
X141518795Y-72372257D01*
X141518795Y-72372257D02*
X141661652Y-72300828D01*
X142733080Y-72443685D02*
X142804508Y-72372257D01*
X142804508Y-72372257D02*
X142947366Y-72300828D01*
X142947366Y-72300828D02*
X143304508Y-72300828D01*
X143304508Y-72300828D02*
X143447366Y-72372257D01*
X143447366Y-72372257D02*
X143518794Y-72443685D01*
X143518794Y-72443685D02*
X143590223Y-72586542D01*
X143590223Y-72586542D02*
X143590223Y-72729400D01*
X143590223Y-72729400D02*
X143518794Y-72943685D01*
X143518794Y-72943685D02*
X142661651Y-73800828D01*
X142661651Y-73800828D02*
X143590223Y-73800828D01*
X144947365Y-72300828D02*
X144233079Y-72300828D01*
X144233079Y-72300828D02*
X144161651Y-73015114D01*
X144161651Y-73015114D02*
X144233079Y-72943685D01*
X144233079Y-72943685D02*
X144375937Y-72872257D01*
X144375937Y-72872257D02*
X144733079Y-72872257D01*
X144733079Y-72872257D02*
X144875937Y-72943685D01*
X144875937Y-72943685D02*
X144947365Y-73015114D01*
X144947365Y-73015114D02*
X145018794Y-73157971D01*
X145018794Y-73157971D02*
X145018794Y-73515114D01*
X145018794Y-73515114D02*
X144947365Y-73657971D01*
X144947365Y-73657971D02*
X144875937Y-73729400D01*
X144875937Y-73729400D02*
X144733079Y-73800828D01*
X144733079Y-73800828D02*
X144375937Y-73800828D01*
X144375937Y-73800828D02*
X144233079Y-73729400D01*
X144233079Y-73729400D02*
X144161651Y-73657971D01*
X145661650Y-73229400D02*
X146804508Y-73229400D01*
X147804508Y-72300828D02*
X147947365Y-72300828D01*
X147947365Y-72300828D02*
X148090222Y-72372257D01*
X148090222Y-72372257D02*
X148161651Y-72443685D01*
X148161651Y-72443685D02*
X148233079Y-72586542D01*
X148233079Y-72586542D02*
X148304508Y-72872257D01*
X148304508Y-72872257D02*
X148304508Y-73229400D01*
X148304508Y-73229400D02*
X148233079Y-73515114D01*
X148233079Y-73515114D02*
X148161651Y-73657971D01*
X148161651Y-73657971D02*
X148090222Y-73729400D01*
X148090222Y-73729400D02*
X147947365Y-73800828D01*
X147947365Y-73800828D02*
X147804508Y-73800828D01*
X147804508Y-73800828D02*
X147661651Y-73729400D01*
X147661651Y-73729400D02*
X147590222Y-73657971D01*
X147590222Y-73657971D02*
X147518793Y-73515114D01*
X147518793Y-73515114D02*
X147447365Y-73229400D01*
X147447365Y-73229400D02*
X147447365Y-72872257D01*
X147447365Y-72872257D02*
X147518793Y-72586542D01*
X147518793Y-72586542D02*
X147590222Y-72443685D01*
X147590222Y-72443685D02*
X147661651Y-72372257D01*
X147661651Y-72372257D02*
X147804508Y-72300828D01*
X149661650Y-72300828D02*
X148947364Y-72300828D01*
X148947364Y-72300828D02*
X148875936Y-73015114D01*
X148875936Y-73015114D02*
X148947364Y-72943685D01*
X148947364Y-72943685D02*
X149090222Y-72872257D01*
X149090222Y-72872257D02*
X149447364Y-72872257D01*
X149447364Y-72872257D02*
X149590222Y-72943685D01*
X149590222Y-72943685D02*
X149661650Y-73015114D01*
X149661650Y-73015114D02*
X149733079Y-73157971D01*
X149733079Y-73157971D02*
X149733079Y-73515114D01*
X149733079Y-73515114D02*
X149661650Y-73657971D01*
X149661650Y-73657971D02*
X149590222Y-73729400D01*
X149590222Y-73729400D02*
X149447364Y-73800828D01*
X149447364Y-73800828D02*
X149090222Y-73800828D01*
X149090222Y-73800828D02*
X148947364Y-73729400D01*
X148947364Y-73729400D02*
X148875936Y-73657971D01*
X150375935Y-73229400D02*
X151518793Y-73229400D01*
X153018793Y-73800828D02*
X152161650Y-73800828D01*
X152590221Y-73800828D02*
X152590221Y-72300828D01*
X152590221Y-72300828D02*
X152447364Y-72515114D01*
X152447364Y-72515114D02*
X152304507Y-72657971D01*
X152304507Y-72657971D02*
X152161650Y-72729400D01*
X153733078Y-73800828D02*
X154018792Y-73800828D01*
X154018792Y-73800828D02*
X154161649Y-73729400D01*
X154161649Y-73729400D02*
X154233078Y-73657971D01*
X154233078Y-73657971D02*
X154375935Y-73443685D01*
X154375935Y-73443685D02*
X154447364Y-73157971D01*
X154447364Y-73157971D02*
X154447364Y-72586542D01*
X154447364Y-72586542D02*
X154375935Y-72443685D01*
X154375935Y-72443685D02*
X154304507Y-72372257D01*
X154304507Y-72372257D02*
X154161649Y-72300828D01*
X154161649Y-72300828D02*
X153875935Y-72300828D01*
X153875935Y-72300828D02*
X153733078Y-72372257D01*
X153733078Y-72372257D02*
X153661649Y-72443685D01*
X153661649Y-72443685D02*
X153590221Y-72586542D01*
X153590221Y-72586542D02*
X153590221Y-72943685D01*
X153590221Y-72943685D02*
X153661649Y-73086542D01*
X153661649Y-73086542D02*
X153733078Y-73157971D01*
X153733078Y-73157971D02*
X153875935Y-73229400D01*
X153875935Y-73229400D02*
X154161649Y-73229400D01*
X154161649Y-73229400D02*
X154304507Y-73157971D01*
X154304507Y-73157971D02*
X154375935Y-73086542D01*
X154375935Y-73086542D02*
X154447364Y-72943685D01*
D11*
X69583333Y-80292580D02*
X69583333Y-79578295D01*
X69583333Y-79578295D02*
X69630952Y-79435438D01*
X69630952Y-79435438D02*
X69726190Y-79340200D01*
X69726190Y-79340200D02*
X69869047Y-79292580D01*
X69869047Y-79292580D02*
X69964285Y-79292580D01*
X69154761Y-80197342D02*
X69107142Y-80244961D01*
X69107142Y-80244961D02*
X69011904Y-80292580D01*
X69011904Y-80292580D02*
X68773809Y-80292580D01*
X68773809Y-80292580D02*
X68678571Y-80244961D01*
X68678571Y-80244961D02*
X68630952Y-80197342D01*
X68630952Y-80197342D02*
X68583333Y-80102104D01*
X68583333Y-80102104D02*
X68583333Y-80006866D01*
X68583333Y-80006866D02*
X68630952Y-79864009D01*
X68630952Y-79864009D02*
X69202380Y-79292580D01*
X69202380Y-79292580D02*
X68583333Y-79292580D01*
X70416666Y-87957419D02*
X70416666Y-88671704D01*
X70416666Y-88671704D02*
X70369047Y-88814561D01*
X70369047Y-88814561D02*
X70273809Y-88909800D01*
X70273809Y-88909800D02*
X70130952Y-88957419D01*
X70130952Y-88957419D02*
X70035714Y-88957419D01*
X70797619Y-87957419D02*
X71416666Y-87957419D01*
X71416666Y-87957419D02*
X71083333Y-88338371D01*
X71083333Y-88338371D02*
X71226190Y-88338371D01*
X71226190Y-88338371D02*
X71321428Y-88385990D01*
X71321428Y-88385990D02*
X71369047Y-88433609D01*
X71369047Y-88433609D02*
X71416666Y-88528847D01*
X71416666Y-88528847D02*
X71416666Y-88766942D01*
X71416666Y-88766942D02*
X71369047Y-88862180D01*
X71369047Y-88862180D02*
X71321428Y-88909800D01*
X71321428Y-88909800D02*
X71226190Y-88957419D01*
X71226190Y-88957419D02*
X70940476Y-88957419D01*
X70940476Y-88957419D02*
X70845238Y-88909800D01*
X70845238Y-88909800D02*
X70797619Y-88862180D01*
X86833333Y-78042580D02*
X86833333Y-77328295D01*
X86833333Y-77328295D02*
X86880952Y-77185438D01*
X86880952Y-77185438D02*
X86976190Y-77090200D01*
X86976190Y-77090200D02*
X87119047Y-77042580D01*
X87119047Y-77042580D02*
X87214285Y-77042580D01*
X85928571Y-77709247D02*
X85928571Y-77042580D01*
X86166666Y-78090200D02*
X86404761Y-77375914D01*
X86404761Y-77375914D02*
X85785714Y-77375914D01*
X87666666Y-90207419D02*
X87666666Y-90921704D01*
X87666666Y-90921704D02*
X87619047Y-91064561D01*
X87619047Y-91064561D02*
X87523809Y-91159800D01*
X87523809Y-91159800D02*
X87380952Y-91207419D01*
X87380952Y-91207419D02*
X87285714Y-91207419D01*
X88619047Y-90207419D02*
X88142857Y-90207419D01*
X88142857Y-90207419D02*
X88095238Y-90683609D01*
X88095238Y-90683609D02*
X88142857Y-90635990D01*
X88142857Y-90635990D02*
X88238095Y-90588371D01*
X88238095Y-90588371D02*
X88476190Y-90588371D01*
X88476190Y-90588371D02*
X88571428Y-90635990D01*
X88571428Y-90635990D02*
X88619047Y-90683609D01*
X88619047Y-90683609D02*
X88666666Y-90778847D01*
X88666666Y-90778847D02*
X88666666Y-91016942D01*
X88666666Y-91016942D02*
X88619047Y-91112180D01*
X88619047Y-91112180D02*
X88571428Y-91159800D01*
X88571428Y-91159800D02*
X88476190Y-91207419D01*
X88476190Y-91207419D02*
X88238095Y-91207419D01*
X88238095Y-91207419D02*
X88142857Y-91159800D01*
X88142857Y-91159800D02*
X88095238Y-91112180D01*
X104083333Y-80292580D02*
X104083333Y-79578295D01*
X104083333Y-79578295D02*
X104130952Y-79435438D01*
X104130952Y-79435438D02*
X104226190Y-79340200D01*
X104226190Y-79340200D02*
X104369047Y-79292580D01*
X104369047Y-79292580D02*
X104464285Y-79292580D01*
X103178571Y-80292580D02*
X103369047Y-80292580D01*
X103369047Y-80292580D02*
X103464285Y-80244961D01*
X103464285Y-80244961D02*
X103511904Y-80197342D01*
X103511904Y-80197342D02*
X103607142Y-80054485D01*
X103607142Y-80054485D02*
X103654761Y-79864009D01*
X103654761Y-79864009D02*
X103654761Y-79483057D01*
X103654761Y-79483057D02*
X103607142Y-79387819D01*
X103607142Y-79387819D02*
X103559523Y-79340200D01*
X103559523Y-79340200D02*
X103464285Y-79292580D01*
X103464285Y-79292580D02*
X103273809Y-79292580D01*
X103273809Y-79292580D02*
X103178571Y-79340200D01*
X103178571Y-79340200D02*
X103130952Y-79387819D01*
X103130952Y-79387819D02*
X103083333Y-79483057D01*
X103083333Y-79483057D02*
X103083333Y-79721152D01*
X103083333Y-79721152D02*
X103130952Y-79816390D01*
X103130952Y-79816390D02*
X103178571Y-79864009D01*
X103178571Y-79864009D02*
X103273809Y-79911628D01*
X103273809Y-79911628D02*
X103464285Y-79911628D01*
X103464285Y-79911628D02*
X103559523Y-79864009D01*
X103559523Y-79864009D02*
X103607142Y-79816390D01*
X103607142Y-79816390D02*
X103654761Y-79721152D01*
X104916666Y-87957419D02*
X104916666Y-88671704D01*
X104916666Y-88671704D02*
X104869047Y-88814561D01*
X104869047Y-88814561D02*
X104773809Y-88909800D01*
X104773809Y-88909800D02*
X104630952Y-88957419D01*
X104630952Y-88957419D02*
X104535714Y-88957419D01*
X105297619Y-87957419D02*
X105964285Y-87957419D01*
X105964285Y-87957419D02*
X105535714Y-88957419D01*
X121333333Y-78042580D02*
X121333333Y-77328295D01*
X121333333Y-77328295D02*
X121380952Y-77185438D01*
X121380952Y-77185438D02*
X121476190Y-77090200D01*
X121476190Y-77090200D02*
X121619047Y-77042580D01*
X121619047Y-77042580D02*
X121714285Y-77042580D01*
X120714285Y-77614009D02*
X120809523Y-77661628D01*
X120809523Y-77661628D02*
X120857142Y-77709247D01*
X120857142Y-77709247D02*
X120904761Y-77804485D01*
X120904761Y-77804485D02*
X120904761Y-77852104D01*
X120904761Y-77852104D02*
X120857142Y-77947342D01*
X120857142Y-77947342D02*
X120809523Y-77994961D01*
X120809523Y-77994961D02*
X120714285Y-78042580D01*
X120714285Y-78042580D02*
X120523809Y-78042580D01*
X120523809Y-78042580D02*
X120428571Y-77994961D01*
X120428571Y-77994961D02*
X120380952Y-77947342D01*
X120380952Y-77947342D02*
X120333333Y-77852104D01*
X120333333Y-77852104D02*
X120333333Y-77804485D01*
X120333333Y-77804485D02*
X120380952Y-77709247D01*
X120380952Y-77709247D02*
X120428571Y-77661628D01*
X120428571Y-77661628D02*
X120523809Y-77614009D01*
X120523809Y-77614009D02*
X120714285Y-77614009D01*
X120714285Y-77614009D02*
X120809523Y-77566390D01*
X120809523Y-77566390D02*
X120857142Y-77518771D01*
X120857142Y-77518771D02*
X120904761Y-77423533D01*
X120904761Y-77423533D02*
X120904761Y-77233057D01*
X120904761Y-77233057D02*
X120857142Y-77137819D01*
X120857142Y-77137819D02*
X120809523Y-77090200D01*
X120809523Y-77090200D02*
X120714285Y-77042580D01*
X120714285Y-77042580D02*
X120523809Y-77042580D01*
X120523809Y-77042580D02*
X120428571Y-77090200D01*
X120428571Y-77090200D02*
X120380952Y-77137819D01*
X120380952Y-77137819D02*
X120333333Y-77233057D01*
X120333333Y-77233057D02*
X120333333Y-77423533D01*
X120333333Y-77423533D02*
X120380952Y-77518771D01*
X120380952Y-77518771D02*
X120428571Y-77566390D01*
X120428571Y-77566390D02*
X120523809Y-77614009D01*
X122166666Y-89957419D02*
X122166666Y-90671704D01*
X122166666Y-90671704D02*
X122119047Y-90814561D01*
X122119047Y-90814561D02*
X122023809Y-90909800D01*
X122023809Y-90909800D02*
X121880952Y-90957419D01*
X121880952Y-90957419D02*
X121785714Y-90957419D01*
X122690476Y-90957419D02*
X122880952Y-90957419D01*
X122880952Y-90957419D02*
X122976190Y-90909800D01*
X122976190Y-90909800D02*
X123023809Y-90862180D01*
X123023809Y-90862180D02*
X123119047Y-90719323D01*
X123119047Y-90719323D02*
X123166666Y-90528847D01*
X123166666Y-90528847D02*
X123166666Y-90147895D01*
X123166666Y-90147895D02*
X123119047Y-90052657D01*
X123119047Y-90052657D02*
X123071428Y-90005038D01*
X123071428Y-90005038D02*
X122976190Y-89957419D01*
X122976190Y-89957419D02*
X122785714Y-89957419D01*
X122785714Y-89957419D02*
X122690476Y-90005038D01*
X122690476Y-90005038D02*
X122642857Y-90052657D01*
X122642857Y-90052657D02*
X122595238Y-90147895D01*
X122595238Y-90147895D02*
X122595238Y-90385990D01*
X122595238Y-90385990D02*
X122642857Y-90481228D01*
X122642857Y-90481228D02*
X122690476Y-90528847D01*
X122690476Y-90528847D02*
X122785714Y-90576466D01*
X122785714Y-90576466D02*
X122976190Y-90576466D01*
X122976190Y-90576466D02*
X123071428Y-90528847D01*
X123071428Y-90528847D02*
X123119047Y-90481228D01*
X123119047Y-90481228D02*
X123166666Y-90385990D01*
D12*
X138940476Y-86049819D02*
X138940476Y-86764104D01*
X138940476Y-86764104D02*
X138892857Y-86906961D01*
X138892857Y-86906961D02*
X138797619Y-87002200D01*
X138797619Y-87002200D02*
X138654762Y-87049819D01*
X138654762Y-87049819D02*
X138559524Y-87049819D01*
X139940476Y-87049819D02*
X139369048Y-87049819D01*
X139654762Y-87049819D02*
X139654762Y-86049819D01*
X139654762Y-86049819D02*
X139559524Y-86192676D01*
X139559524Y-86192676D02*
X139464286Y-86287914D01*
X139464286Y-86287914D02*
X139369048Y-86335533D01*
X140511905Y-86478390D02*
X140416667Y-86430771D01*
X140416667Y-86430771D02*
X140369048Y-86383152D01*
X140369048Y-86383152D02*
X140321429Y-86287914D01*
X140321429Y-86287914D02*
X140321429Y-86240295D01*
X140321429Y-86240295D02*
X140369048Y-86145057D01*
X140369048Y-86145057D02*
X140416667Y-86097438D01*
X140416667Y-86097438D02*
X140511905Y-86049819D01*
X140511905Y-86049819D02*
X140702381Y-86049819D01*
X140702381Y-86049819D02*
X140797619Y-86097438D01*
X140797619Y-86097438D02*
X140845238Y-86145057D01*
X140845238Y-86145057D02*
X140892857Y-86240295D01*
X140892857Y-86240295D02*
X140892857Y-86287914D01*
X140892857Y-86287914D02*
X140845238Y-86383152D01*
X140845238Y-86383152D02*
X140797619Y-86430771D01*
X140797619Y-86430771D02*
X140702381Y-86478390D01*
X140702381Y-86478390D02*
X140511905Y-86478390D01*
X140511905Y-86478390D02*
X140416667Y-86526009D01*
X140416667Y-86526009D02*
X140369048Y-86573628D01*
X140369048Y-86573628D02*
X140321429Y-86668866D01*
X140321429Y-86668866D02*
X140321429Y-86859342D01*
X140321429Y-86859342D02*
X140369048Y-86954580D01*
X140369048Y-86954580D02*
X140416667Y-87002200D01*
X140416667Y-87002200D02*
X140511905Y-87049819D01*
X140511905Y-87049819D02*
X140702381Y-87049819D01*
X140702381Y-87049819D02*
X140797619Y-87002200D01*
X140797619Y-87002200D02*
X140845238Y-86954580D01*
X140845238Y-86954580D02*
X140892857Y-86859342D01*
X140892857Y-86859342D02*
X140892857Y-86668866D01*
X140892857Y-86668866D02*
X140845238Y-86573628D01*
X140845238Y-86573628D02*
X140797619Y-86526009D01*
X140797619Y-86526009D02*
X140702381Y-86478390D01*
%TO.C,J2*%
D11*
X77250000Y-61900000D02*
X61250000Y-61900000D01*
X61250000Y-78600000D01*
X77250000Y-78600000D01*
X77250000Y-61900000D01*
%TO.C,J3*%
X62750000Y-106350000D02*
X78750000Y-106350000D01*
X78750000Y-89650000D01*
X62750000Y-89650000D01*
X62750000Y-106350000D01*
%TO.C,J4*%
X94500000Y-59650000D02*
X78500000Y-59650000D01*
X78500000Y-76350000D01*
X94500000Y-76350000D01*
X94500000Y-59650000D01*
%TO.C,J5*%
X80000000Y-108600000D02*
X96000000Y-108600000D01*
X96000000Y-91900000D01*
X80000000Y-91900000D01*
X80000000Y-108600000D01*
%TO.C,J6*%
X111750000Y-61900000D02*
X95750000Y-61900000D01*
X95750000Y-78600000D01*
X111750000Y-78600000D01*
X111750000Y-61900000D01*
%TO.C,J7*%
X97250000Y-106350000D02*
X113250000Y-106350000D01*
X113250000Y-89650000D01*
X97250000Y-89650000D01*
X97250000Y-106350000D01*
%TO.C,J8*%
X129000000Y-59650000D02*
X113000000Y-59650000D01*
X113000000Y-76350000D01*
X129000000Y-76350000D01*
X129000000Y-59650000D01*
%TO.C,J9*%
X114500000Y-108350000D02*
X130500000Y-108350000D01*
X130500000Y-91650000D01*
X114500000Y-91650000D01*
X114500000Y-108350000D01*
D13*
%TO.C,J18*%
X138370000Y-87595000D02*
X139750000Y-87595000D01*
X138370000Y-88975000D02*
X138370000Y-87595000D01*
X138370000Y-90245000D02*
X138370000Y-92895000D01*
X138370000Y-90245000D02*
X141130000Y-90245000D01*
X138370000Y-92895000D02*
X141130000Y-92895000D01*
X141130000Y-90245000D02*
X141130000Y-92895000D01*
%TD*%
M02*
