M48
; DRILL file {KiCad 9.0.2} date 2025-05-19T01:03:42-0400
; FORMAT={-:-/ absolute / metric / decimal}
; #@! TF.CreationDate,2025-05-19T01:03:42-04:00
; #@! TF.GenerationSoftware,Kicad,Pcbnew,9.0.2
; #@! TF.FileFunction,Plated,1,2,PTH
FMAT,2
METRIC
; #@! TA.AperFunction,Plated,PTH,ViaDrill
T1C0.300
; #@! TA.AperFunction,Plated,PTH,ComponentDrill
T2C0.900
; #@! TA.AperFunction,Plated,PTH,ComponentDrill
T3C1.000
; #@! TA.AperFunction,Plated,PTH,ComponentDrill
T4C1.700
%
G90
G05
T1
X62.659Y-104.093
X74.75Y-87.0
X77.526Y-80.724
X78.006Y-87.256
X81.75Y-84.75
X83.25Y-84.75
X85.0Y-81.0
X85.0Y-84.75
X86.75Y-84.75
X88.2Y-80.05
X88.25Y-84.75
X89.75Y-84.75
X91.5Y-81.0
X91.5Y-84.75
X93.0Y-81.0
X93.0Y-84.75
X94.674Y-80.924
X94.75Y-84.75
X96.25Y-84.75
X97.75Y-83.5
X97.75Y-84.75
X99.5Y-83.5
X99.5Y-84.75
T2
X64.805Y-76.94
X66.075Y-74.4
X66.305Y-93.85
X67.345Y-76.94
X67.575Y-91.31
X68.615Y-74.4
X68.845Y-93.85
X69.885Y-76.94
X70.115Y-91.31
X71.155Y-74.4
X71.385Y-93.85
X72.425Y-76.94
X72.655Y-91.31
X73.695Y-74.4
X73.925Y-93.85
X75.195Y-91.31
X82.055Y-74.69
X83.325Y-72.15
X83.555Y-96.1
X84.595Y-74.69
X84.825Y-93.56
X85.865Y-72.15
X86.095Y-96.1
X87.135Y-74.69
X87.365Y-93.56
X88.405Y-72.15
X88.635Y-96.1
X89.675Y-74.69
X89.905Y-93.56
X90.945Y-72.15
X91.175Y-96.1
X92.445Y-93.56
X99.305Y-76.94
X100.575Y-74.4
X100.805Y-93.85
X101.845Y-76.94
X102.075Y-91.31
X103.115Y-74.4
X103.345Y-93.85
X104.385Y-76.94
X104.615Y-91.31
X105.655Y-74.4
X105.885Y-93.85
X106.925Y-76.94
X107.155Y-91.31
X108.195Y-74.4
X108.425Y-93.85
X109.695Y-91.31
X116.555Y-74.69
X117.825Y-72.15
X118.055Y-95.85
X119.095Y-74.69
X119.325Y-93.31
X120.365Y-72.15
X120.595Y-95.85
X121.635Y-74.69
X121.865Y-93.31
X122.905Y-72.15
X123.135Y-95.85
X124.175Y-74.69
X124.405Y-93.31
X125.445Y-72.15
X125.675Y-95.85
X126.945Y-93.31
T3
X139.75Y-88.975
X139.75Y-91.515
T4
X61.375Y-71.1
X62.875Y-97.15
X77.125Y-71.1
X78.625Y-68.85
X78.625Y-97.15
X80.125Y-99.4
X94.375Y-68.85
X95.875Y-71.1
X95.875Y-99.4
X97.375Y-97.15
X111.625Y-71.1
X113.125Y-68.85
X113.125Y-97.15
X114.625Y-99.15
X128.875Y-68.85
X130.375Y-99.15
M30
