<?xml version="1.0" standalone="no"?>
 <!DOCTYPE svg PUBLIC "-//W3C//DTD SVG 1.1//EN" 
 "http://www.w3.org/Graphics/SVG/1.1/DTD/svg11.dtd"> 
<svg
  xmlns:svg="http://www.w3.org/2000/svg"
  xmlns="http://www.w3.org/2000/svg"
  xmlns:xlink="http://www.w3.org/1999/xlink"
  version="1.1"
  width="297.0022mm" height="210.0072mm" viewBox="0.0000 0.0000 297.0022 210.0072">
<title>SVG Image created as DarkQuest_A5202_Adapter-B_Silkscreen.svg date 2025/06/11 08:11:06 </title>
  <desc>Image generated by PCBNEW </desc>
<g style="fill:#000000; fill-opacity:1.0000;stroke:#000000; stroke-opacity:1.0000;
stroke-linecap:round; stroke-linejoin:round;"
 transform="translate(0 0) scale(1 1)">
</g>
<g style="fill:none; 
stroke:#000000; stroke-width:0.3000; stroke-opacity:1; 
stroke-linecap:round; stroke-linejoin:round;">
<text x="154.5000" y="69.1702"
transform="scale(-1 1) translate(-309.000000 0)"
textLength="17.4571" font-size="2.0000" lengthAdjust="spacingAndGlyphs"
text-anchor="start" opacity="0" stroke-opacity="0">A5202 to CAT6</text>
<g class="stroked-text"><desc>A5202 to CAT6</desc>
<path d="M154.0169 68.5424
L153.3026 68.5424
" />
<path d="M154.1598 68.9710
L153.6598 67.4710
" />
<path d="M153.6598 67.4710
L153.1598 68.9710
" />
<path d="M151.9455 67.4710
L152.6598 67.4710
" />
<path d="M152.6598 67.4710
L152.7312 68.1853
" />
<path d="M152.7312 68.1853
L152.6598 68.1139
" />
<path d="M152.6598 68.1139
L152.5169 68.0424
" />
<path d="M152.5169 68.0424
L152.1598 68.0424
" />
<path d="M152.1598 68.0424
L152.0169 68.1139
" />
<path d="M152.0169 68.1139
L151.9455 68.1853
" />
<path d="M151.9455 68.1853
L151.8741 68.3281
" />
<path d="M151.8741 68.3281
L151.8741 68.6853
" />
<path d="M151.8741 68.6853
L151.9455 68.8281
" />
<path d="M151.9455 68.8281
L152.0169 68.8996
" />
<path d="M152.0169 68.8996
L152.1598 68.9710
" />
<path d="M152.1598 68.9710
L152.5169 68.9710
" />
<path d="M152.5169 68.9710
L152.6598 68.8996
" />
<path d="M152.6598 68.8996
L152.7312 68.8281
" />
<path d="M151.3026 67.6139
L151.2312 67.5424
" />
<path d="M151.2312 67.5424
L151.0883 67.4710
" />
<path d="M151.0883 67.4710
L150.7312 67.4710
" />
<path d="M150.7312 67.4710
L150.5883 67.5424
" />
<path d="M150.5883 67.5424
L150.5169 67.6139
" />
<path d="M150.5169 67.6139
L150.4455 67.7567
" />
<path d="M150.4455 67.7567
L150.4455 67.8996
" />
<path d="M150.4455 67.8996
L150.5169 68.1139
" />
<path d="M150.5169 68.1139
L151.3741 68.9710
" />
<path d="M151.3741 68.9710
L150.4455 68.9710
" />
<path d="M149.5169 67.4710
L149.3741 67.4710
" />
<path d="M149.3741 67.4710
L149.2312 67.5424
" />
<path d="M149.2312 67.5424
L149.1598 67.6139
" />
<path d="M149.1598 67.6139
L149.0883 67.7567
" />
<path d="M149.0883 67.7567
L149.0169 68.0424
" />
<path d="M149.0169 68.0424
L149.0169 68.3996
" />
<path d="M149.0169 68.3996
L149.0883 68.6853
" />
<path d="M149.0883 68.6853
L149.1598 68.8281
" />
<path d="M149.1598 68.8281
L149.2312 68.8996
" />
<path d="M149.2312 68.8996
L149.3741 68.9710
" />
<path d="M149.3741 68.9710
L149.5169 68.9710
" />
<path d="M149.5169 68.9710
L149.6598 68.8996
" />
<path d="M149.6598 68.8996
L149.7312 68.8281
" />
<path d="M149.7312 68.8281
L149.8026 68.6853
" />
<path d="M149.8026 68.6853
L149.8741 68.3996
" />
<path d="M149.8741 68.3996
L149.8741 68.0424
" />
<path d="M149.8741 68.0424
L149.8026 67.7567
" />
<path d="M149.8026 67.7567
L149.7312 67.6139
" />
<path d="M149.7312 67.6139
L149.6598 67.5424
" />
<path d="M149.6598 67.5424
L149.5169 67.4710
" />
<path d="M148.4455 67.6139
L148.3741 67.5424
" />
<path d="M148.3741 67.5424
L148.2312 67.4710
" />
<path d="M148.2312 67.4710
L147.8741 67.4710
" />
<path d="M147.8741 67.4710
L147.7312 67.5424
" />
<path d="M147.7312 67.5424
L147.6598 67.6139
" />
<path d="M147.6598 67.6139
L147.5883 67.7567
" />
<path d="M147.5883 67.7567
L147.5883 67.8996
" />
<path d="M147.5883 67.8996
L147.6598 68.1139
" />
<path d="M147.6598 68.1139
L148.5169 68.9710
" />
<path d="M148.5169 68.9710
L147.5883 68.9710
" />
<path d="M146.0169 67.9710
L145.4455 67.9710
" />
<path d="M145.8026 67.4710
L145.8026 68.7567
" />
<path d="M145.8026 68.7567
L145.7312 68.8996
" />
<path d="M145.7312 68.8996
L145.5883 68.9710
" />
<path d="M145.5883 68.9710
L145.4455 68.9710
" />
<path d="M144.7312 68.9710
L144.8741 68.8996
" />
<path d="M144.8741 68.8996
L144.9455 68.8281
" />
<path d="M144.9455 68.8281
L145.0169 68.6853
" />
<path d="M145.0169 68.6853
L145.0169 68.2567
" />
<path d="M145.0169 68.2567
L144.9455 68.1139
" />
<path d="M144.9455 68.1139
L144.8741 68.0424
" />
<path d="M144.8741 68.0424
L144.7312 67.9710
" />
<path d="M144.7312 67.9710
L144.5169 67.9710
" />
<path d="M144.5169 67.9710
L144.3741 68.0424
" />
<path d="M144.3741 68.0424
L144.3026 68.1139
" />
<path d="M144.3026 68.1139
L144.2312 68.2567
" />
<path d="M144.2312 68.2567
L144.2312 68.6853
" />
<path d="M144.2312 68.6853
L144.3026 68.8281
" />
<path d="M144.3026 68.8281
L144.3741 68.8996
" />
<path d="M144.3741 68.8996
L144.5169 68.9710
" />
<path d="M144.5169 68.9710
L144.7312 68.9710
" />
<path d="M141.5883 68.8281
L141.6598 68.8996
" />
<path d="M141.6598 68.8996
L141.8741 68.9710
" />
<path d="M141.8741 68.9710
L142.0169 68.9710
" />
<path d="M142.0169 68.9710
L142.2312 68.8996
" />
<path d="M142.2312 68.8996
L142.3741 68.7567
" />
<path d="M142.3741 68.7567
L142.4455 68.6139
" />
<path d="M142.4455 68.6139
L142.5169 68.3281
" />
<path d="M142.5169 68.3281
L142.5169 68.1139
" />
<path d="M142.5169 68.1139
L142.4455 67.8281
" />
<path d="M142.4455 67.8281
L142.3741 67.6853
" />
<path d="M142.3741 67.6853
L142.2312 67.5424
" />
<path d="M142.2312 67.5424
L142.0169 67.4710
" />
<path d="M142.0169 67.4710
L141.8741 67.4710
" />
<path d="M141.8741 67.4710
L141.6598 67.5424
" />
<path d="M141.6598 67.5424
L141.5883 67.6139
" />
<path d="M141.0169 68.5424
L140.3026 68.5424
" />
<path d="M141.1598 68.9710
L140.6598 67.4710
" />
<path d="M140.6598 67.4710
L140.1598 68.9710
" />
<path d="M139.8741 67.4710
L139.0169 67.4710
" />
<path d="M139.4455 68.9710
L139.4455 67.4710
" />
<path d="M137.8741 67.4710
L138.1598 67.4710
" />
<path d="M138.1598 67.4710
L138.3026 67.5424
" />
<path d="M138.3026 67.5424
L138.3741 67.6139
" />
<path d="M138.3741 67.6139
L138.5169 67.8281
" />
<path d="M138.5169 67.8281
L138.5883 68.1139
" />
<path d="M138.5883 68.1139
L138.5883 68.6853
" />
<path d="M138.5883 68.6853
L138.5169 68.8281
" />
<path d="M138.5169 68.8281
L138.4455 68.8996
" />
<path d="M138.4455 68.8996
L138.3026 68.9710
" />
<path d="M138.3026 68.9710
L138.0169 68.9710
" />
<path d="M138.0169 68.9710
L137.8741 68.8996
" />
<path d="M137.8741 68.8996
L137.8026 68.8281
" />
<path d="M137.8026 68.8281
L137.7312 68.6853
" />
<path d="M137.7312 68.6853
L137.7312 68.3281
" />
<path d="M137.7312 68.3281
L137.8026 68.1853
" />
<path d="M137.8026 68.1853
L137.8741 68.1139
" />
<path d="M137.8741 68.1139
L138.0169 68.0424
" />
<path d="M138.0169 68.0424
L138.3026 68.0424
" />
<path d="M138.3026 68.0424
L138.4455 68.1139
" />
<path d="M138.4455 68.1139
L138.5169 68.1853
" />
<path d="M138.5169 68.1853
L138.5883 68.3281
" />
</g><text x="154.5000" y="71.5851"
transform="scale(-1 1) translate(-309.000000 0)"
textLength="11.8857" font-size="2.0000" lengthAdjust="spacingAndGlyphs"
text-anchor="start" opacity="0" stroke-opacity="0">DarkQuest</text>
<g class="stroked-text"><desc>DarkQuest</desc>
<path d="M153.9455 71.3859
L153.9455 69.8859
" />
<path d="M153.9455 69.8859
L153.5883 69.8859
" />
<path d="M153.5883 69.8859
L153.3741 69.9573
" />
<path d="M153.3741 69.9573
L153.2312 70.1002
" />
<path d="M153.2312 70.1002
L153.1598 70.2431
" />
<path d="M153.1598 70.2431
L153.0883 70.5288
" />
<path d="M153.0883 70.5288
L153.0883 70.7431
" />
<path d="M153.0883 70.7431
L153.1598 71.0288
" />
<path d="M153.1598 71.0288
L153.2312 71.1716
" />
<path d="M153.2312 71.1716
L153.3741 71.3145
" />
<path d="M153.3741 71.3145
L153.5883 71.3859
" />
<path d="M153.5883 71.3859
L153.9455 71.3859
" />
<path d="M151.8026 71.3859
L151.8026 70.6002
" />
<path d="M151.8026 70.6002
L151.8741 70.4573
" />
<path d="M151.8741 70.4573
L152.0169 70.3859
" />
<path d="M152.0169 70.3859
L152.3026 70.3859
" />
<path d="M152.3026 70.3859
L152.4455 70.4573
" />
<path d="M151.8026 71.3145
L151.9455 71.3859
" />
<path d="M151.9455 71.3859
L152.3026 71.3859
" />
<path d="M152.3026 71.3859
L152.4455 71.3145
" />
<path d="M152.4455 71.3145
L152.5169 71.1716
" />
<path d="M152.5169 71.1716
L152.5169 71.0288
" />
<path d="M152.5169 71.0288
L152.4455 70.8859
" />
<path d="M152.4455 70.8859
L152.3026 70.8145
" />
<path d="M152.3026 70.8145
L151.9455 70.8145
" />
<path d="M151.9455 70.8145
L151.8026 70.7431
" />
<path d="M151.0883 71.3859
L151.0883 70.3859
" />
<path d="M151.0883 70.6716
L151.0169 70.5288
" />
<path d="M151.0169 70.5288
L150.9455 70.4573
" />
<path d="M150.9455 70.4573
L150.8026 70.3859
" />
<path d="M150.8026 70.3859
L150.6598 70.3859
" />
<path d="M150.1598 71.3859
L150.1598 69.8859
" />
<path d="M150.0169 70.8145
L149.5883 71.3859
" />
<path d="M149.5883 70.3859
L150.1598 70.9573
" />
<path d="M147.9455 71.5288
L148.0883 71.4573
" />
<path d="M148.0883 71.4573
L148.2312 71.3145
" />
<path d="M148.2312 71.3145
L148.4455 71.1002
" />
<path d="M148.4455 71.1002
L148.5883 71.0288
" />
<path d="M148.5883 71.0288
L148.7312 71.0288
" />
<path d="M148.6598 71.3859
L148.8026 71.3145
" />
<path d="M148.8026 71.3145
L148.9455 71.1716
" />
<path d="M148.9455 71.1716
L149.0169 70.8859
" />
<path d="M149.0169 70.8859
L149.0169 70.3859
" />
<path d="M149.0169 70.3859
L148.9455 70.1002
" />
<path d="M148.9455 70.1002
L148.8026 69.9573
" />
<path d="M148.8026 69.9573
L148.6598 69.8859
" />
<path d="M148.6598 69.8859
L148.3741 69.8859
" />
<path d="M148.3741 69.8859
L148.2312 69.9573
" />
<path d="M148.2312 69.9573
L148.0883 70.1002
" />
<path d="M148.0883 70.1002
L148.0169 70.3859
" />
<path d="M148.0169 70.3859
L148.0169 70.8859
" />
<path d="M148.0169 70.8859
L148.0883 71.1716
" />
<path d="M148.0883 71.1716
L148.2312 71.3145
" />
<path d="M148.2312 71.3145
L148.3741 71.3859
" />
<path d="M148.3741 71.3859
L148.6598 71.3859
" />
<path d="M146.7312 70.3859
L146.7312 71.3859
" />
<path d="M147.3741 70.3859
L147.3741 71.1716
" />
<path d="M147.3741 71.1716
L147.3026 71.3145
" />
<path d="M147.3026 71.3145
L147.1598 71.3859
" />
<path d="M147.1598 71.3859
L146.9455 71.3859
" />
<path d="M146.9455 71.3859
L146.8026 71.3145
" />
<path d="M146.8026 71.3145
L146.7312 71.2431
" />
<path d="M145.4455 71.3145
L145.5883 71.3859
" />
<path d="M145.5883 71.3859
L145.8741 71.3859
" />
<path d="M145.8741 71.3859
L146.0169 71.3145
" />
<path d="M146.0169 71.3145
L146.0883 71.1716
" />
<path d="M146.0883 71.1716
L146.0883 70.6002
" />
<path d="M146.0883 70.6002
L146.0169 70.4573
" />
<path d="M146.0169 70.4573
L145.8741 70.3859
" />
<path d="M145.8741 70.3859
L145.5883 70.3859
" />
<path d="M145.5883 70.3859
L145.4455 70.4573
" />
<path d="M145.4455 70.4573
L145.3741 70.6002
" />
<path d="M145.3741 70.6002
L145.3741 70.7431
" />
<path d="M145.3741 70.7431
L146.0883 70.8859
" />
<path d="M144.8026 71.3145
L144.6598 71.3859
" />
<path d="M144.6598 71.3859
L144.3741 71.3859
" />
<path d="M144.3741 71.3859
L144.2312 71.3145
" />
<path d="M144.2312 71.3145
L144.1598 71.1716
" />
<path d="M144.1598 71.1716
L144.1598 71.1002
" />
<path d="M144.1598 71.1002
L144.2312 70.9573
" />
<path d="M144.2312 70.9573
L144.3741 70.8859
" />
<path d="M144.3741 70.8859
L144.5883 70.8859
" />
<path d="M144.5883 70.8859
L144.7312 70.8145
" />
<path d="M144.7312 70.8145
L144.8026 70.6716
" />
<path d="M144.8026 70.6716
L144.8026 70.6002
" />
<path d="M144.8026 70.6002
L144.7312 70.4573
" />
<path d="M144.7312 70.4573
L144.5883 70.3859
" />
<path d="M144.5883 70.3859
L144.3741 70.3859
" />
<path d="M144.3741 70.3859
L144.2312 70.4573
" />
<path d="M143.7312 70.3859
L143.1598 70.3859
" />
<path d="M143.5169 69.8859
L143.5169 71.1716
" />
<path d="M143.5169 71.1716
L143.4455 71.3145
" />
<path d="M143.4455 71.3145
L143.3026 71.3859
" />
<path d="M143.3026 71.3859
L143.1598 71.3859
" />
</g><text x="154.5000" y="74.0000"
transform="scale(-1 1) translate(-309.000000 0)"
textLength="23.3857" font-size="2.0000" lengthAdjust="spacingAndGlyphs"
text-anchor="start" opacity="0" stroke-opacity="0">Rev 1 2025-05-19</text>
<g class="stroked-text"><desc>Rev 1 2025-05-19</desc>
<path d="M153.0883 73.8008
L153.5883 73.0865
" />
<path d="M153.9455 73.8008
L153.9455 72.3008
" />
<path d="M153.9455 72.3008
L153.3741 72.3008
" />
<path d="M153.3741 72.3008
L153.2312 72.3723
" />
<path d="M153.2312 72.3723
L153.1598 72.4437
" />
<path d="M153.1598 72.4437
L153.0883 72.5865
" />
<path d="M153.0883 72.5865
L153.0883 72.8008
" />
<path d="M153.0883 72.8008
L153.1598 72.9437
" />
<path d="M153.1598 72.9437
L153.2312 73.0151
" />
<path d="M153.2312 73.0151
L153.3741 73.0865
" />
<path d="M153.3741 73.0865
L153.9455 73.0865
" />
<path d="M151.8741 73.7294
L152.0169 73.8008
" />
<path d="M152.0169 73.8008
L152.3026 73.8008
" />
<path d="M152.3026 73.8008
L152.4455 73.7294
" />
<path d="M152.4455 73.7294
L152.5169 73.5865
" />
<path d="M152.5169 73.5865
L152.5169 73.0151
" />
<path d="M152.5169 73.0151
L152.4455 72.8723
" />
<path d="M152.4455 72.8723
L152.3026 72.8008
" />
<path d="M152.3026 72.8008
L152.0169 72.8008
" />
<path d="M152.0169 72.8008
L151.8741 72.8723
" />
<path d="M151.8741 72.8723
L151.8026 73.0151
" />
<path d="M151.8026 73.0151
L151.8026 73.1580
" />
<path d="M151.8026 73.1580
L152.5169 73.3008
" />
<path d="M151.3026 72.8008
L150.9455 73.8008
" />
<path d="M150.9455 73.8008
L150.5883 72.8008
" />
<path d="M148.0883 73.8008
L148.9455 73.8008
" />
<path d="M148.5169 73.8008
L148.5169 72.3008
" />
<path d="M148.5169 72.3008
L148.6598 72.5151
" />
<path d="M148.6598 72.5151
L148.8026 72.6580
" />
<path d="M148.8026 72.6580
L148.9455 72.7294
" />
<path d="M146.3741 72.4437
L146.3026 72.3723
" />
<path d="M146.3026 72.3723
L146.1598 72.3008
" />
<path d="M146.1598 72.3008
L145.8026 72.3008
" />
<path d="M145.8026 72.3008
L145.6598 72.3723
" />
<path d="M145.6598 72.3723
L145.5883 72.4437
" />
<path d="M145.5883 72.4437
L145.5169 72.5865
" />
<path d="M145.5169 72.5865
L145.5169 72.7294
" />
<path d="M145.5169 72.7294
L145.5883 72.9437
" />
<path d="M145.5883 72.9437
L146.4455 73.8008
" />
<path d="M146.4455 73.8008
L145.5169 73.8008
" />
<path d="M144.5883 72.3008
L144.4455 72.3008
" />
<path d="M144.4455 72.3008
L144.3026 72.3723
" />
<path d="M144.3026 72.3723
L144.2312 72.4437
" />
<path d="M144.2312 72.4437
L144.1598 72.5865
" />
<path d="M144.1598 72.5865
L144.0883 72.8723
" />
<path d="M144.0883 72.8723
L144.0883 73.2294
" />
<path d="M144.0883 73.2294
L144.1598 73.5151
" />
<path d="M144.1598 73.5151
L144.2312 73.6580
" />
<path d="M144.2312 73.6580
L144.3026 73.7294
" />
<path d="M144.3026 73.7294
L144.4455 73.8008
" />
<path d="M144.4455 73.8008
L144.5883 73.8008
" />
<path d="M144.5883 73.8008
L144.7312 73.7294
" />
<path d="M144.7312 73.7294
L144.8026 73.6580
" />
<path d="M144.8026 73.6580
L144.8741 73.5151
" />
<path d="M144.8741 73.5151
L144.9455 73.2294
" />
<path d="M144.9455 73.2294
L144.9455 72.8723
" />
<path d="M144.9455 72.8723
L144.8741 72.5865
" />
<path d="M144.8741 72.5865
L144.8026 72.4437
" />
<path d="M144.8026 72.4437
L144.7312 72.3723
" />
<path d="M144.7312 72.3723
L144.5883 72.3008
" />
<path d="M143.5169 72.4437
L143.4455 72.3723
" />
<path d="M143.4455 72.3723
L143.3026 72.3008
" />
<path d="M143.3026 72.3008
L142.9455 72.3008
" />
<path d="M142.9455 72.3008
L142.8026 72.3723
" />
<path d="M142.8026 72.3723
L142.7312 72.4437
" />
<path d="M142.7312 72.4437
L142.6598 72.5865
" />
<path d="M142.6598 72.5865
L142.6598 72.7294
" />
<path d="M142.6598 72.7294
L142.7312 72.9437
" />
<path d="M142.7312 72.9437
L143.5883 73.8008
" />
<path d="M143.5883 73.8008
L142.6598 73.8008
" />
<path d="M141.3026 72.3008
L142.0169 72.3008
" />
<path d="M142.0169 72.3008
L142.0883 73.0151
" />
<path d="M142.0883 73.0151
L142.0169 72.9437
" />
<path d="M142.0169 72.9437
L141.8741 72.8723
" />
<path d="M141.8741 72.8723
L141.5169 72.8723
" />
<path d="M141.5169 72.8723
L141.3741 72.9437
" />
<path d="M141.3741 72.9437
L141.3026 73.0151
" />
<path d="M141.3026 73.0151
L141.2312 73.1580
" />
<path d="M141.2312 73.1580
L141.2312 73.5151
" />
<path d="M141.2312 73.5151
L141.3026 73.6580
" />
<path d="M141.3026 73.6580
L141.3741 73.7294
" />
<path d="M141.3741 73.7294
L141.5169 73.8008
" />
<path d="M141.5169 73.8008
L141.8741 73.8008
" />
<path d="M141.8741 73.8008
L142.0169 73.7294
" />
<path d="M142.0169 73.7294
L142.0883 73.6580
" />
<path d="M140.5883 73.2294
L139.4455 73.2294
" />
<path d="M138.4455 72.3008
L138.3026 72.3008
" />
<path d="M138.3026 72.3008
L138.1598 72.3723
" />
<path d="M138.1598 72.3723
L138.0883 72.4437
" />
<path d="M138.0883 72.4437
L138.0169 72.5865
" />
<path d="M138.0169 72.5865
L137.9455 72.8723
" />
<path d="M137.9455 72.8723
L137.9455 73.2294
" />
<path d="M137.9455 73.2294
L138.0169 73.5151
" />
<path d="M138.0169 73.5151
L138.0883 73.6580
" />
<path d="M138.0883 73.6580
L138.1598 73.7294
" />
<path d="M138.1598 73.7294
L138.3026 73.8008
" />
<path d="M138.3026 73.8008
L138.4455 73.8008
" />
<path d="M138.4455 73.8008
L138.5883 73.7294
" />
<path d="M138.5883 73.7294
L138.6598 73.6580
" />
<path d="M138.6598 73.6580
L138.7312 73.5151
" />
<path d="M138.7312 73.5151
L138.8026 73.2294
" />
<path d="M138.8026 73.2294
L138.8026 72.8723
" />
<path d="M138.8026 72.8723
L138.7312 72.5865
" />
<path d="M138.7312 72.5865
L138.6598 72.4437
" />
<path d="M138.6598 72.4437
L138.5883 72.3723
" />
<path d="M138.5883 72.3723
L138.4455 72.3008
" />
<path d="M136.5883 72.3008
L137.3026 72.3008
" />
<path d="M137.3026 72.3008
L137.3741 73.0151
" />
<path d="M137.3741 73.0151
L137.3026 72.9437
" />
<path d="M137.3026 72.9437
L137.1598 72.8723
" />
<path d="M137.1598 72.8723
L136.8026 72.8723
" />
<path d="M136.8026 72.8723
L136.6598 72.9437
" />
<path d="M136.6598 72.9437
L136.5883 73.0151
" />
<path d="M136.5883 73.0151
L136.5169 73.1580
" />
<path d="M136.5169 73.1580
L136.5169 73.5151
" />
<path d="M136.5169 73.5151
L136.5883 73.6580
" />
<path d="M136.5883 73.6580
L136.6598 73.7294
" />
<path d="M136.6598 73.7294
L136.8026 73.8008
" />
<path d="M136.8026 73.8008
L137.1598 73.8008
" />
<path d="M137.1598 73.8008
L137.3026 73.7294
" />
<path d="M137.3026 73.7294
L137.3741 73.6580
" />
<path d="M135.8741 73.2294
L134.7312 73.2294
" />
<path d="M133.2312 73.8008
L134.0883 73.8008
" />
<path d="M133.6598 73.8008
L133.6598 72.3008
" />
<path d="M133.6598 72.3008
L133.8026 72.5151
" />
<path d="M133.8026 72.5151
L133.9455 72.6580
" />
<path d="M133.9455 72.6580
L134.0883 72.7294
" />
<path d="M132.5169 73.8008
L132.2312 73.8008
" />
<path d="M132.2312 73.8008
L132.0883 73.7294
" />
<path d="M132.0883 73.7294
L132.0169 73.6580
" />
<path d="M132.0169 73.6580
L131.8741 73.4437
" />
<path d="M131.8741 73.4437
L131.8026 73.1580
" />
<path d="M131.8026 73.1580
L131.8026 72.5865
" />
<path d="M131.8026 72.5865
L131.8741 72.4437
" />
<path d="M131.8741 72.4437
L131.9455 72.3723
" />
<path d="M131.9455 72.3723
L132.0883 72.3008
" />
<path d="M132.0883 72.3008
L132.3741 72.3008
" />
<path d="M132.3741 72.3008
L132.5169 72.3723
" />
<path d="M132.5169 72.3723
L132.5883 72.4437
" />
<path d="M132.5883 72.4437
L132.6598 72.5865
" />
<path d="M132.6598 72.5865
L132.6598 72.9437
" />
<path d="M132.6598 72.9437
L132.5883 73.0865
" />
<path d="M132.5883 73.0865
L132.5169 73.1580
" />
<path d="M132.5169 73.1580
L132.3741 73.2294
" />
<path d="M132.3741 73.2294
L132.0883 73.2294
" />
<path d="M132.0883 73.2294
L131.9455 73.1580
" />
<path d="M131.9455 73.1580
L131.8741 73.0865
" />
<path d="M131.8741 73.0865
L131.8026 72.9437
" />
</g></g>
<g style="fill:none; 
stroke:#000000; stroke-width:0.1500; stroke-opacity:1; 
stroke-linecap:round; stroke-linejoin:round;">
<text x="132.3750" y="76.9790"
transform="scale(-1 1) translate(-264.750000 0)"
textLength="1.9643" font-size="1.3333" lengthAdjust="spacingAndGlyphs"
text-anchor="middle" opacity="0" stroke-opacity="0">J1</text>
<g class="stroked-text"><desc>J1</desc>
<path d="M132.7083 75.9338
L132.7083 76.6481
" />
<path d="M132.7083 76.6481
L132.7560 76.7910
" />
<path d="M132.7560 76.7910
L132.8512 76.8862
" />
<path d="M132.8512 76.8862
L132.9940 76.9338
" />
<path d="M132.9940 76.9338
L133.0893 76.9338
" />
<path d="M131.7083 76.9338
L132.2798 76.9338
" />
<path d="M131.9940 76.9338
L131.9940 75.9338
" />
<path d="M131.9940 75.9338
L132.0893 76.0767
" />
<path d="M132.0893 76.0767
L132.1845 76.1719
" />
<path d="M132.1845 76.1719
L132.2798 76.2195
" />
</g></g>
<g style="fill:none; 
stroke:#000000; stroke-width:0.2000; stroke-opacity:1; 
stroke-linecap:round; stroke-linejoin:round;">
<path d="M71.9000 80.6140
L71.9000 87.6140
" />
<path d="M71.9000 87.6140
L135.7000 87.6140
" />
<path d="M135.7000 80.6140
L71.9000 80.6140
" />
<path d="M135.7000 87.6140
L135.7000 80.6140
" />
<circle cx="133.0000" cy="88.5140" r="0.1000" /> 
</g> 
</svg>
