<?xml version="1.0" standalone="no"?>
 <!DOCTYPE svg PUBLIC "-//W3C//DTD SVG 1.1//EN" 
 "http://www.w3.org/Graphics/SVG/1.1/DTD/svg11.dtd"> 
<svg
  xmlns:svg="http://www.w3.org/2000/svg"
  xmlns="http://www.w3.org/2000/svg"
  xmlns:xlink="http://www.w3.org/1999/xlink"
  version="1.1"
  width="297.0022mm" height="210.0072mm" viewBox="0.0000 0.0000 297.0022 210.0072">
<title>SVG Image created as DarkQuest_A5202_Adapter-B_Mask.svg date 2025/06/11 08:11:06 </title>
  <desc>Image generated by PCBNEW </desc>
<g style="fill:#000000; fill-opacity:1.0000;stroke:#000000; stroke-opacity:1.0000;
stroke-linecap:round; stroke-linejoin:round;"
 transform="translate(0 0) scale(1 1)">
</g>
<g style="fill:#000000; fill-opacity:1.0000; stroke:none;">
<circle cx="74.9650" cy="68.0500" r="1.8250" /> 
</g>
<g style="fill:#000000; fill-opacity:1.0000; stroke:none;">
<circle cx="63.5350" cy="68.0500" r="1.8250" /> 
</g>
<g style="fill:#000000; fill-opacity:1.0000; stroke:none;">
<circle cx="73.6950" cy="74.4000" r="0.7500" /> 
</g>
<g style="fill:#000000; fill-opacity:1.0000; stroke:none;">
<circle cx="72.4250" cy="76.9400" r="0.7500" /> 
</g>
<g style="fill:#000000; fill-opacity:1.0000; stroke:none;">
<circle cx="71.1550" cy="74.4000" r="0.7500" /> 
</g>
<g style="fill:#000000; fill-opacity:1.0000; stroke:none;">
<circle cx="69.8850" cy="76.9400" r="0.7500" /> 
</g>
<g style="fill:#000000; fill-opacity:1.0000; stroke:none;">
<circle cx="68.6150" cy="74.4000" r="0.7500" /> 
</g>
<g style="fill:#000000; fill-opacity:1.0000; stroke:none;">
<circle cx="67.3450" cy="76.9400" r="0.7500" /> 
</g>
<g style="fill:#000000; fill-opacity:1.0000; stroke:none;">
<circle cx="66.0750" cy="74.4000" r="0.7500" /> 
</g>
<g style="fill:#000000; fill-opacity:1.0000; stroke:none;">
<circle cx="64.8050" cy="76.9400" r="0.7500" /> 
</g>
<g style="fill:#000000; fill-opacity:1.0000; stroke:none;">
<circle cx="77.1250" cy="71.1000" r="1.2500" /> 
</g>
<g style="fill:#000000; fill-opacity:1.0000; stroke:none;">
<circle cx="61.3750" cy="71.1000" r="1.2500" /> 
</g>
<g style="fill:#000000; fill-opacity:1.0000; stroke:none;">
<circle cx="126.7150" cy="65.8000" r="1.8250" /> 
</g>
<g style="fill:#000000; fill-opacity:1.0000; stroke:none;">
<circle cx="115.2850" cy="65.8000" r="1.8250" /> 
</g>
<g style="fill:#000000; fill-opacity:1.0000; stroke:none;">
<circle cx="125.4450" cy="72.1500" r="0.7500" /> 
</g>
<g style="fill:#000000; fill-opacity:1.0000; stroke:none;">
<circle cx="124.1750" cy="74.6900" r="0.7500" /> 
</g>
<g style="fill:#000000; fill-opacity:1.0000; stroke:none;">
<circle cx="122.9050" cy="72.1500" r="0.7500" /> 
</g>
<g style="fill:#000000; fill-opacity:1.0000; stroke:none;">
<circle cx="121.6350" cy="74.6900" r="0.7500" /> 
</g>
<g style="fill:#000000; fill-opacity:1.0000; stroke:none;">
<circle cx="120.3650" cy="72.1500" r="0.7500" /> 
</g>
<g style="fill:#000000; fill-opacity:1.0000; stroke:none;">
<circle cx="119.0950" cy="74.6900" r="0.7500" /> 
</g>
<g style="fill:#000000; fill-opacity:1.0000; stroke:none;">
<circle cx="117.8250" cy="72.1500" r="0.7500" /> 
</g>
<g style="fill:#000000; fill-opacity:1.0000; stroke:none;">
<circle cx="116.5550" cy="74.6900" r="0.7500" /> 
</g>
<g style="fill:#000000; fill-opacity:1.0000; stroke:none;">
<circle cx="128.8750" cy="68.8500" r="1.2500" /> 
</g>
<g style="fill:#000000; fill-opacity:1.0000; stroke:none;">
<circle cx="113.1250" cy="68.8500" r="1.2500" /> 
</g>
<g style="fill:#000000; fill-opacity:1.0000; stroke:none;">
<circle cx="65.0350" cy="100.2000" r="1.8250" /> 
</g>
<g style="fill:#000000; fill-opacity:1.0000; stroke:none;">
<circle cx="76.4650" cy="100.2000" r="1.8250" /> 
</g>
<g style="fill:#000000; fill-opacity:1.0000; stroke:none;">
<circle cx="66.3050" cy="93.8500" r="0.7500" /> 
</g>
<g style="fill:#000000; fill-opacity:1.0000; stroke:none;">
<circle cx="67.5750" cy="91.3100" r="0.7500" /> 
</g>
<g style="fill:#000000; fill-opacity:1.0000; stroke:none;">
<circle cx="68.8450" cy="93.8500" r="0.7500" /> 
</g>
<g style="fill:#000000; fill-opacity:1.0000; stroke:none;">
<circle cx="70.1150" cy="91.3100" r="0.7500" /> 
</g>
<g style="fill:#000000; fill-opacity:1.0000; stroke:none;">
<circle cx="71.3850" cy="93.8500" r="0.7500" /> 
</g>
<g style="fill:#000000; fill-opacity:1.0000; stroke:none;">
<circle cx="72.6550" cy="91.3100" r="0.7500" /> 
</g>
<g style="fill:#000000; fill-opacity:1.0000; stroke:none;">
<circle cx="73.9250" cy="93.8500" r="0.7500" /> 
</g>
<g style="fill:#000000; fill-opacity:1.0000; stroke:none;">
<circle cx="75.1950" cy="91.3100" r="0.7500" /> 
</g>
<g style="fill:#000000; fill-opacity:1.0000; stroke:none;">
<circle cx="62.8750" cy="97.1500" r="1.2500" /> 
</g>
<g style="fill:#000000; fill-opacity:1.0000; stroke:none;">
<circle cx="78.6250" cy="97.1500" r="1.2500" /> 
</g>
<g style="fill:#000000; fill-opacity:1.0000; stroke:none;">
<circle cx="82.2850" cy="102.4500" r="1.8250" /> 
</g>
<g style="fill:#000000; fill-opacity:1.0000; stroke:none;">
<circle cx="93.7150" cy="102.4500" r="1.8250" /> 
</g>
<g style="fill:#000000; fill-opacity:1.0000; stroke:none;">
<circle cx="83.5550" cy="96.1000" r="0.7500" /> 
</g>
<g style="fill:#000000; fill-opacity:1.0000; stroke:none;">
<circle cx="84.8250" cy="93.5600" r="0.7500" /> 
</g>
<g style="fill:#000000; fill-opacity:1.0000; stroke:none;">
<circle cx="86.0950" cy="96.1000" r="0.7500" /> 
</g>
<g style="fill:#000000; fill-opacity:1.0000; stroke:none;">
<circle cx="87.3650" cy="93.5600" r="0.7500" /> 
</g>
<g style="fill:#000000; fill-opacity:1.0000; stroke:none;">
<circle cx="88.6350" cy="96.1000" r="0.7500" /> 
</g>
<g style="fill:#000000; fill-opacity:1.0000; stroke:none;">
<circle cx="89.9050" cy="93.5600" r="0.7500" /> 
</g>
<g style="fill:#000000; fill-opacity:1.0000; stroke:none;">
<circle cx="91.1750" cy="96.1000" r="0.7500" /> 
</g>
<g style="fill:#000000; fill-opacity:1.0000; stroke:none;">
<circle cx="92.4450" cy="93.5600" r="0.7500" /> 
</g>
<g style="fill:#000000; fill-opacity:1.0000; stroke:none;">
<circle cx="80.1250" cy="99.4000" r="1.2500" /> 
</g>
<g style="fill:#000000; fill-opacity:1.0000; stroke:none;">
<circle cx="95.8750" cy="99.4000" r="1.2500" /> 
</g>
<g style="fill:#000000; fill-opacity:1.0000; stroke:none;">
<circle cx="109.4650" cy="68.0500" r="1.8250" /> 
</g>
<g style="fill:#000000; fill-opacity:1.0000; stroke:none;">
<circle cx="98.0350" cy="68.0500" r="1.8250" /> 
</g>
<g style="fill:#000000; fill-opacity:1.0000; stroke:none;">
<circle cx="108.1950" cy="74.4000" r="0.7500" /> 
</g>
<g style="fill:#000000; fill-opacity:1.0000; stroke:none;">
<circle cx="106.9250" cy="76.9400" r="0.7500" /> 
</g>
<g style="fill:#000000; fill-opacity:1.0000; stroke:none;">
<circle cx="105.6550" cy="74.4000" r="0.7500" /> 
</g>
<g style="fill:#000000; fill-opacity:1.0000; stroke:none;">
<circle cx="104.3850" cy="76.9400" r="0.7500" /> 
</g>
<g style="fill:#000000; fill-opacity:1.0000; stroke:none;">
<circle cx="103.1150" cy="74.4000" r="0.7500" /> 
</g>
<g style="fill:#000000; fill-opacity:1.0000; stroke:none;">
<circle cx="101.8450" cy="76.9400" r="0.7500" /> 
</g>
<g style="fill:#000000; fill-opacity:1.0000; stroke:none;">
<circle cx="100.5750" cy="74.4000" r="0.7500" /> 
</g>
<g style="fill:#000000; fill-opacity:1.0000; stroke:none;">
<circle cx="99.3050" cy="76.9400" r="0.7500" /> 
</g>
<g style="fill:#000000; fill-opacity:1.0000; stroke:none;">
<circle cx="111.6250" cy="71.1000" r="1.2500" /> 
</g>
<g style="fill:#000000; fill-opacity:1.0000; stroke:none;">
<circle cx="95.8750" cy="71.1000" r="1.2500" /> 
<path style="fill:#000000; fill-opacity:1.0000; stroke:none;fill-rule:evenodd;"
d="M 138.9000,89.8250
138.9000,88.1250
140.6000,88.1250
140.6000,89.8250
Z" /> 
</g>
<g style="fill:#000000; fill-opacity:1.0000; stroke:none;">
<circle cx="139.7500" cy="91.5150" r="0.8500" /> 
</g>
<g style="fill:#000000; fill-opacity:1.0000; stroke:none;">
<circle cx="92.2150" cy="65.8000" r="1.8250" /> 
</g>
<g style="fill:#000000; fill-opacity:1.0000; stroke:none;">
<circle cx="80.7850" cy="65.8000" r="1.8250" /> 
</g>
<g style="fill:#000000; fill-opacity:1.0000; stroke:none;">
<circle cx="90.9450" cy="72.1500" r="0.7500" /> 
</g>
<g style="fill:#000000; fill-opacity:1.0000; stroke:none;">
<circle cx="89.6750" cy="74.6900" r="0.7500" /> 
</g>
<g style="fill:#000000; fill-opacity:1.0000; stroke:none;">
<circle cx="88.4050" cy="72.1500" r="0.7500" /> 
</g>
<g style="fill:#000000; fill-opacity:1.0000; stroke:none;">
<circle cx="87.1350" cy="74.6900" r="0.7500" /> 
</g>
<g style="fill:#000000; fill-opacity:1.0000; stroke:none;">
<circle cx="85.8650" cy="72.1500" r="0.7500" /> 
</g>
<g style="fill:#000000; fill-opacity:1.0000; stroke:none;">
<circle cx="84.5950" cy="74.6900" r="0.7500" /> 
</g>
<g style="fill:#000000; fill-opacity:1.0000; stroke:none;">
<circle cx="83.3250" cy="72.1500" r="0.7500" /> 
</g>
<g style="fill:#000000; fill-opacity:1.0000; stroke:none;">
<circle cx="82.0550" cy="74.6900" r="0.7500" /> 
</g>
<g style="fill:#000000; fill-opacity:1.0000; stroke:none;">
<circle cx="94.3750" cy="68.8500" r="1.2500" /> 
</g>
<g style="fill:#000000; fill-opacity:1.0000; stroke:none;">
<circle cx="78.6250" cy="68.8500" r="1.2500" /> 
</g>
<g style="fill:#000000; fill-opacity:1.0000; stroke:none;">
<circle cx="116.7850" cy="102.2000" r="1.8250" /> 
</g>
<g style="fill:#000000; fill-opacity:1.0000; stroke:none;">
<circle cx="128.2150" cy="102.2000" r="1.8250" /> 
</g>
<g style="fill:#000000; fill-opacity:1.0000; stroke:none;">
<circle cx="118.0550" cy="95.8500" r="0.7500" /> 
</g>
<g style="fill:#000000; fill-opacity:1.0000; stroke:none;">
<circle cx="119.3250" cy="93.3100" r="0.7500" /> 
</g>
<g style="fill:#000000; fill-opacity:1.0000; stroke:none;">
<circle cx="120.5950" cy="95.8500" r="0.7500" /> 
</g>
<g style="fill:#000000; fill-opacity:1.0000; stroke:none;">
<circle cx="121.8650" cy="93.3100" r="0.7500" /> 
</g>
<g style="fill:#000000; fill-opacity:1.0000; stroke:none;">
<circle cx="123.1350" cy="95.8500" r="0.7500" /> 
</g>
<g style="fill:#000000; fill-opacity:1.0000; stroke:none;">
<circle cx="124.4050" cy="93.3100" r="0.7500" /> 
</g>
<g style="fill:#000000; fill-opacity:1.0000; stroke:none;">
<circle cx="125.6750" cy="95.8500" r="0.7500" /> 
</g>
<g style="fill:#000000; fill-opacity:1.0000; stroke:none;">
<circle cx="126.9450" cy="93.3100" r="0.7500" /> 
</g>
<g style="fill:#000000; fill-opacity:1.0000; stroke:none;">
<circle cx="114.6250" cy="99.1500" r="1.2500" /> 
</g>
<g style="fill:#000000; fill-opacity:1.0000; stroke:none;">
<circle cx="130.3750" cy="99.1500" r="1.2500" /> 
</g>
<g style="fill:#000000; fill-opacity:1.0000; stroke:none;">
<circle cx="99.5350" cy="100.2000" r="1.8250" /> 
</g>
<g style="fill:#000000; fill-opacity:1.0000; stroke:none;">
<circle cx="110.9650" cy="100.2000" r="1.8250" /> 
</g>
<g style="fill:#000000; fill-opacity:1.0000; stroke:none;">
<circle cx="100.8050" cy="93.8500" r="0.7500" /> 
</g>
<g style="fill:#000000; fill-opacity:1.0000; stroke:none;">
<circle cx="102.0750" cy="91.3100" r="0.7500" /> 
</g>
<g style="fill:#000000; fill-opacity:1.0000; stroke:none;">
<circle cx="103.3450" cy="93.8500" r="0.7500" /> 
</g>
<g style="fill:#000000; fill-opacity:1.0000; stroke:none;">
<circle cx="104.6150" cy="91.3100" r="0.7500" /> 
</g>
<g style="fill:#000000; fill-opacity:1.0000; stroke:none;">
<circle cx="105.8850" cy="93.8500" r="0.7500" /> 
</g>
<g style="fill:#000000; fill-opacity:1.0000; stroke:none;">
<circle cx="107.1550" cy="91.3100" r="0.7500" /> 
</g>
<g style="fill:#000000; fill-opacity:1.0000; stroke:none;">
<circle cx="108.4250" cy="93.8500" r="0.7500" /> 
</g>
<g style="fill:#000000; fill-opacity:1.0000; stroke:none;">
<circle cx="109.6950" cy="91.3100" r="0.7500" /> 
</g>
<g style="fill:#000000; fill-opacity:1.0000; stroke:none;">
<circle cx="97.3750" cy="97.1500" r="1.2500" /> 
</g>
<g style="fill:#000000; fill-opacity:1.0000; stroke:none;">
<circle cx="113.1250" cy="97.1500" r="1.2500" /> 
</g>
<g style="fill:#000000; fill-opacity:1.0000; stroke:none;">
<circle cx="134.5000" cy="85.6140" r="0.6350" /> 
</g>
<g style="fill:#000000; fill-opacity:1.0000; stroke:none;">
<circle cx="73.1000" cy="84.1140" r="0.6350" /> 
<path style="fill:#000000; fill-opacity:1.0000; stroke:none;fill-rule:evenodd;"
d="M 74.9520,86.4140
74.9442,86.4530
74.9221,86.4861
74.8890,86.5082
74.8500,86.5160
74.3500,86.5160
74.3110,86.5082
74.2779,86.4861
74.2558,86.4530
74.2480,86.4140
74.2480,85.2140
74.2558,85.1750
74.2779,85.1419
74.3110,85.1198
74.3500,85.1120
74.8500,85.1120
74.8890,85.1198
74.9221,85.1419
74.9442,85.1750
74.9520,85.2140
Z" /> 
<path style="fill:#000000; fill-opacity:1.0000; stroke:none;fill-rule:evenodd;"
d="M 74.9520,83.0140
74.9442,83.0530
74.9221,83.0861
74.8890,83.1082
74.8500,83.1160
74.3500,83.1160
74.3110,83.1082
74.2779,83.0861
74.2558,83.0530
74.2480,83.0140
74.2480,81.8140
74.2558,81.7750
74.2779,81.7419
74.3110,81.7198
74.3500,81.7120
74.8500,81.7120
74.8890,81.7198
74.9221,81.7419
74.9442,81.7750
74.9520,81.8140
Z" /> 
<path style="fill:#000000; fill-opacity:1.0000; stroke:none;fill-rule:evenodd;"
d="M 75.7520,86.4140
75.7442,86.4530
75.7221,86.4861
75.6890,86.5082
75.6500,86.5160
75.1500,86.5160
75.1110,86.5082
75.0779,86.4861
75.0558,86.4530
75.0480,86.4140
75.0480,85.2140
75.0558,85.1750
75.0779,85.1419
75.1110,85.1198
75.1500,85.1120
75.6500,85.1120
75.6890,85.1198
75.7221,85.1419
75.7442,85.1750
75.7520,85.2140
Z" /> 
<path style="fill:#000000; fill-opacity:1.0000; stroke:none;fill-rule:evenodd;"
d="M 75.7520,83.0140
75.7442,83.0530
75.7221,83.0861
75.6890,83.1082
75.6500,83.1160
75.1500,83.1160
75.1110,83.1082
75.0779,83.0861
75.0558,83.0530
75.0480,83.0140
75.0480,81.8140
75.0558,81.7750
75.0779,81.7419
75.1110,81.7198
75.1500,81.7120
75.6500,81.7120
75.6890,81.7198
75.7221,81.7419
75.7442,81.7750
75.7520,81.8140
Z" /> 
<path style="fill:#000000; fill-opacity:1.0000; stroke:none;fill-rule:evenodd;"
d="M 76.5520,86.4140
76.5442,86.4530
76.5221,86.4861
76.4890,86.5082
76.4500,86.5160
75.9500,86.5160
75.9110,86.5082
75.8779,86.4861
75.8558,86.4530
75.8480,86.4140
75.8480,85.2140
75.8558,85.1750
75.8779,85.1419
75.9110,85.1198
75.9500,85.1120
76.4500,85.1120
76.4890,85.1198
76.5221,85.1419
76.5442,85.1750
76.5520,85.2140
Z" /> 
<path style="fill:#000000; fill-opacity:1.0000; stroke:none;fill-rule:evenodd;"
d="M 76.5520,83.0140
76.5442,83.0530
76.5221,83.0861
76.4890,83.1082
76.4500,83.1160
75.9500,83.1160
75.9110,83.1082
75.8779,83.0861
75.8558,83.0530
75.8480,83.0140
75.8480,81.8140
75.8558,81.7750
75.8779,81.7419
75.9110,81.7198
75.9500,81.7120
76.4500,81.7120
76.4890,81.7198
76.5221,81.7419
76.5442,81.7750
76.5520,81.8140
Z" /> 
<path style="fill:#000000; fill-opacity:1.0000; stroke:none;fill-rule:evenodd;"
d="M 77.3520,86.4140
77.3442,86.4530
77.3221,86.4861
77.2890,86.5082
77.2500,86.5160
76.7500,86.5160
76.7110,86.5082
76.6779,86.4861
76.6558,86.4530
76.6480,86.4140
76.6480,85.2140
76.6558,85.1750
76.6779,85.1419
76.7110,85.1198
76.7500,85.1120
77.2500,85.1120
77.2890,85.1198
77.3221,85.1419
77.3442,85.1750
77.3520,85.2140
Z" /> 
<path style="fill:#000000; fill-opacity:1.0000; stroke:none;fill-rule:evenodd;"
d="M 77.3520,83.0140
77.3442,83.0530
77.3221,83.0861
77.2890,83.1082
77.2500,83.1160
76.7500,83.1160
76.7110,83.1082
76.6779,83.0861
76.6558,83.0530
76.6480,83.0140
76.6480,81.8140
76.6558,81.7750
76.6779,81.7419
76.7110,81.7198
76.7500,81.7120
77.2500,81.7120
77.2890,81.7198
77.3221,81.7419
77.3442,81.7750
77.3520,81.8140
Z" /> 
<path style="fill:#000000; fill-opacity:1.0000; stroke:none;fill-rule:evenodd;"
d="M 78.1520,86.4140
78.1442,86.4530
78.1221,86.4861
78.0890,86.5082
78.0500,86.5160
77.5500,86.5160
77.5110,86.5082
77.4779,86.4861
77.4558,86.4530
77.4480,86.4140
77.4480,85.2140
77.4558,85.1750
77.4779,85.1419
77.5110,85.1198
77.5500,85.1120
78.0500,85.1120
78.0890,85.1198
78.1221,85.1419
78.1442,85.1750
78.1520,85.2140
Z" /> 
<path style="fill:#000000; fill-opacity:1.0000; stroke:none;fill-rule:evenodd;"
d="M 78.1520,83.0140
78.1442,83.0530
78.1221,83.0861
78.0890,83.1082
78.0500,83.1160
77.5500,83.1160
77.5110,83.1082
77.4779,83.0861
77.4558,83.0530
77.4480,83.0140
77.4480,81.8140
77.4558,81.7750
77.4779,81.7419
77.5110,81.7198
77.5500,81.7120
78.0500,81.7120
78.0890,81.7198
78.1221,81.7419
78.1442,81.7750
78.1520,81.8140
Z" /> 
<path style="fill:#000000; fill-opacity:1.0000; stroke:none;fill-rule:evenodd;"
d="M 78.9520,86.4140
78.9442,86.4530
78.9221,86.4861
78.8890,86.5082
78.8500,86.5160
78.3500,86.5160
78.3110,86.5082
78.2779,86.4861
78.2558,86.4530
78.2480,86.4140
78.2480,85.2140
78.2558,85.1750
78.2779,85.1419
78.3110,85.1198
78.3500,85.1120
78.8500,85.1120
78.8890,85.1198
78.9221,85.1419
78.9442,85.1750
78.9520,85.2140
Z" /> 
<path style="fill:#000000; fill-opacity:1.0000; stroke:none;fill-rule:evenodd;"
d="M 78.9520,83.0140
78.9442,83.0530
78.9221,83.0861
78.8890,83.1082
78.8500,83.1160
78.3500,83.1160
78.3110,83.1082
78.2779,83.0861
78.2558,83.0530
78.2480,83.0140
78.2480,81.8140
78.2558,81.7750
78.2779,81.7419
78.3110,81.7198
78.3500,81.7120
78.8500,81.7120
78.8890,81.7198
78.9221,81.7419
78.9442,81.7750
78.9520,81.8140
Z" /> 
<path style="fill:#000000; fill-opacity:1.0000; stroke:none;fill-rule:evenodd;"
d="M 79.7520,86.4140
79.7442,86.4530
79.7221,86.4861
79.6890,86.5082
79.6500,86.5160
79.1500,86.5160
79.1110,86.5082
79.0779,86.4861
79.0558,86.4530
79.0480,86.4140
79.0480,85.2140
79.0558,85.1750
79.0779,85.1419
79.1110,85.1198
79.1500,85.1120
79.6500,85.1120
79.6890,85.1198
79.7221,85.1419
79.7442,85.1750
79.7520,85.2140
Z" /> 
<path style="fill:#000000; fill-opacity:1.0000; stroke:none;fill-rule:evenodd;"
d="M 79.7520,83.0140
79.7442,83.0530
79.7221,83.0861
79.6890,83.1082
79.6500,83.1160
79.1500,83.1160
79.1110,83.1082
79.0779,83.0861
79.0558,83.0530
79.0480,83.0140
79.0480,81.8140
79.0558,81.7750
79.0779,81.7419
79.1110,81.7198
79.1500,81.7120
79.6500,81.7120
79.6890,81.7198
79.7221,81.7419
79.7442,81.7750
79.7520,81.8140
Z" /> 
<path style="fill:#000000; fill-opacity:1.0000; stroke:none;fill-rule:evenodd;"
d="M 80.5520,86.4140
80.5442,86.4530
80.5221,86.4861
80.4890,86.5082
80.4500,86.5160
79.9500,86.5160
79.9110,86.5082
79.8779,86.4861
79.8558,86.4530
79.8480,86.4140
79.8480,85.2140
79.8558,85.1750
79.8779,85.1419
79.9110,85.1198
79.9500,85.1120
80.4500,85.1120
80.4890,85.1198
80.5221,85.1419
80.5442,85.1750
80.5520,85.2140
Z" /> 
<path style="fill:#000000; fill-opacity:1.0000; stroke:none;fill-rule:evenodd;"
d="M 80.5520,83.0140
80.5442,83.0530
80.5221,83.0861
80.4890,83.1082
80.4500,83.1160
79.9500,83.1160
79.9110,83.1082
79.8779,83.0861
79.8558,83.0530
79.8480,83.0140
79.8480,81.8140
79.8558,81.7750
79.8779,81.7419
79.9110,81.7198
79.9500,81.7120
80.4500,81.7120
80.4890,81.7198
80.5221,81.7419
80.5442,81.7750
80.5520,81.8140
Z" /> 
<path style="fill:#000000; fill-opacity:1.0000; stroke:none;fill-rule:evenodd;"
d="M 81.3520,86.4140
81.3442,86.4530
81.3221,86.4861
81.2890,86.5082
81.2500,86.5160
80.7500,86.5160
80.7110,86.5082
80.6779,86.4861
80.6558,86.4530
80.6480,86.4140
80.6480,85.2140
80.6558,85.1750
80.6779,85.1419
80.7110,85.1198
80.7500,85.1120
81.2500,85.1120
81.2890,85.1198
81.3221,85.1419
81.3442,85.1750
81.3520,85.2140
Z" /> 
<path style="fill:#000000; fill-opacity:1.0000; stroke:none;fill-rule:evenodd;"
d="M 81.3520,83.0140
81.3442,83.0530
81.3221,83.0861
81.2890,83.1082
81.2500,83.1160
80.7500,83.1160
80.7110,83.1082
80.6779,83.0861
80.6558,83.0530
80.6480,83.0140
80.6480,81.8140
80.6558,81.7750
80.6779,81.7419
80.7110,81.7198
80.7500,81.7120
81.2500,81.7120
81.2890,81.7198
81.3221,81.7419
81.3442,81.7750
81.3520,81.8140
Z" /> 
<path style="fill:#000000; fill-opacity:1.0000; stroke:none;fill-rule:evenodd;"
d="M 82.1520,86.4140
82.1442,86.4530
82.1221,86.4861
82.0890,86.5082
82.0500,86.5160
81.5500,86.5160
81.5110,86.5082
81.4779,86.4861
81.4558,86.4530
81.4480,86.4140
81.4480,85.2140
81.4558,85.1750
81.4779,85.1419
81.5110,85.1198
81.5500,85.1120
82.0500,85.1120
82.0890,85.1198
82.1221,85.1419
82.1442,85.1750
82.1520,85.2140
Z" /> 
<path style="fill:#000000; fill-opacity:1.0000; stroke:none;fill-rule:evenodd;"
d="M 82.1520,83.0140
82.1442,83.0530
82.1221,83.0861
82.0890,83.1082
82.0500,83.1160
81.5500,83.1160
81.5110,83.1082
81.4779,83.0861
81.4558,83.0530
81.4480,83.0140
81.4480,81.8140
81.4558,81.7750
81.4779,81.7419
81.5110,81.7198
81.5500,81.7120
82.0500,81.7120
82.0890,81.7198
82.1221,81.7419
82.1442,81.7750
82.1520,81.8140
Z" /> 
<path style="fill:#000000; fill-opacity:1.0000; stroke:none;fill-rule:evenodd;"
d="M 82.9520,86.4140
82.9442,86.4530
82.9221,86.4861
82.8890,86.5082
82.8500,86.5160
82.3500,86.5160
82.3110,86.5082
82.2779,86.4861
82.2558,86.4530
82.2480,86.4140
82.2480,85.2140
82.2558,85.1750
82.2779,85.1419
82.3110,85.1198
82.3500,85.1120
82.8500,85.1120
82.8890,85.1198
82.9221,85.1419
82.9442,85.1750
82.9520,85.2140
Z" /> 
<path style="fill:#000000; fill-opacity:1.0000; stroke:none;fill-rule:evenodd;"
d="M 82.9520,83.0140
82.9442,83.0530
82.9221,83.0861
82.8890,83.1082
82.8500,83.1160
82.3500,83.1160
82.3110,83.1082
82.2779,83.0861
82.2558,83.0530
82.2480,83.0140
82.2480,81.8140
82.2558,81.7750
82.2779,81.7419
82.3110,81.7198
82.3500,81.7120
82.8500,81.7120
82.8890,81.7198
82.9221,81.7419
82.9442,81.7750
82.9520,81.8140
Z" /> 
<path style="fill:#000000; fill-opacity:1.0000; stroke:none;fill-rule:evenodd;"
d="M 83.7520,86.4140
83.7442,86.4530
83.7221,86.4861
83.6890,86.5082
83.6500,86.5160
83.1500,86.5160
83.1110,86.5082
83.0779,86.4861
83.0558,86.4530
83.0480,86.4140
83.0480,85.2140
83.0558,85.1750
83.0779,85.1419
83.1110,85.1198
83.1500,85.1120
83.6500,85.1120
83.6890,85.1198
83.7221,85.1419
83.7442,85.1750
83.7520,85.2140
Z" /> 
<path style="fill:#000000; fill-opacity:1.0000; stroke:none;fill-rule:evenodd;"
d="M 83.7520,83.0140
83.7442,83.0530
83.7221,83.0861
83.6890,83.1082
83.6500,83.1160
83.1500,83.1160
83.1110,83.1082
83.0779,83.0861
83.0558,83.0530
83.0480,83.0140
83.0480,81.8140
83.0558,81.7750
83.0779,81.7419
83.1110,81.7198
83.1500,81.7120
83.6500,81.7120
83.6890,81.7198
83.7221,81.7419
83.7442,81.7750
83.7520,81.8140
Z" /> 
<path style="fill:#000000; fill-opacity:1.0000; stroke:none;fill-rule:evenodd;"
d="M 84.5520,86.4140
84.5442,86.4530
84.5221,86.4861
84.4890,86.5082
84.4500,86.5160
83.9500,86.5160
83.9110,86.5082
83.8779,86.4861
83.8558,86.4530
83.8480,86.4140
83.8480,85.2140
83.8558,85.1750
83.8779,85.1419
83.9110,85.1198
83.9500,85.1120
84.4500,85.1120
84.4890,85.1198
84.5221,85.1419
84.5442,85.1750
84.5520,85.2140
Z" /> 
<path style="fill:#000000; fill-opacity:1.0000; stroke:none;fill-rule:evenodd;"
d="M 84.5520,83.0140
84.5442,83.0530
84.5221,83.0861
84.4890,83.1082
84.4500,83.1160
83.9500,83.1160
83.9110,83.1082
83.8779,83.0861
83.8558,83.0530
83.8480,83.0140
83.8480,81.8140
83.8558,81.7750
83.8779,81.7419
83.9110,81.7198
83.9500,81.7120
84.4500,81.7120
84.4890,81.7198
84.5221,81.7419
84.5442,81.7750
84.5520,81.8140
Z" /> 
<path style="fill:#000000; fill-opacity:1.0000; stroke:none;fill-rule:evenodd;"
d="M 85.3520,86.4140
85.3442,86.4530
85.3221,86.4861
85.2890,86.5082
85.2500,86.5160
84.7500,86.5160
84.7110,86.5082
84.6779,86.4861
84.6558,86.4530
84.6480,86.4140
84.6480,85.2140
84.6558,85.1750
84.6779,85.1419
84.7110,85.1198
84.7500,85.1120
85.2500,85.1120
85.2890,85.1198
85.3221,85.1419
85.3442,85.1750
85.3520,85.2140
Z" /> 
<path style="fill:#000000; fill-opacity:1.0000; stroke:none;fill-rule:evenodd;"
d="M 85.3520,83.0140
85.3442,83.0530
85.3221,83.0861
85.2890,83.1082
85.2500,83.1160
84.7500,83.1160
84.7110,83.1082
84.6779,83.0861
84.6558,83.0530
84.6480,83.0140
84.6480,81.8140
84.6558,81.7750
84.6779,81.7419
84.7110,81.7198
84.7500,81.7120
85.2500,81.7120
85.2890,81.7198
85.3221,81.7419
85.3442,81.7750
85.3520,81.8140
Z" /> 
<path style="fill:#000000; fill-opacity:1.0000; stroke:none;fill-rule:evenodd;"
d="M 86.1520,86.4140
86.1442,86.4530
86.1221,86.4861
86.0890,86.5082
86.0500,86.5160
85.5500,86.5160
85.5110,86.5082
85.4779,86.4861
85.4558,86.4530
85.4480,86.4140
85.4480,85.2140
85.4558,85.1750
85.4779,85.1419
85.5110,85.1198
85.5500,85.1120
86.0500,85.1120
86.0890,85.1198
86.1221,85.1419
86.1442,85.1750
86.1520,85.2140
Z" /> 
<path style="fill:#000000; fill-opacity:1.0000; stroke:none;fill-rule:evenodd;"
d="M 86.1520,83.0140
86.1442,83.0530
86.1221,83.0861
86.0890,83.1082
86.0500,83.1160
85.5500,83.1160
85.5110,83.1082
85.4779,83.0861
85.4558,83.0530
85.4480,83.0140
85.4480,81.8140
85.4558,81.7750
85.4779,81.7419
85.5110,81.7198
85.5500,81.7120
86.0500,81.7120
86.0890,81.7198
86.1221,81.7419
86.1442,81.7750
86.1520,81.8140
Z" /> 
<path style="fill:#000000; fill-opacity:1.0000; stroke:none;fill-rule:evenodd;"
d="M 86.9520,86.4140
86.9442,86.4530
86.9221,86.4861
86.8890,86.5082
86.8500,86.5160
86.3500,86.5160
86.3110,86.5082
86.2779,86.4861
86.2558,86.4530
86.2480,86.4140
86.2480,85.2140
86.2558,85.1750
86.2779,85.1419
86.3110,85.1198
86.3500,85.1120
86.8500,85.1120
86.8890,85.1198
86.9221,85.1419
86.9442,85.1750
86.9520,85.2140
Z" /> 
<path style="fill:#000000; fill-opacity:1.0000; stroke:none;fill-rule:evenodd;"
d="M 86.9520,83.0140
86.9442,83.0530
86.9221,83.0861
86.8890,83.1082
86.8500,83.1160
86.3500,83.1160
86.3110,83.1082
86.2779,83.0861
86.2558,83.0530
86.2480,83.0140
86.2480,81.8140
86.2558,81.7750
86.2779,81.7419
86.3110,81.7198
86.3500,81.7120
86.8500,81.7120
86.8890,81.7198
86.9221,81.7419
86.9442,81.7750
86.9520,81.8140
Z" /> 
<path style="fill:#000000; fill-opacity:1.0000; stroke:none;fill-rule:evenodd;"
d="M 87.7520,86.4140
87.7442,86.4530
87.7221,86.4861
87.6890,86.5082
87.6500,86.5160
87.1500,86.5160
87.1110,86.5082
87.0779,86.4861
87.0558,86.4530
87.0480,86.4140
87.0480,85.2140
87.0558,85.1750
87.0779,85.1419
87.1110,85.1198
87.1500,85.1120
87.6500,85.1120
87.6890,85.1198
87.7221,85.1419
87.7442,85.1750
87.7520,85.2140
Z" /> 
<path style="fill:#000000; fill-opacity:1.0000; stroke:none;fill-rule:evenodd;"
d="M 87.7520,83.0140
87.7442,83.0530
87.7221,83.0861
87.6890,83.1082
87.6500,83.1160
87.1500,83.1160
87.1110,83.1082
87.0779,83.0861
87.0558,83.0530
87.0480,83.0140
87.0480,81.8140
87.0558,81.7750
87.0779,81.7419
87.1110,81.7198
87.1500,81.7120
87.6500,81.7120
87.6890,81.7198
87.7221,81.7419
87.7442,81.7750
87.7520,81.8140
Z" /> 
<path style="fill:#000000; fill-opacity:1.0000; stroke:none;fill-rule:evenodd;"
d="M 88.5520,86.4140
88.5442,86.4530
88.5221,86.4861
88.4890,86.5082
88.4500,86.5160
87.9500,86.5160
87.9110,86.5082
87.8779,86.4861
87.8558,86.4530
87.8480,86.4140
87.8480,85.2140
87.8558,85.1750
87.8779,85.1419
87.9110,85.1198
87.9500,85.1120
88.4500,85.1120
88.4890,85.1198
88.5221,85.1419
88.5442,85.1750
88.5520,85.2140
Z" /> 
<path style="fill:#000000; fill-opacity:1.0000; stroke:none;fill-rule:evenodd;"
d="M 88.5520,83.0140
88.5442,83.0530
88.5221,83.0861
88.4890,83.1082
88.4500,83.1160
87.9500,83.1160
87.9110,83.1082
87.8779,83.0861
87.8558,83.0530
87.8480,83.0140
87.8480,81.8140
87.8558,81.7750
87.8779,81.7419
87.9110,81.7198
87.9500,81.7120
88.4500,81.7120
88.4890,81.7198
88.5221,81.7419
88.5442,81.7750
88.5520,81.8140
Z" /> 
<path style="fill:#000000; fill-opacity:1.0000; stroke:none;fill-rule:evenodd;"
d="M 89.3520,86.4140
89.3442,86.4530
89.3221,86.4861
89.2890,86.5082
89.2500,86.5160
88.7500,86.5160
88.7110,86.5082
88.6779,86.4861
88.6558,86.4530
88.6480,86.4140
88.6480,85.2140
88.6558,85.1750
88.6779,85.1419
88.7110,85.1198
88.7500,85.1120
89.2500,85.1120
89.2890,85.1198
89.3221,85.1419
89.3442,85.1750
89.3520,85.2140
Z" /> 
<path style="fill:#000000; fill-opacity:1.0000; stroke:none;fill-rule:evenodd;"
d="M 89.3520,83.0140
89.3442,83.0530
89.3221,83.0861
89.2890,83.1082
89.2500,83.1160
88.7500,83.1160
88.7110,83.1082
88.6779,83.0861
88.6558,83.0530
88.6480,83.0140
88.6480,81.8140
88.6558,81.7750
88.6779,81.7419
88.7110,81.7198
88.7500,81.7120
89.2500,81.7120
89.2890,81.7198
89.3221,81.7419
89.3442,81.7750
89.3520,81.8140
Z" /> 
<path style="fill:#000000; fill-opacity:1.0000; stroke:none;fill-rule:evenodd;"
d="M 90.1520,86.4140
90.1442,86.4530
90.1221,86.4861
90.0890,86.5082
90.0500,86.5160
89.5500,86.5160
89.5110,86.5082
89.4779,86.4861
89.4558,86.4530
89.4480,86.4140
89.4480,85.2140
89.4558,85.1750
89.4779,85.1419
89.5110,85.1198
89.5500,85.1120
90.0500,85.1120
90.0890,85.1198
90.1221,85.1419
90.1442,85.1750
90.1520,85.2140
Z" /> 
<path style="fill:#000000; fill-opacity:1.0000; stroke:none;fill-rule:evenodd;"
d="M 90.1520,83.0140
90.1442,83.0530
90.1221,83.0861
90.0890,83.1082
90.0500,83.1160
89.5500,83.1160
89.5110,83.1082
89.4779,83.0861
89.4558,83.0530
89.4480,83.0140
89.4480,81.8140
89.4558,81.7750
89.4779,81.7419
89.5110,81.7198
89.5500,81.7120
90.0500,81.7120
90.0890,81.7198
90.1221,81.7419
90.1442,81.7750
90.1520,81.8140
Z" /> 
<path style="fill:#000000; fill-opacity:1.0000; stroke:none;fill-rule:evenodd;"
d="M 90.9520,86.4140
90.9442,86.4530
90.9221,86.4861
90.8890,86.5082
90.8500,86.5160
90.3500,86.5160
90.3110,86.5082
90.2779,86.4861
90.2558,86.4530
90.2480,86.4140
90.2480,85.2140
90.2558,85.1750
90.2779,85.1419
90.3110,85.1198
90.3500,85.1120
90.8500,85.1120
90.8890,85.1198
90.9221,85.1419
90.9442,85.1750
90.9520,85.2140
Z" /> 
<path style="fill:#000000; fill-opacity:1.0000; stroke:none;fill-rule:evenodd;"
d="M 90.9520,83.0140
90.9442,83.0530
90.9221,83.0861
90.8890,83.1082
90.8500,83.1160
90.3500,83.1160
90.3110,83.1082
90.2779,83.0861
90.2558,83.0530
90.2480,83.0140
90.2480,81.8140
90.2558,81.7750
90.2779,81.7419
90.3110,81.7198
90.3500,81.7120
90.8500,81.7120
90.8890,81.7198
90.9221,81.7419
90.9442,81.7750
90.9520,81.8140
Z" /> 
<path style="fill:#000000; fill-opacity:1.0000; stroke:none;fill-rule:evenodd;"
d="M 91.7520,86.4140
91.7442,86.4530
91.7221,86.4861
91.6890,86.5082
91.6500,86.5160
91.1500,86.5160
91.1110,86.5082
91.0779,86.4861
91.0558,86.4530
91.0480,86.4140
91.0480,85.2140
91.0558,85.1750
91.0779,85.1419
91.1110,85.1198
91.1500,85.1120
91.6500,85.1120
91.6890,85.1198
91.7221,85.1419
91.7442,85.1750
91.7520,85.2140
Z" /> 
<path style="fill:#000000; fill-opacity:1.0000; stroke:none;fill-rule:evenodd;"
d="M 91.7520,83.0140
91.7442,83.0530
91.7221,83.0861
91.6890,83.1082
91.6500,83.1160
91.1500,83.1160
91.1110,83.1082
91.0779,83.0861
91.0558,83.0530
91.0480,83.0140
91.0480,81.8140
91.0558,81.7750
91.0779,81.7419
91.1110,81.7198
91.1500,81.7120
91.6500,81.7120
91.6890,81.7198
91.7221,81.7419
91.7442,81.7750
91.7520,81.8140
Z" /> 
<path style="fill:#000000; fill-opacity:1.0000; stroke:none;fill-rule:evenodd;"
d="M 92.5520,86.4140
92.5442,86.4530
92.5221,86.4861
92.4890,86.5082
92.4500,86.5160
91.9500,86.5160
91.9110,86.5082
91.8779,86.4861
91.8558,86.4530
91.8480,86.4140
91.8480,85.2140
91.8558,85.1750
91.8779,85.1419
91.9110,85.1198
91.9500,85.1120
92.4500,85.1120
92.4890,85.1198
92.5221,85.1419
92.5442,85.1750
92.5520,85.2140
Z" /> 
<path style="fill:#000000; fill-opacity:1.0000; stroke:none;fill-rule:evenodd;"
d="M 92.5520,83.0140
92.5442,83.0530
92.5221,83.0861
92.4890,83.1082
92.4500,83.1160
91.9500,83.1160
91.9110,83.1082
91.8779,83.0861
91.8558,83.0530
91.8480,83.0140
91.8480,81.8140
91.8558,81.7750
91.8779,81.7419
91.9110,81.7198
91.9500,81.7120
92.4500,81.7120
92.4890,81.7198
92.5221,81.7419
92.5442,81.7750
92.5520,81.8140
Z" /> 
<path style="fill:#000000; fill-opacity:1.0000; stroke:none;fill-rule:evenodd;"
d="M 93.3520,86.4140
93.3442,86.4530
93.3221,86.4861
93.2890,86.5082
93.2500,86.5160
92.7500,86.5160
92.7110,86.5082
92.6779,86.4861
92.6558,86.4530
92.6480,86.4140
92.6480,85.2140
92.6558,85.1750
92.6779,85.1419
92.7110,85.1198
92.7500,85.1120
93.2500,85.1120
93.2890,85.1198
93.3221,85.1419
93.3442,85.1750
93.3520,85.2140
Z" /> 
<path style="fill:#000000; fill-opacity:1.0000; stroke:none;fill-rule:evenodd;"
d="M 93.3520,83.0140
93.3442,83.0530
93.3221,83.0861
93.2890,83.1082
93.2500,83.1160
92.7500,83.1160
92.7110,83.1082
92.6779,83.0861
92.6558,83.0530
92.6480,83.0140
92.6480,81.8140
92.6558,81.7750
92.6779,81.7419
92.7110,81.7198
92.7500,81.7120
93.2500,81.7120
93.2890,81.7198
93.3221,81.7419
93.3442,81.7750
93.3520,81.8140
Z" /> 
<path style="fill:#000000; fill-opacity:1.0000; stroke:none;fill-rule:evenodd;"
d="M 94.1520,86.4140
94.1442,86.4530
94.1221,86.4861
94.0890,86.5082
94.0500,86.5160
93.5500,86.5160
93.5110,86.5082
93.4779,86.4861
93.4558,86.4530
93.4480,86.4140
93.4480,85.2140
93.4558,85.1750
93.4779,85.1419
93.5110,85.1198
93.5500,85.1120
94.0500,85.1120
94.0890,85.1198
94.1221,85.1419
94.1442,85.1750
94.1520,85.2140
Z" /> 
<path style="fill:#000000; fill-opacity:1.0000; stroke:none;fill-rule:evenodd;"
d="M 94.1520,83.0140
94.1442,83.0530
94.1221,83.0861
94.0890,83.1082
94.0500,83.1160
93.5500,83.1160
93.5110,83.1082
93.4779,83.0861
93.4558,83.0530
93.4480,83.0140
93.4480,81.8140
93.4558,81.7750
93.4779,81.7419
93.5110,81.7198
93.5500,81.7120
94.0500,81.7120
94.0890,81.7198
94.1221,81.7419
94.1442,81.7750
94.1520,81.8140
Z" /> 
<path style="fill:#000000; fill-opacity:1.0000; stroke:none;fill-rule:evenodd;"
d="M 94.9520,86.4140
94.9442,86.4530
94.9221,86.4861
94.8890,86.5082
94.8500,86.5160
94.3500,86.5160
94.3110,86.5082
94.2779,86.4861
94.2558,86.4530
94.2480,86.4140
94.2480,85.2140
94.2558,85.1750
94.2779,85.1419
94.3110,85.1198
94.3500,85.1120
94.8500,85.1120
94.8890,85.1198
94.9221,85.1419
94.9442,85.1750
94.9520,85.2140
Z" /> 
<path style="fill:#000000; fill-opacity:1.0000; stroke:none;fill-rule:evenodd;"
d="M 94.9520,83.0140
94.9442,83.0530
94.9221,83.0861
94.8890,83.1082
94.8500,83.1160
94.3500,83.1160
94.3110,83.1082
94.2779,83.0861
94.2558,83.0530
94.2480,83.0140
94.2480,81.8140
94.2558,81.7750
94.2779,81.7419
94.3110,81.7198
94.3500,81.7120
94.8500,81.7120
94.8890,81.7198
94.9221,81.7419
94.9442,81.7750
94.9520,81.8140
Z" /> 
<path style="fill:#000000; fill-opacity:1.0000; stroke:none;fill-rule:evenodd;"
d="M 95.7520,86.4140
95.7442,86.4530
95.7221,86.4861
95.6890,86.5082
95.6500,86.5160
95.1500,86.5160
95.1110,86.5082
95.0779,86.4861
95.0558,86.4530
95.0480,86.4140
95.0480,85.2140
95.0558,85.1750
95.0779,85.1419
95.1110,85.1198
95.1500,85.1120
95.6500,85.1120
95.6890,85.1198
95.7221,85.1419
95.7442,85.1750
95.7520,85.2140
Z" /> 
<path style="fill:#000000; fill-opacity:1.0000; stroke:none;fill-rule:evenodd;"
d="M 95.7520,83.0140
95.7442,83.0530
95.7221,83.0861
95.6890,83.1082
95.6500,83.1160
95.1500,83.1160
95.1110,83.1082
95.0779,83.0861
95.0558,83.0530
95.0480,83.0140
95.0480,81.8140
95.0558,81.7750
95.0779,81.7419
95.1110,81.7198
95.1500,81.7120
95.6500,81.7120
95.6890,81.7198
95.7221,81.7419
95.7442,81.7750
95.7520,81.8140
Z" /> 
<path style="fill:#000000; fill-opacity:1.0000; stroke:none;fill-rule:evenodd;"
d="M 96.5520,86.4140
96.5442,86.4530
96.5221,86.4861
96.4890,86.5082
96.4500,86.5160
95.9500,86.5160
95.9110,86.5082
95.8779,86.4861
95.8558,86.4530
95.8480,86.4140
95.8480,85.2140
95.8558,85.1750
95.8779,85.1419
95.9110,85.1198
95.9500,85.1120
96.4500,85.1120
96.4890,85.1198
96.5221,85.1419
96.5442,85.1750
96.5520,85.2140
Z" /> 
<path style="fill:#000000; fill-opacity:1.0000; stroke:none;fill-rule:evenodd;"
d="M 96.5520,83.0140
96.5442,83.0530
96.5221,83.0861
96.4890,83.1082
96.4500,83.1160
95.9500,83.1160
95.9110,83.1082
95.8779,83.0861
95.8558,83.0530
95.8480,83.0140
95.8480,81.8140
95.8558,81.7750
95.8779,81.7419
95.9110,81.7198
95.9500,81.7120
96.4500,81.7120
96.4890,81.7198
96.5221,81.7419
96.5442,81.7750
96.5520,81.8140
Z" /> 
<path style="fill:#000000; fill-opacity:1.0000; stroke:none;fill-rule:evenodd;"
d="M 97.3520,86.4140
97.3442,86.4530
97.3221,86.4861
97.2890,86.5082
97.2500,86.5160
96.7500,86.5160
96.7110,86.5082
96.6779,86.4861
96.6558,86.4530
96.6480,86.4140
96.6480,85.2140
96.6558,85.1750
96.6779,85.1419
96.7110,85.1198
96.7500,85.1120
97.2500,85.1120
97.2890,85.1198
97.3221,85.1419
97.3442,85.1750
97.3520,85.2140
Z" /> 
<path style="fill:#000000; fill-opacity:1.0000; stroke:none;fill-rule:evenodd;"
d="M 97.3520,83.0140
97.3442,83.0530
97.3221,83.0861
97.2890,83.1082
97.2500,83.1160
96.7500,83.1160
96.7110,83.1082
96.6779,83.0861
96.6558,83.0530
96.6480,83.0140
96.6480,81.8140
96.6558,81.7750
96.6779,81.7419
96.7110,81.7198
96.7500,81.7120
97.2500,81.7120
97.2890,81.7198
97.3221,81.7419
97.3442,81.7750
97.3520,81.8140
Z" /> 
<path style="fill:#000000; fill-opacity:1.0000; stroke:none;fill-rule:evenodd;"
d="M 98.1520,86.4140
98.1442,86.4530
98.1221,86.4861
98.0890,86.5082
98.0500,86.5160
97.5500,86.5160
97.5110,86.5082
97.4779,86.4861
97.4558,86.4530
97.4480,86.4140
97.4480,85.2140
97.4558,85.1750
97.4779,85.1419
97.5110,85.1198
97.5500,85.1120
98.0500,85.1120
98.0890,85.1198
98.1221,85.1419
98.1442,85.1750
98.1520,85.2140
Z" /> 
<path style="fill:#000000; fill-opacity:1.0000; stroke:none;fill-rule:evenodd;"
d="M 98.1520,83.0140
98.1442,83.0530
98.1221,83.0861
98.0890,83.1082
98.0500,83.1160
97.5500,83.1160
97.5110,83.1082
97.4779,83.0861
97.4558,83.0530
97.4480,83.0140
97.4480,81.8140
97.4558,81.7750
97.4779,81.7419
97.5110,81.7198
97.5500,81.7120
98.0500,81.7120
98.0890,81.7198
98.1221,81.7419
98.1442,81.7750
98.1520,81.8140
Z" /> 
<path style="fill:#000000; fill-opacity:1.0000; stroke:none;fill-rule:evenodd;"
d="M 98.9520,86.4140
98.9442,86.4530
98.9221,86.4861
98.8890,86.5082
98.8500,86.5160
98.3500,86.5160
98.3110,86.5082
98.2779,86.4861
98.2558,86.4530
98.2480,86.4140
98.2480,85.2140
98.2558,85.1750
98.2779,85.1419
98.3110,85.1198
98.3500,85.1120
98.8500,85.1120
98.8890,85.1198
98.9221,85.1419
98.9442,85.1750
98.9520,85.2140
Z" /> 
<path style="fill:#000000; fill-opacity:1.0000; stroke:none;fill-rule:evenodd;"
d="M 98.9520,83.0140
98.9442,83.0530
98.9221,83.0861
98.8890,83.1082
98.8500,83.1160
98.3500,83.1160
98.3110,83.1082
98.2779,83.0861
98.2558,83.0530
98.2480,83.0140
98.2480,81.8140
98.2558,81.7750
98.2779,81.7419
98.3110,81.7198
98.3500,81.7120
98.8500,81.7120
98.8890,81.7198
98.9221,81.7419
98.9442,81.7750
98.9520,81.8140
Z" /> 
<path style="fill:#000000; fill-opacity:1.0000; stroke:none;fill-rule:evenodd;"
d="M 99.7520,86.4140
99.7442,86.4530
99.7221,86.4861
99.6890,86.5082
99.6500,86.5160
99.1500,86.5160
99.1110,86.5082
99.0779,86.4861
99.0558,86.4530
99.0480,86.4140
99.0480,85.2140
99.0558,85.1750
99.0779,85.1419
99.1110,85.1198
99.1500,85.1120
99.6500,85.1120
99.6890,85.1198
99.7221,85.1419
99.7442,85.1750
99.7520,85.2140
Z" /> 
<path style="fill:#000000; fill-opacity:1.0000; stroke:none;fill-rule:evenodd;"
d="M 99.7520,83.0140
99.7442,83.0530
99.7221,83.0861
99.6890,83.1082
99.6500,83.1160
99.1500,83.1160
99.1110,83.1082
99.0779,83.0861
99.0558,83.0530
99.0480,83.0140
99.0480,81.8140
99.0558,81.7750
99.0779,81.7419
99.1110,81.7198
99.1500,81.7120
99.6500,81.7120
99.6890,81.7198
99.7221,81.7419
99.7442,81.7750
99.7520,81.8140
Z" /> 
<path style="fill:#000000; fill-opacity:1.0000; stroke:none;fill-rule:evenodd;"
d="M 103.7520,86.4140
103.7442,86.4530
103.7221,86.4861
103.6890,86.5082
103.6500,86.5160
103.1500,86.5160
103.1110,86.5082
103.0779,86.4861
103.0558,86.4530
103.0480,86.4140
103.0480,85.2140
103.0558,85.1750
103.0779,85.1419
103.1110,85.1198
103.1500,85.1120
103.6500,85.1120
103.6890,85.1198
103.7221,85.1419
103.7442,85.1750
103.7520,85.2140
Z" /> 
<path style="fill:#000000; fill-opacity:1.0000; stroke:none;fill-rule:evenodd;"
d="M 103.7520,83.0140
103.7442,83.0530
103.7221,83.0861
103.6890,83.1082
103.6500,83.1160
103.1500,83.1160
103.1110,83.1082
103.0779,83.0861
103.0558,83.0530
103.0480,83.0140
103.0480,81.8140
103.0558,81.7750
103.0779,81.7419
103.1110,81.7198
103.1500,81.7120
103.6500,81.7120
103.6890,81.7198
103.7221,81.7419
103.7442,81.7750
103.7520,81.8140
Z" /> 
<path style="fill:#000000; fill-opacity:1.0000; stroke:none;fill-rule:evenodd;"
d="M 104.5520,86.4140
104.5442,86.4530
104.5221,86.4861
104.4890,86.5082
104.4500,86.5160
103.9500,86.5160
103.9110,86.5082
103.8779,86.4861
103.8558,86.4530
103.8480,86.4140
103.8480,85.2140
103.8558,85.1750
103.8779,85.1419
103.9110,85.1198
103.9500,85.1120
104.4500,85.1120
104.4890,85.1198
104.5221,85.1419
104.5442,85.1750
104.5520,85.2140
Z" /> 
<path style="fill:#000000; fill-opacity:1.0000; stroke:none;fill-rule:evenodd;"
d="M 104.5520,83.0140
104.5442,83.0530
104.5221,83.0861
104.4890,83.1082
104.4500,83.1160
103.9500,83.1160
103.9110,83.1082
103.8779,83.0861
103.8558,83.0530
103.8480,83.0140
103.8480,81.8140
103.8558,81.7750
103.8779,81.7419
103.9110,81.7198
103.9500,81.7120
104.4500,81.7120
104.4890,81.7198
104.5221,81.7419
104.5442,81.7750
104.5520,81.8140
Z" /> 
<path style="fill:#000000; fill-opacity:1.0000; stroke:none;fill-rule:evenodd;"
d="M 105.3520,86.4140
105.3442,86.4530
105.3221,86.4861
105.2890,86.5082
105.2500,86.5160
104.7500,86.5160
104.7110,86.5082
104.6779,86.4861
104.6558,86.4530
104.6480,86.4140
104.6480,85.2140
104.6558,85.1750
104.6779,85.1419
104.7110,85.1198
104.7500,85.1120
105.2500,85.1120
105.2890,85.1198
105.3221,85.1419
105.3442,85.1750
105.3520,85.2140
Z" /> 
<path style="fill:#000000; fill-opacity:1.0000; stroke:none;fill-rule:evenodd;"
d="M 105.3520,83.0140
105.3442,83.0530
105.3221,83.0861
105.2890,83.1082
105.2500,83.1160
104.7500,83.1160
104.7110,83.1082
104.6779,83.0861
104.6558,83.0530
104.6480,83.0140
104.6480,81.8140
104.6558,81.7750
104.6779,81.7419
104.7110,81.7198
104.7500,81.7120
105.2500,81.7120
105.2890,81.7198
105.3221,81.7419
105.3442,81.7750
105.3520,81.8140
Z" /> 
<path style="fill:#000000; fill-opacity:1.0000; stroke:none;fill-rule:evenodd;"
d="M 106.1520,86.4140
106.1442,86.4530
106.1221,86.4861
106.0890,86.5082
106.0500,86.5160
105.5500,86.5160
105.5110,86.5082
105.4779,86.4861
105.4558,86.4530
105.4480,86.4140
105.4480,85.2140
105.4558,85.1750
105.4779,85.1419
105.5110,85.1198
105.5500,85.1120
106.0500,85.1120
106.0890,85.1198
106.1221,85.1419
106.1442,85.1750
106.1520,85.2140
Z" /> 
<path style="fill:#000000; fill-opacity:1.0000; stroke:none;fill-rule:evenodd;"
d="M 106.1520,83.0140
106.1442,83.0530
106.1221,83.0861
106.0890,83.1082
106.0500,83.1160
105.5500,83.1160
105.5110,83.1082
105.4779,83.0861
105.4558,83.0530
105.4480,83.0140
105.4480,81.8140
105.4558,81.7750
105.4779,81.7419
105.5110,81.7198
105.5500,81.7120
106.0500,81.7120
106.0890,81.7198
106.1221,81.7419
106.1442,81.7750
106.1520,81.8140
Z" /> 
<path style="fill:#000000; fill-opacity:1.0000; stroke:none;fill-rule:evenodd;"
d="M 106.9520,86.4140
106.9442,86.4530
106.9221,86.4861
106.8890,86.5082
106.8500,86.5160
106.3500,86.5160
106.3110,86.5082
106.2779,86.4861
106.2558,86.4530
106.2480,86.4140
106.2480,85.2140
106.2558,85.1750
106.2779,85.1419
106.3110,85.1198
106.3500,85.1120
106.8500,85.1120
106.8890,85.1198
106.9221,85.1419
106.9442,85.1750
106.9520,85.2140
Z" /> 
<path style="fill:#000000; fill-opacity:1.0000; stroke:none;fill-rule:evenodd;"
d="M 106.9520,83.0140
106.9442,83.0530
106.9221,83.0861
106.8890,83.1082
106.8500,83.1160
106.3500,83.1160
106.3110,83.1082
106.2779,83.0861
106.2558,83.0530
106.2480,83.0140
106.2480,81.8140
106.2558,81.7750
106.2779,81.7419
106.3110,81.7198
106.3500,81.7120
106.8500,81.7120
106.8890,81.7198
106.9221,81.7419
106.9442,81.7750
106.9520,81.8140
Z" /> 
<path style="fill:#000000; fill-opacity:1.0000; stroke:none;fill-rule:evenodd;"
d="M 107.7520,86.4140
107.7442,86.4530
107.7221,86.4861
107.6890,86.5082
107.6500,86.5160
107.1500,86.5160
107.1110,86.5082
107.0779,86.4861
107.0558,86.4530
107.0480,86.4140
107.0480,85.2140
107.0558,85.1750
107.0779,85.1419
107.1110,85.1198
107.1500,85.1120
107.6500,85.1120
107.6890,85.1198
107.7221,85.1419
107.7442,85.1750
107.7520,85.2140
Z" /> 
<path style="fill:#000000; fill-opacity:1.0000; stroke:none;fill-rule:evenodd;"
d="M 107.7520,83.0140
107.7442,83.0530
107.7221,83.0861
107.6890,83.1082
107.6500,83.1160
107.1500,83.1160
107.1110,83.1082
107.0779,83.0861
107.0558,83.0530
107.0480,83.0140
107.0480,81.8140
107.0558,81.7750
107.0779,81.7419
107.1110,81.7198
107.1500,81.7120
107.6500,81.7120
107.6890,81.7198
107.7221,81.7419
107.7442,81.7750
107.7520,81.8140
Z" /> 
<path style="fill:#000000; fill-opacity:1.0000; stroke:none;fill-rule:evenodd;"
d="M 108.5520,86.4140
108.5442,86.4530
108.5221,86.4861
108.4890,86.5082
108.4500,86.5160
107.9500,86.5160
107.9110,86.5082
107.8779,86.4861
107.8558,86.4530
107.8480,86.4140
107.8480,85.2140
107.8558,85.1750
107.8779,85.1419
107.9110,85.1198
107.9500,85.1120
108.4500,85.1120
108.4890,85.1198
108.5221,85.1419
108.5442,85.1750
108.5520,85.2140
Z" /> 
<path style="fill:#000000; fill-opacity:1.0000; stroke:none;fill-rule:evenodd;"
d="M 108.5520,83.0140
108.5442,83.0530
108.5221,83.0861
108.4890,83.1082
108.4500,83.1160
107.9500,83.1160
107.9110,83.1082
107.8779,83.0861
107.8558,83.0530
107.8480,83.0140
107.8480,81.8140
107.8558,81.7750
107.8779,81.7419
107.9110,81.7198
107.9500,81.7120
108.4500,81.7120
108.4890,81.7198
108.5221,81.7419
108.5442,81.7750
108.5520,81.8140
Z" /> 
<path style="fill:#000000; fill-opacity:1.0000; stroke:none;fill-rule:evenodd;"
d="M 109.3520,86.4140
109.3442,86.4530
109.3221,86.4861
109.2890,86.5082
109.2500,86.5160
108.7500,86.5160
108.7110,86.5082
108.6779,86.4861
108.6558,86.4530
108.6480,86.4140
108.6480,85.2140
108.6558,85.1750
108.6779,85.1419
108.7110,85.1198
108.7500,85.1120
109.2500,85.1120
109.2890,85.1198
109.3221,85.1419
109.3442,85.1750
109.3520,85.2140
Z" /> 
<path style="fill:#000000; fill-opacity:1.0000; stroke:none;fill-rule:evenodd;"
d="M 109.3520,83.0140
109.3442,83.0530
109.3221,83.0861
109.2890,83.1082
109.2500,83.1160
108.7500,83.1160
108.7110,83.1082
108.6779,83.0861
108.6558,83.0530
108.6480,83.0140
108.6480,81.8140
108.6558,81.7750
108.6779,81.7419
108.7110,81.7198
108.7500,81.7120
109.2500,81.7120
109.2890,81.7198
109.3221,81.7419
109.3442,81.7750
109.3520,81.8140
Z" /> 
<path style="fill:#000000; fill-opacity:1.0000; stroke:none;fill-rule:evenodd;"
d="M 110.1520,86.4140
110.1442,86.4530
110.1221,86.4861
110.0890,86.5082
110.0500,86.5160
109.5500,86.5160
109.5110,86.5082
109.4779,86.4861
109.4558,86.4530
109.4480,86.4140
109.4480,85.2140
109.4558,85.1750
109.4779,85.1419
109.5110,85.1198
109.5500,85.1120
110.0500,85.1120
110.0890,85.1198
110.1221,85.1419
110.1442,85.1750
110.1520,85.2140
Z" /> 
<path style="fill:#000000; fill-opacity:1.0000; stroke:none;fill-rule:evenodd;"
d="M 110.1520,83.0140
110.1442,83.0530
110.1221,83.0861
110.0890,83.1082
110.0500,83.1160
109.5500,83.1160
109.5110,83.1082
109.4779,83.0861
109.4558,83.0530
109.4480,83.0140
109.4480,81.8140
109.4558,81.7750
109.4779,81.7419
109.5110,81.7198
109.5500,81.7120
110.0500,81.7120
110.0890,81.7198
110.1221,81.7419
110.1442,81.7750
110.1520,81.8140
Z" /> 
<path style="fill:#000000; fill-opacity:1.0000; stroke:none;fill-rule:evenodd;"
d="M 110.9520,86.4140
110.9442,86.4530
110.9221,86.4861
110.8890,86.5082
110.8500,86.5160
110.3500,86.5160
110.3110,86.5082
110.2779,86.4861
110.2558,86.4530
110.2480,86.4140
110.2480,85.2140
110.2558,85.1750
110.2779,85.1419
110.3110,85.1198
110.3500,85.1120
110.8500,85.1120
110.8890,85.1198
110.9221,85.1419
110.9442,85.1750
110.9520,85.2140
Z" /> 
<path style="fill:#000000; fill-opacity:1.0000; stroke:none;fill-rule:evenodd;"
d="M 110.9520,83.0140
110.9442,83.0530
110.9221,83.0861
110.8890,83.1082
110.8500,83.1160
110.3500,83.1160
110.3110,83.1082
110.2779,83.0861
110.2558,83.0530
110.2480,83.0140
110.2480,81.8140
110.2558,81.7750
110.2779,81.7419
110.3110,81.7198
110.3500,81.7120
110.8500,81.7120
110.8890,81.7198
110.9221,81.7419
110.9442,81.7750
110.9520,81.8140
Z" /> 
<path style="fill:#000000; fill-opacity:1.0000; stroke:none;fill-rule:evenodd;"
d="M 111.7520,86.4140
111.7442,86.4530
111.7221,86.4861
111.6890,86.5082
111.6500,86.5160
111.1500,86.5160
111.1110,86.5082
111.0779,86.4861
111.0558,86.4530
111.0480,86.4140
111.0480,85.2140
111.0558,85.1750
111.0779,85.1419
111.1110,85.1198
111.1500,85.1120
111.6500,85.1120
111.6890,85.1198
111.7221,85.1419
111.7442,85.1750
111.7520,85.2140
Z" /> 
<path style="fill:#000000; fill-opacity:1.0000; stroke:none;fill-rule:evenodd;"
d="M 111.7520,83.0140
111.7442,83.0530
111.7221,83.0861
111.6890,83.1082
111.6500,83.1160
111.1500,83.1160
111.1110,83.1082
111.0779,83.0861
111.0558,83.0530
111.0480,83.0140
111.0480,81.8140
111.0558,81.7750
111.0779,81.7419
111.1110,81.7198
111.1500,81.7120
111.6500,81.7120
111.6890,81.7198
111.7221,81.7419
111.7442,81.7750
111.7520,81.8140
Z" /> 
<path style="fill:#000000; fill-opacity:1.0000; stroke:none;fill-rule:evenodd;"
d="M 112.5520,86.4140
112.5442,86.4530
112.5221,86.4861
112.4890,86.5082
112.4500,86.5160
111.9500,86.5160
111.9110,86.5082
111.8779,86.4861
111.8558,86.4530
111.8480,86.4140
111.8480,85.2140
111.8558,85.1750
111.8779,85.1419
111.9110,85.1198
111.9500,85.1120
112.4500,85.1120
112.4890,85.1198
112.5221,85.1419
112.5442,85.1750
112.5520,85.2140
Z" /> 
<path style="fill:#000000; fill-opacity:1.0000; stroke:none;fill-rule:evenodd;"
d="M 112.5520,83.0140
112.5442,83.0530
112.5221,83.0861
112.4890,83.1082
112.4500,83.1160
111.9500,83.1160
111.9110,83.1082
111.8779,83.0861
111.8558,83.0530
111.8480,83.0140
111.8480,81.8140
111.8558,81.7750
111.8779,81.7419
111.9110,81.7198
111.9500,81.7120
112.4500,81.7120
112.4890,81.7198
112.5221,81.7419
112.5442,81.7750
112.5520,81.8140
Z" /> 
<path style="fill:#000000; fill-opacity:1.0000; stroke:none;fill-rule:evenodd;"
d="M 113.3520,86.4140
113.3442,86.4530
113.3221,86.4861
113.2890,86.5082
113.2500,86.5160
112.7500,86.5160
112.7110,86.5082
112.6779,86.4861
112.6558,86.4530
112.6480,86.4140
112.6480,85.2140
112.6558,85.1750
112.6779,85.1419
112.7110,85.1198
112.7500,85.1120
113.2500,85.1120
113.2890,85.1198
113.3221,85.1419
113.3442,85.1750
113.3520,85.2140
Z" /> 
<path style="fill:#000000; fill-opacity:1.0000; stroke:none;fill-rule:evenodd;"
d="M 113.3520,83.0140
113.3442,83.0530
113.3221,83.0861
113.2890,83.1082
113.2500,83.1160
112.7500,83.1160
112.7110,83.1082
112.6779,83.0861
112.6558,83.0530
112.6480,83.0140
112.6480,81.8140
112.6558,81.7750
112.6779,81.7419
112.7110,81.7198
112.7500,81.7120
113.2500,81.7120
113.2890,81.7198
113.3221,81.7419
113.3442,81.7750
113.3520,81.8140
Z" /> 
<path style="fill:#000000; fill-opacity:1.0000; stroke:none;fill-rule:evenodd;"
d="M 114.1520,86.4140
114.1442,86.4530
114.1221,86.4861
114.0890,86.5082
114.0500,86.5160
113.5500,86.5160
113.5110,86.5082
113.4779,86.4861
113.4558,86.4530
113.4480,86.4140
113.4480,85.2140
113.4558,85.1750
113.4779,85.1419
113.5110,85.1198
113.5500,85.1120
114.0500,85.1120
114.0890,85.1198
114.1221,85.1419
114.1442,85.1750
114.1520,85.2140
Z" /> 
<path style="fill:#000000; fill-opacity:1.0000; stroke:none;fill-rule:evenodd;"
d="M 114.1520,83.0140
114.1442,83.0530
114.1221,83.0861
114.0890,83.1082
114.0500,83.1160
113.5500,83.1160
113.5110,83.1082
113.4779,83.0861
113.4558,83.0530
113.4480,83.0140
113.4480,81.8140
113.4558,81.7750
113.4779,81.7419
113.5110,81.7198
113.5500,81.7120
114.0500,81.7120
114.0890,81.7198
114.1221,81.7419
114.1442,81.7750
114.1520,81.8140
Z" /> 
<path style="fill:#000000; fill-opacity:1.0000; stroke:none;fill-rule:evenodd;"
d="M 114.9520,86.4140
114.9442,86.4530
114.9221,86.4861
114.8890,86.5082
114.8500,86.5160
114.3500,86.5160
114.3110,86.5082
114.2779,86.4861
114.2558,86.4530
114.2480,86.4140
114.2480,85.2140
114.2558,85.1750
114.2779,85.1419
114.3110,85.1198
114.3500,85.1120
114.8500,85.1120
114.8890,85.1198
114.9221,85.1419
114.9442,85.1750
114.9520,85.2140
Z" /> 
<path style="fill:#000000; fill-opacity:1.0000; stroke:none;fill-rule:evenodd;"
d="M 114.9520,83.0140
114.9442,83.0530
114.9221,83.0861
114.8890,83.1082
114.8500,83.1160
114.3500,83.1160
114.3110,83.1082
114.2779,83.0861
114.2558,83.0530
114.2480,83.0140
114.2480,81.8140
114.2558,81.7750
114.2779,81.7419
114.3110,81.7198
114.3500,81.7120
114.8500,81.7120
114.8890,81.7198
114.9221,81.7419
114.9442,81.7750
114.9520,81.8140
Z" /> 
<path style="fill:#000000; fill-opacity:1.0000; stroke:none;fill-rule:evenodd;"
d="M 115.7520,86.4140
115.7442,86.4530
115.7221,86.4861
115.6890,86.5082
115.6500,86.5160
115.1500,86.5160
115.1110,86.5082
115.0779,86.4861
115.0558,86.4530
115.0480,86.4140
115.0480,85.2140
115.0558,85.1750
115.0779,85.1419
115.1110,85.1198
115.1500,85.1120
115.6500,85.1120
115.6890,85.1198
115.7221,85.1419
115.7442,85.1750
115.7520,85.2140
Z" /> 
<path style="fill:#000000; fill-opacity:1.0000; stroke:none;fill-rule:evenodd;"
d="M 115.7520,83.0140
115.7442,83.0530
115.7221,83.0861
115.6890,83.1082
115.6500,83.1160
115.1500,83.1160
115.1110,83.1082
115.0779,83.0861
115.0558,83.0530
115.0480,83.0140
115.0480,81.8140
115.0558,81.7750
115.0779,81.7419
115.1110,81.7198
115.1500,81.7120
115.6500,81.7120
115.6890,81.7198
115.7221,81.7419
115.7442,81.7750
115.7520,81.8140
Z" /> 
<path style="fill:#000000; fill-opacity:1.0000; stroke:none;fill-rule:evenodd;"
d="M 116.5520,86.4140
116.5442,86.4530
116.5221,86.4861
116.4890,86.5082
116.4500,86.5160
115.9500,86.5160
115.9110,86.5082
115.8779,86.4861
115.8558,86.4530
115.8480,86.4140
115.8480,85.2140
115.8558,85.1750
115.8779,85.1419
115.9110,85.1198
115.9500,85.1120
116.4500,85.1120
116.4890,85.1198
116.5221,85.1419
116.5442,85.1750
116.5520,85.2140
Z" /> 
<path style="fill:#000000; fill-opacity:1.0000; stroke:none;fill-rule:evenodd;"
d="M 116.5520,83.0140
116.5442,83.0530
116.5221,83.0861
116.4890,83.1082
116.4500,83.1160
115.9500,83.1160
115.9110,83.1082
115.8779,83.0861
115.8558,83.0530
115.8480,83.0140
115.8480,81.8140
115.8558,81.7750
115.8779,81.7419
115.9110,81.7198
115.9500,81.7120
116.4500,81.7120
116.4890,81.7198
116.5221,81.7419
116.5442,81.7750
116.5520,81.8140
Z" /> 
<path style="fill:#000000; fill-opacity:1.0000; stroke:none;fill-rule:evenodd;"
d="M 117.3520,86.4140
117.3442,86.4530
117.3221,86.4861
117.2890,86.5082
117.2500,86.5160
116.7500,86.5160
116.7110,86.5082
116.6779,86.4861
116.6558,86.4530
116.6480,86.4140
116.6480,85.2140
116.6558,85.1750
116.6779,85.1419
116.7110,85.1198
116.7500,85.1120
117.2500,85.1120
117.2890,85.1198
117.3221,85.1419
117.3442,85.1750
117.3520,85.2140
Z" /> 
<path style="fill:#000000; fill-opacity:1.0000; stroke:none;fill-rule:evenodd;"
d="M 117.3520,83.0140
117.3442,83.0530
117.3221,83.0861
117.2890,83.1082
117.2500,83.1160
116.7500,83.1160
116.7110,83.1082
116.6779,83.0861
116.6558,83.0530
116.6480,83.0140
116.6480,81.8140
116.6558,81.7750
116.6779,81.7419
116.7110,81.7198
116.7500,81.7120
117.2500,81.7120
117.2890,81.7198
117.3221,81.7419
117.3442,81.7750
117.3520,81.8140
Z" /> 
<path style="fill:#000000; fill-opacity:1.0000; stroke:none;fill-rule:evenodd;"
d="M 118.1520,86.4140
118.1442,86.4530
118.1221,86.4861
118.0890,86.5082
118.0500,86.5160
117.5500,86.5160
117.5110,86.5082
117.4779,86.4861
117.4558,86.4530
117.4480,86.4140
117.4480,85.2140
117.4558,85.1750
117.4779,85.1419
117.5110,85.1198
117.5500,85.1120
118.0500,85.1120
118.0890,85.1198
118.1221,85.1419
118.1442,85.1750
118.1520,85.2140
Z" /> 
<path style="fill:#000000; fill-opacity:1.0000; stroke:none;fill-rule:evenodd;"
d="M 118.1520,83.0140
118.1442,83.0530
118.1221,83.0861
118.0890,83.1082
118.0500,83.1160
117.5500,83.1160
117.5110,83.1082
117.4779,83.0861
117.4558,83.0530
117.4480,83.0140
117.4480,81.8140
117.4558,81.7750
117.4779,81.7419
117.5110,81.7198
117.5500,81.7120
118.0500,81.7120
118.0890,81.7198
118.1221,81.7419
118.1442,81.7750
118.1520,81.8140
Z" /> 
<path style="fill:#000000; fill-opacity:1.0000; stroke:none;fill-rule:evenodd;"
d="M 118.9520,86.4140
118.9442,86.4530
118.9221,86.4861
118.8890,86.5082
118.8500,86.5160
118.3500,86.5160
118.3110,86.5082
118.2779,86.4861
118.2558,86.4530
118.2480,86.4140
118.2480,85.2140
118.2558,85.1750
118.2779,85.1419
118.3110,85.1198
118.3500,85.1120
118.8500,85.1120
118.8890,85.1198
118.9221,85.1419
118.9442,85.1750
118.9520,85.2140
Z" /> 
<path style="fill:#000000; fill-opacity:1.0000; stroke:none;fill-rule:evenodd;"
d="M 118.9520,83.0140
118.9442,83.0530
118.9221,83.0861
118.8890,83.1082
118.8500,83.1160
118.3500,83.1160
118.3110,83.1082
118.2779,83.0861
118.2558,83.0530
118.2480,83.0140
118.2480,81.8140
118.2558,81.7750
118.2779,81.7419
118.3110,81.7198
118.3500,81.7120
118.8500,81.7120
118.8890,81.7198
118.9221,81.7419
118.9442,81.7750
118.9520,81.8140
Z" /> 
<path style="fill:#000000; fill-opacity:1.0000; stroke:none;fill-rule:evenodd;"
d="M 119.7520,86.4140
119.7442,86.4530
119.7221,86.4861
119.6890,86.5082
119.6500,86.5160
119.1500,86.5160
119.1110,86.5082
119.0779,86.4861
119.0558,86.4530
119.0480,86.4140
119.0480,85.2140
119.0558,85.1750
119.0779,85.1419
119.1110,85.1198
119.1500,85.1120
119.6500,85.1120
119.6890,85.1198
119.7221,85.1419
119.7442,85.1750
119.7520,85.2140
Z" /> 
<path style="fill:#000000; fill-opacity:1.0000; stroke:none;fill-rule:evenodd;"
d="M 119.7520,83.0140
119.7442,83.0530
119.7221,83.0861
119.6890,83.1082
119.6500,83.1160
119.1500,83.1160
119.1110,83.1082
119.0779,83.0861
119.0558,83.0530
119.0480,83.0140
119.0480,81.8140
119.0558,81.7750
119.0779,81.7419
119.1110,81.7198
119.1500,81.7120
119.6500,81.7120
119.6890,81.7198
119.7221,81.7419
119.7442,81.7750
119.7520,81.8140
Z" /> 
<path style="fill:#000000; fill-opacity:1.0000; stroke:none;fill-rule:evenodd;"
d="M 120.5520,86.4140
120.5442,86.4530
120.5221,86.4861
120.4890,86.5082
120.4500,86.5160
119.9500,86.5160
119.9110,86.5082
119.8779,86.4861
119.8558,86.4530
119.8480,86.4140
119.8480,85.2140
119.8558,85.1750
119.8779,85.1419
119.9110,85.1198
119.9500,85.1120
120.4500,85.1120
120.4890,85.1198
120.5221,85.1419
120.5442,85.1750
120.5520,85.2140
Z" /> 
<path style="fill:#000000; fill-opacity:1.0000; stroke:none;fill-rule:evenodd;"
d="M 120.5520,83.0140
120.5442,83.0530
120.5221,83.0861
120.4890,83.1082
120.4500,83.1160
119.9500,83.1160
119.9110,83.1082
119.8779,83.0861
119.8558,83.0530
119.8480,83.0140
119.8480,81.8140
119.8558,81.7750
119.8779,81.7419
119.9110,81.7198
119.9500,81.7120
120.4500,81.7120
120.4890,81.7198
120.5221,81.7419
120.5442,81.7750
120.5520,81.8140
Z" /> 
<path style="fill:#000000; fill-opacity:1.0000; stroke:none;fill-rule:evenodd;"
d="M 121.3520,86.4140
121.3442,86.4530
121.3221,86.4861
121.2890,86.5082
121.2500,86.5160
120.7500,86.5160
120.7110,86.5082
120.6779,86.4861
120.6558,86.4530
120.6480,86.4140
120.6480,85.2140
120.6558,85.1750
120.6779,85.1419
120.7110,85.1198
120.7500,85.1120
121.2500,85.1120
121.2890,85.1198
121.3221,85.1419
121.3442,85.1750
121.3520,85.2140
Z" /> 
<path style="fill:#000000; fill-opacity:1.0000; stroke:none;fill-rule:evenodd;"
d="M 121.3520,83.0140
121.3442,83.0530
121.3221,83.0861
121.2890,83.1082
121.2500,83.1160
120.7500,83.1160
120.7110,83.1082
120.6779,83.0861
120.6558,83.0530
120.6480,83.0140
120.6480,81.8140
120.6558,81.7750
120.6779,81.7419
120.7110,81.7198
120.7500,81.7120
121.2500,81.7120
121.2890,81.7198
121.3221,81.7419
121.3442,81.7750
121.3520,81.8140
Z" /> 
<path style="fill:#000000; fill-opacity:1.0000; stroke:none;fill-rule:evenodd;"
d="M 122.1520,86.4140
122.1442,86.4530
122.1221,86.4861
122.0890,86.5082
122.0500,86.5160
121.5500,86.5160
121.5110,86.5082
121.4779,86.4861
121.4558,86.4530
121.4480,86.4140
121.4480,85.2140
121.4558,85.1750
121.4779,85.1419
121.5110,85.1198
121.5500,85.1120
122.0500,85.1120
122.0890,85.1198
122.1221,85.1419
122.1442,85.1750
122.1520,85.2140
Z" /> 
<path style="fill:#000000; fill-opacity:1.0000; stroke:none;fill-rule:evenodd;"
d="M 122.1520,83.0140
122.1442,83.0530
122.1221,83.0861
122.0890,83.1082
122.0500,83.1160
121.5500,83.1160
121.5110,83.1082
121.4779,83.0861
121.4558,83.0530
121.4480,83.0140
121.4480,81.8140
121.4558,81.7750
121.4779,81.7419
121.5110,81.7198
121.5500,81.7120
122.0500,81.7120
122.0890,81.7198
122.1221,81.7419
122.1442,81.7750
122.1520,81.8140
Z" /> 
<path style="fill:#000000; fill-opacity:1.0000; stroke:none;fill-rule:evenodd;"
d="M 122.9520,86.4140
122.9442,86.4530
122.9221,86.4861
122.8890,86.5082
122.8500,86.5160
122.3500,86.5160
122.3110,86.5082
122.2779,86.4861
122.2558,86.4530
122.2480,86.4140
122.2480,85.2140
122.2558,85.1750
122.2779,85.1419
122.3110,85.1198
122.3500,85.1120
122.8500,85.1120
122.8890,85.1198
122.9221,85.1419
122.9442,85.1750
122.9520,85.2140
Z" /> 
<path style="fill:#000000; fill-opacity:1.0000; stroke:none;fill-rule:evenodd;"
d="M 122.9520,83.0140
122.9442,83.0530
122.9221,83.0861
122.8890,83.1082
122.8500,83.1160
122.3500,83.1160
122.3110,83.1082
122.2779,83.0861
122.2558,83.0530
122.2480,83.0140
122.2480,81.8140
122.2558,81.7750
122.2779,81.7419
122.3110,81.7198
122.3500,81.7120
122.8500,81.7120
122.8890,81.7198
122.9221,81.7419
122.9442,81.7750
122.9520,81.8140
Z" /> 
<path style="fill:#000000; fill-opacity:1.0000; stroke:none;fill-rule:evenodd;"
d="M 123.7520,86.4140
123.7442,86.4530
123.7221,86.4861
123.6890,86.5082
123.6500,86.5160
123.1500,86.5160
123.1110,86.5082
123.0779,86.4861
123.0558,86.4530
123.0480,86.4140
123.0480,85.2140
123.0558,85.1750
123.0779,85.1419
123.1110,85.1198
123.1500,85.1120
123.6500,85.1120
123.6890,85.1198
123.7221,85.1419
123.7442,85.1750
123.7520,85.2140
Z" /> 
<path style="fill:#000000; fill-opacity:1.0000; stroke:none;fill-rule:evenodd;"
d="M 123.7520,83.0140
123.7442,83.0530
123.7221,83.0861
123.6890,83.1082
123.6500,83.1160
123.1500,83.1160
123.1110,83.1082
123.0779,83.0861
123.0558,83.0530
123.0480,83.0140
123.0480,81.8140
123.0558,81.7750
123.0779,81.7419
123.1110,81.7198
123.1500,81.7120
123.6500,81.7120
123.6890,81.7198
123.7221,81.7419
123.7442,81.7750
123.7520,81.8140
Z" /> 
<path style="fill:#000000; fill-opacity:1.0000; stroke:none;fill-rule:evenodd;"
d="M 124.5520,86.4140
124.5442,86.4530
124.5221,86.4861
124.4890,86.5082
124.4500,86.5160
123.9500,86.5160
123.9110,86.5082
123.8779,86.4861
123.8558,86.4530
123.8480,86.4140
123.8480,85.2140
123.8558,85.1750
123.8779,85.1419
123.9110,85.1198
123.9500,85.1120
124.4500,85.1120
124.4890,85.1198
124.5221,85.1419
124.5442,85.1750
124.5520,85.2140
Z" /> 
<path style="fill:#000000; fill-opacity:1.0000; stroke:none;fill-rule:evenodd;"
d="M 124.5520,83.0140
124.5442,83.0530
124.5221,83.0861
124.4890,83.1082
124.4500,83.1160
123.9500,83.1160
123.9110,83.1082
123.8779,83.0861
123.8558,83.0530
123.8480,83.0140
123.8480,81.8140
123.8558,81.7750
123.8779,81.7419
123.9110,81.7198
123.9500,81.7120
124.4500,81.7120
124.4890,81.7198
124.5221,81.7419
124.5442,81.7750
124.5520,81.8140
Z" /> 
<path style="fill:#000000; fill-opacity:1.0000; stroke:none;fill-rule:evenodd;"
d="M 125.3520,86.4140
125.3442,86.4530
125.3221,86.4861
125.2890,86.5082
125.2500,86.5160
124.7500,86.5160
124.7110,86.5082
124.6779,86.4861
124.6558,86.4530
124.6480,86.4140
124.6480,85.2140
124.6558,85.1750
124.6779,85.1419
124.7110,85.1198
124.7500,85.1120
125.2500,85.1120
125.2890,85.1198
125.3221,85.1419
125.3442,85.1750
125.3520,85.2140
Z" /> 
<path style="fill:#000000; fill-opacity:1.0000; stroke:none;fill-rule:evenodd;"
d="M 125.3520,83.0140
125.3442,83.0530
125.3221,83.0861
125.2890,83.1082
125.2500,83.1160
124.7500,83.1160
124.7110,83.1082
124.6779,83.0861
124.6558,83.0530
124.6480,83.0140
124.6480,81.8140
124.6558,81.7750
124.6779,81.7419
124.7110,81.7198
124.7500,81.7120
125.2500,81.7120
125.2890,81.7198
125.3221,81.7419
125.3442,81.7750
125.3520,81.8140
Z" /> 
<path style="fill:#000000; fill-opacity:1.0000; stroke:none;fill-rule:evenodd;"
d="M 126.1520,86.4140
126.1442,86.4530
126.1221,86.4861
126.0890,86.5082
126.0500,86.5160
125.5500,86.5160
125.5110,86.5082
125.4779,86.4861
125.4558,86.4530
125.4480,86.4140
125.4480,85.2140
125.4558,85.1750
125.4779,85.1419
125.5110,85.1198
125.5500,85.1120
126.0500,85.1120
126.0890,85.1198
126.1221,85.1419
126.1442,85.1750
126.1520,85.2140
Z" /> 
<path style="fill:#000000; fill-opacity:1.0000; stroke:none;fill-rule:evenodd;"
d="M 126.1520,83.0140
126.1442,83.0530
126.1221,83.0861
126.0890,83.1082
126.0500,83.1160
125.5500,83.1160
125.5110,83.1082
125.4779,83.0861
125.4558,83.0530
125.4480,83.0140
125.4480,81.8140
125.4558,81.7750
125.4779,81.7419
125.5110,81.7198
125.5500,81.7120
126.0500,81.7120
126.0890,81.7198
126.1221,81.7419
126.1442,81.7750
126.1520,81.8140
Z" /> 
<path style="fill:#000000; fill-opacity:1.0000; stroke:none;fill-rule:evenodd;"
d="M 126.9520,86.4140
126.9442,86.4530
126.9221,86.4861
126.8890,86.5082
126.8500,86.5160
126.3500,86.5160
126.3110,86.5082
126.2779,86.4861
126.2558,86.4530
126.2480,86.4140
126.2480,85.2140
126.2558,85.1750
126.2779,85.1419
126.3110,85.1198
126.3500,85.1120
126.8500,85.1120
126.8890,85.1198
126.9221,85.1419
126.9442,85.1750
126.9520,85.2140
Z" /> 
<path style="fill:#000000; fill-opacity:1.0000; stroke:none;fill-rule:evenodd;"
d="M 126.9520,83.0140
126.9442,83.0530
126.9221,83.0861
126.8890,83.1082
126.8500,83.1160
126.3500,83.1160
126.3110,83.1082
126.2779,83.0861
126.2558,83.0530
126.2480,83.0140
126.2480,81.8140
126.2558,81.7750
126.2779,81.7419
126.3110,81.7198
126.3500,81.7120
126.8500,81.7120
126.8890,81.7198
126.9221,81.7419
126.9442,81.7750
126.9520,81.8140
Z" /> 
<path style="fill:#000000; fill-opacity:1.0000; stroke:none;fill-rule:evenodd;"
d="M 127.7520,86.4140
127.7442,86.4530
127.7221,86.4861
127.6890,86.5082
127.6500,86.5160
127.1500,86.5160
127.1110,86.5082
127.0779,86.4861
127.0558,86.4530
127.0480,86.4140
127.0480,85.2140
127.0558,85.1750
127.0779,85.1419
127.1110,85.1198
127.1500,85.1120
127.6500,85.1120
127.6890,85.1198
127.7221,85.1419
127.7442,85.1750
127.7520,85.2140
Z" /> 
<path style="fill:#000000; fill-opacity:1.0000; stroke:none;fill-rule:evenodd;"
d="M 127.7520,83.0140
127.7442,83.0530
127.7221,83.0861
127.6890,83.1082
127.6500,83.1160
127.1500,83.1160
127.1110,83.1082
127.0779,83.0861
127.0558,83.0530
127.0480,83.0140
127.0480,81.8140
127.0558,81.7750
127.0779,81.7419
127.1110,81.7198
127.1500,81.7120
127.6500,81.7120
127.6890,81.7198
127.7221,81.7419
127.7442,81.7750
127.7520,81.8140
Z" /> 
<path style="fill:#000000; fill-opacity:1.0000; stroke:none;fill-rule:evenodd;"
d="M 128.5520,86.4140
128.5442,86.4530
128.5221,86.4861
128.4890,86.5082
128.4500,86.5160
127.9500,86.5160
127.9110,86.5082
127.8779,86.4861
127.8558,86.4530
127.8480,86.4140
127.8480,85.2140
127.8558,85.1750
127.8779,85.1419
127.9110,85.1198
127.9500,85.1120
128.4500,85.1120
128.4890,85.1198
128.5221,85.1419
128.5442,85.1750
128.5520,85.2140
Z" /> 
<path style="fill:#000000; fill-opacity:1.0000; stroke:none;fill-rule:evenodd;"
d="M 128.5520,83.0140
128.5442,83.0530
128.5221,83.0861
128.4890,83.1082
128.4500,83.1160
127.9500,83.1160
127.9110,83.1082
127.8779,83.0861
127.8558,83.0530
127.8480,83.0140
127.8480,81.8140
127.8558,81.7750
127.8779,81.7419
127.9110,81.7198
127.9500,81.7120
128.4500,81.7120
128.4890,81.7198
128.5221,81.7419
128.5442,81.7750
128.5520,81.8140
Z" /> 
<path style="fill:#000000; fill-opacity:1.0000; stroke:none;fill-rule:evenodd;"
d="M 129.3520,86.4140
129.3442,86.4530
129.3221,86.4861
129.2890,86.5082
129.2500,86.5160
128.7500,86.5160
128.7110,86.5082
128.6779,86.4861
128.6558,86.4530
128.6480,86.4140
128.6480,85.2140
128.6558,85.1750
128.6779,85.1419
128.7110,85.1198
128.7500,85.1120
129.2500,85.1120
129.2890,85.1198
129.3221,85.1419
129.3442,85.1750
129.3520,85.2140
Z" /> 
<path style="fill:#000000; fill-opacity:1.0000; stroke:none;fill-rule:evenodd;"
d="M 129.3520,83.0140
129.3442,83.0530
129.3221,83.0861
129.2890,83.1082
129.2500,83.1160
128.7500,83.1160
128.7110,83.1082
128.6779,83.0861
128.6558,83.0530
128.6480,83.0140
128.6480,81.8140
128.6558,81.7750
128.6779,81.7419
128.7110,81.7198
128.7500,81.7120
129.2500,81.7120
129.2890,81.7198
129.3221,81.7419
129.3442,81.7750
129.3520,81.8140
Z" /> 
<path style="fill:#000000; fill-opacity:1.0000; stroke:none;fill-rule:evenodd;"
d="M 130.1520,86.4140
130.1442,86.4530
130.1221,86.4861
130.0890,86.5082
130.0500,86.5160
129.5500,86.5160
129.5110,86.5082
129.4779,86.4861
129.4558,86.4530
129.4480,86.4140
129.4480,85.2140
129.4558,85.1750
129.4779,85.1419
129.5110,85.1198
129.5500,85.1120
130.0500,85.1120
130.0890,85.1198
130.1221,85.1419
130.1442,85.1750
130.1520,85.2140
Z" /> 
<path style="fill:#000000; fill-opacity:1.0000; stroke:none;fill-rule:evenodd;"
d="M 130.1520,83.0140
130.1442,83.0530
130.1221,83.0861
130.0890,83.1082
130.0500,83.1160
129.5500,83.1160
129.5110,83.1082
129.4779,83.0861
129.4558,83.0530
129.4480,83.0140
129.4480,81.8140
129.4558,81.7750
129.4779,81.7419
129.5110,81.7198
129.5500,81.7120
130.0500,81.7120
130.0890,81.7198
130.1221,81.7419
130.1442,81.7750
130.1520,81.8140
Z" /> 
<path style="fill:#000000; fill-opacity:1.0000; stroke:none;fill-rule:evenodd;"
d="M 130.9520,86.4140
130.9442,86.4530
130.9221,86.4861
130.8890,86.5082
130.8500,86.5160
130.3500,86.5160
130.3110,86.5082
130.2779,86.4861
130.2558,86.4530
130.2480,86.4140
130.2480,85.2140
130.2558,85.1750
130.2779,85.1419
130.3110,85.1198
130.3500,85.1120
130.8500,85.1120
130.8890,85.1198
130.9221,85.1419
130.9442,85.1750
130.9520,85.2140
Z" /> 
<path style="fill:#000000; fill-opacity:1.0000; stroke:none;fill-rule:evenodd;"
d="M 130.9520,83.0140
130.9442,83.0530
130.9221,83.0861
130.8890,83.1082
130.8500,83.1160
130.3500,83.1160
130.3110,83.1082
130.2779,83.0861
130.2558,83.0530
130.2480,83.0140
130.2480,81.8140
130.2558,81.7750
130.2779,81.7419
130.3110,81.7198
130.3500,81.7120
130.8500,81.7120
130.8890,81.7198
130.9221,81.7419
130.9442,81.7750
130.9520,81.8140
Z" /> 
<path style="fill:#000000; fill-opacity:1.0000; stroke:none;fill-rule:evenodd;"
d="M 131.7520,86.4140
131.7442,86.4530
131.7221,86.4861
131.6890,86.5082
131.6500,86.5160
131.1500,86.5160
131.1110,86.5082
131.0779,86.4861
131.0558,86.4530
131.0480,86.4140
131.0480,85.2140
131.0558,85.1750
131.0779,85.1419
131.1110,85.1198
131.1500,85.1120
131.6500,85.1120
131.6890,85.1198
131.7221,85.1419
131.7442,85.1750
131.7520,85.2140
Z" /> 
<path style="fill:#000000; fill-opacity:1.0000; stroke:none;fill-rule:evenodd;"
d="M 131.7520,83.0140
131.7442,83.0530
131.7221,83.0861
131.6890,83.1082
131.6500,83.1160
131.1500,83.1160
131.1110,83.1082
131.0779,83.0861
131.0558,83.0530
131.0480,83.0140
131.0480,81.8140
131.0558,81.7750
131.0779,81.7419
131.1110,81.7198
131.1500,81.7120
131.6500,81.7120
131.6890,81.7198
131.7221,81.7419
131.7442,81.7750
131.7520,81.8140
Z" /> 
<path style="fill:#000000; fill-opacity:1.0000; stroke:none;fill-rule:evenodd;"
d="M 132.5520,86.4140
132.5442,86.4530
132.5221,86.4861
132.4890,86.5082
132.4500,86.5160
131.9500,86.5160
131.9110,86.5082
131.8779,86.4861
131.8558,86.4530
131.8480,86.4140
131.8480,85.2140
131.8558,85.1750
131.8779,85.1419
131.9110,85.1198
131.9500,85.1120
132.4500,85.1120
132.4890,85.1198
132.5221,85.1419
132.5442,85.1750
132.5520,85.2140
Z" /> 
<path style="fill:#000000; fill-opacity:1.0000; stroke:none;fill-rule:evenodd;"
d="M 132.5520,83.0140
132.5442,83.0530
132.5221,83.0861
132.4890,83.1082
132.4500,83.1160
131.9500,83.1160
131.9110,83.1082
131.8779,83.0861
131.8558,83.0530
131.8480,83.0140
131.8480,81.8140
131.8558,81.7750
131.8779,81.7419
131.9110,81.7198
131.9500,81.7120
132.4500,81.7120
132.4890,81.7198
132.5221,81.7419
132.5442,81.7750
132.5520,81.8140
Z" /> 
<path style="fill:#000000; fill-opacity:1.0000; stroke:none;fill-rule:evenodd;"
d="M 133.3520,86.4140
133.3442,86.4530
133.3221,86.4861
133.2890,86.5082
133.2500,86.5160
132.7500,86.5160
132.7110,86.5082
132.6779,86.4861
132.6558,86.4530
132.6480,86.4140
132.6480,85.2140
132.6558,85.1750
132.6779,85.1419
132.7110,85.1198
132.7500,85.1120
133.2500,85.1120
133.2890,85.1198
133.3221,85.1419
133.3442,85.1750
133.3520,85.2140
Z" /> 
<path style="fill:#000000; fill-opacity:1.0000; stroke:none;fill-rule:evenodd;"
d="M 133.3520,83.0140
133.3442,83.0530
133.3221,83.0861
133.2890,83.1082
133.2500,83.1160
132.7500,83.1160
132.7110,83.1082
132.6779,83.0861
132.6558,83.0530
132.6480,83.0140
132.6480,81.8140
132.6558,81.7750
132.6779,81.7419
132.7110,81.7198
132.7500,81.7120
133.2500,81.7120
133.2890,81.7198
133.3221,81.7419
133.3442,81.7750
133.3520,81.8140
Z" /> 
</g> 
</svg>
