<?xml version="1.0" standalone="no"?>
 <!DOCTYPE svg PUBLIC "-//W3C//DTD SVG 1.1//EN" 
 "http://www.w3.org/Graphics/SVG/1.1/DTD/svg11.dtd"> 
<svg
  xmlns:svg="http://www.w3.org/2000/svg"
  xmlns="http://www.w3.org/2000/svg"
  xmlns:xlink="http://www.w3.org/1999/xlink"
  version="1.1"
  width="297.0022mm" height="210.0072mm" viewBox="0.0000 0.0000 297.0022 210.0072">
<title>SVG Image created as DarkQuest_A5202_Adapter-B_Paste.svg date 2025/06/11 08:11:06 </title>
  <desc>Image generated by PCBNEW </desc>
<g style="fill:#000000; fill-opacity:1.0000;stroke:#000000; stroke-opacity:1.0000;
stroke-linecap:round; stroke-linejoin:round;"
 transform="translate(0 0) scale(1 1)">
</g>
<g style="fill:#000000; fill-opacity:1.0000; stroke:none;">
<circle cx="134.5000" cy="85.6140" r="0.6350" /> 
</g>
<g style="fill:#000000; fill-opacity:1.0000; stroke:none;">
<circle cx="73.1000" cy="84.1140" r="0.6350" /> 
<path style="fill:#000000; fill-opacity:1.0000; stroke:none;fill-rule:evenodd;"
d="M 74.8500,85.2140
74.8500,86.4140
74.3500,86.4140
74.3500,85.2140
Z" /> 
<path style="fill:#000000; fill-opacity:1.0000; stroke:none;fill-rule:evenodd;"
d="M 74.8500,81.8140
74.8500,83.0140
74.3500,83.0140
74.3500,81.8140
Z" /> 
<path style="fill:#000000; fill-opacity:1.0000; stroke:none;fill-rule:evenodd;"
d="M 75.6500,85.2140
75.6500,86.4140
75.1500,86.4140
75.1500,85.2140
Z" /> 
<path style="fill:#000000; fill-opacity:1.0000; stroke:none;fill-rule:evenodd;"
d="M 75.6500,81.8140
75.6500,83.0140
75.1500,83.0140
75.1500,81.8140
Z" /> 
<path style="fill:#000000; fill-opacity:1.0000; stroke:none;fill-rule:evenodd;"
d="M 76.4500,85.2140
76.4500,86.4140
75.9500,86.4140
75.9500,85.2140
Z" /> 
<path style="fill:#000000; fill-opacity:1.0000; stroke:none;fill-rule:evenodd;"
d="M 76.4500,81.8140
76.4500,83.0140
75.9500,83.0140
75.9500,81.8140
Z" /> 
<path style="fill:#000000; fill-opacity:1.0000; stroke:none;fill-rule:evenodd;"
d="M 77.2500,85.2140
77.2500,86.4140
76.7500,86.4140
76.7500,85.2140
Z" /> 
<path style="fill:#000000; fill-opacity:1.0000; stroke:none;fill-rule:evenodd;"
d="M 77.2500,81.8140
77.2500,83.0140
76.7500,83.0140
76.7500,81.8140
Z" /> 
<path style="fill:#000000; fill-opacity:1.0000; stroke:none;fill-rule:evenodd;"
d="M 78.0500,85.2140
78.0500,86.4140
77.5500,86.4140
77.5500,85.2140
Z" /> 
<path style="fill:#000000; fill-opacity:1.0000; stroke:none;fill-rule:evenodd;"
d="M 78.0500,81.8140
78.0500,83.0140
77.5500,83.0140
77.5500,81.8140
Z" /> 
<path style="fill:#000000; fill-opacity:1.0000; stroke:none;fill-rule:evenodd;"
d="M 78.8500,85.2140
78.8500,86.4140
78.3500,86.4140
78.3500,85.2140
Z" /> 
<path style="fill:#000000; fill-opacity:1.0000; stroke:none;fill-rule:evenodd;"
d="M 78.8500,81.8140
78.8500,83.0140
78.3500,83.0140
78.3500,81.8140
Z" /> 
<path style="fill:#000000; fill-opacity:1.0000; stroke:none;fill-rule:evenodd;"
d="M 79.6500,85.2140
79.6500,86.4140
79.1500,86.4140
79.1500,85.2140
Z" /> 
<path style="fill:#000000; fill-opacity:1.0000; stroke:none;fill-rule:evenodd;"
d="M 79.6500,81.8140
79.6500,83.0140
79.1500,83.0140
79.1500,81.8140
Z" /> 
<path style="fill:#000000; fill-opacity:1.0000; stroke:none;fill-rule:evenodd;"
d="M 80.4500,85.2140
80.4500,86.4140
79.9500,86.4140
79.9500,85.2140
Z" /> 
<path style="fill:#000000; fill-opacity:1.0000; stroke:none;fill-rule:evenodd;"
d="M 80.4500,81.8140
80.4500,83.0140
79.9500,83.0140
79.9500,81.8140
Z" /> 
<path style="fill:#000000; fill-opacity:1.0000; stroke:none;fill-rule:evenodd;"
d="M 81.2500,85.2140
81.2500,86.4140
80.7500,86.4140
80.7500,85.2140
Z" /> 
<path style="fill:#000000; fill-opacity:1.0000; stroke:none;fill-rule:evenodd;"
d="M 81.2500,81.8140
81.2500,83.0140
80.7500,83.0140
80.7500,81.8140
Z" /> 
<path style="fill:#000000; fill-opacity:1.0000; stroke:none;fill-rule:evenodd;"
d="M 82.0500,85.2140
82.0500,86.4140
81.5500,86.4140
81.5500,85.2140
Z" /> 
<path style="fill:#000000; fill-opacity:1.0000; stroke:none;fill-rule:evenodd;"
d="M 82.0500,81.8140
82.0500,83.0140
81.5500,83.0140
81.5500,81.8140
Z" /> 
<path style="fill:#000000; fill-opacity:1.0000; stroke:none;fill-rule:evenodd;"
d="M 82.8500,85.2140
82.8500,86.4140
82.3500,86.4140
82.3500,85.2140
Z" /> 
<path style="fill:#000000; fill-opacity:1.0000; stroke:none;fill-rule:evenodd;"
d="M 82.8500,81.8140
82.8500,83.0140
82.3500,83.0140
82.3500,81.8140
Z" /> 
<path style="fill:#000000; fill-opacity:1.0000; stroke:none;fill-rule:evenodd;"
d="M 83.6500,85.2140
83.6500,86.4140
83.1500,86.4140
83.1500,85.2140
Z" /> 
<path style="fill:#000000; fill-opacity:1.0000; stroke:none;fill-rule:evenodd;"
d="M 83.6500,81.8140
83.6500,83.0140
83.1500,83.0140
83.1500,81.8140
Z" /> 
<path style="fill:#000000; fill-opacity:1.0000; stroke:none;fill-rule:evenodd;"
d="M 84.4500,85.2140
84.4500,86.4140
83.9500,86.4140
83.9500,85.2140
Z" /> 
<path style="fill:#000000; fill-opacity:1.0000; stroke:none;fill-rule:evenodd;"
d="M 84.4500,81.8140
84.4500,83.0140
83.9500,83.0140
83.9500,81.8140
Z" /> 
<path style="fill:#000000; fill-opacity:1.0000; stroke:none;fill-rule:evenodd;"
d="M 85.2500,85.2140
85.2500,86.4140
84.7500,86.4140
84.7500,85.2140
Z" /> 
<path style="fill:#000000; fill-opacity:1.0000; stroke:none;fill-rule:evenodd;"
d="M 85.2500,81.8140
85.2500,83.0140
84.7500,83.0140
84.7500,81.8140
Z" /> 
<path style="fill:#000000; fill-opacity:1.0000; stroke:none;fill-rule:evenodd;"
d="M 86.0500,85.2140
86.0500,86.4140
85.5500,86.4140
85.5500,85.2140
Z" /> 
<path style="fill:#000000; fill-opacity:1.0000; stroke:none;fill-rule:evenodd;"
d="M 86.0500,81.8140
86.0500,83.0140
85.5500,83.0140
85.5500,81.8140
Z" /> 
<path style="fill:#000000; fill-opacity:1.0000; stroke:none;fill-rule:evenodd;"
d="M 86.8500,85.2140
86.8500,86.4140
86.3500,86.4140
86.3500,85.2140
Z" /> 
<path style="fill:#000000; fill-opacity:1.0000; stroke:none;fill-rule:evenodd;"
d="M 86.8500,81.8140
86.8500,83.0140
86.3500,83.0140
86.3500,81.8140
Z" /> 
<path style="fill:#000000; fill-opacity:1.0000; stroke:none;fill-rule:evenodd;"
d="M 87.6500,85.2140
87.6500,86.4140
87.1500,86.4140
87.1500,85.2140
Z" /> 
<path style="fill:#000000; fill-opacity:1.0000; stroke:none;fill-rule:evenodd;"
d="M 87.6500,81.8140
87.6500,83.0140
87.1500,83.0140
87.1500,81.8140
Z" /> 
<path style="fill:#000000; fill-opacity:1.0000; stroke:none;fill-rule:evenodd;"
d="M 88.4500,85.2140
88.4500,86.4140
87.9500,86.4140
87.9500,85.2140
Z" /> 
<path style="fill:#000000; fill-opacity:1.0000; stroke:none;fill-rule:evenodd;"
d="M 88.4500,81.8140
88.4500,83.0140
87.9500,83.0140
87.9500,81.8140
Z" /> 
<path style="fill:#000000; fill-opacity:1.0000; stroke:none;fill-rule:evenodd;"
d="M 89.2500,85.2140
89.2500,86.4140
88.7500,86.4140
88.7500,85.2140
Z" /> 
<path style="fill:#000000; fill-opacity:1.0000; stroke:none;fill-rule:evenodd;"
d="M 89.2500,81.8140
89.2500,83.0140
88.7500,83.0140
88.7500,81.8140
Z" /> 
<path style="fill:#000000; fill-opacity:1.0000; stroke:none;fill-rule:evenodd;"
d="M 90.0500,85.2140
90.0500,86.4140
89.5500,86.4140
89.5500,85.2140
Z" /> 
<path style="fill:#000000; fill-opacity:1.0000; stroke:none;fill-rule:evenodd;"
d="M 90.0500,81.8140
90.0500,83.0140
89.5500,83.0140
89.5500,81.8140
Z" /> 
<path style="fill:#000000; fill-opacity:1.0000; stroke:none;fill-rule:evenodd;"
d="M 90.8500,85.2140
90.8500,86.4140
90.3500,86.4140
90.3500,85.2140
Z" /> 
<path style="fill:#000000; fill-opacity:1.0000; stroke:none;fill-rule:evenodd;"
d="M 90.8500,81.8140
90.8500,83.0140
90.3500,83.0140
90.3500,81.8140
Z" /> 
<path style="fill:#000000; fill-opacity:1.0000; stroke:none;fill-rule:evenodd;"
d="M 91.6500,85.2140
91.6500,86.4140
91.1500,86.4140
91.1500,85.2140
Z" /> 
<path style="fill:#000000; fill-opacity:1.0000; stroke:none;fill-rule:evenodd;"
d="M 91.6500,81.8140
91.6500,83.0140
91.1500,83.0140
91.1500,81.8140
Z" /> 
<path style="fill:#000000; fill-opacity:1.0000; stroke:none;fill-rule:evenodd;"
d="M 92.4500,85.2140
92.4500,86.4140
91.9500,86.4140
91.9500,85.2140
Z" /> 
<path style="fill:#000000; fill-opacity:1.0000; stroke:none;fill-rule:evenodd;"
d="M 92.4500,81.8140
92.4500,83.0140
91.9500,83.0140
91.9500,81.8140
Z" /> 
<path style="fill:#000000; fill-opacity:1.0000; stroke:none;fill-rule:evenodd;"
d="M 93.2500,85.2140
93.2500,86.4140
92.7500,86.4140
92.7500,85.2140
Z" /> 
<path style="fill:#000000; fill-opacity:1.0000; stroke:none;fill-rule:evenodd;"
d="M 93.2500,81.8140
93.2500,83.0140
92.7500,83.0140
92.7500,81.8140
Z" /> 
<path style="fill:#000000; fill-opacity:1.0000; stroke:none;fill-rule:evenodd;"
d="M 94.0500,85.2140
94.0500,86.4140
93.5500,86.4140
93.5500,85.2140
Z" /> 
<path style="fill:#000000; fill-opacity:1.0000; stroke:none;fill-rule:evenodd;"
d="M 94.0500,81.8140
94.0500,83.0140
93.5500,83.0140
93.5500,81.8140
Z" /> 
<path style="fill:#000000; fill-opacity:1.0000; stroke:none;fill-rule:evenodd;"
d="M 94.8500,85.2140
94.8500,86.4140
94.3500,86.4140
94.3500,85.2140
Z" /> 
<path style="fill:#000000; fill-opacity:1.0000; stroke:none;fill-rule:evenodd;"
d="M 94.8500,81.8140
94.8500,83.0140
94.3500,83.0140
94.3500,81.8140
Z" /> 
<path style="fill:#000000; fill-opacity:1.0000; stroke:none;fill-rule:evenodd;"
d="M 95.6500,85.2140
95.6500,86.4140
95.1500,86.4140
95.1500,85.2140
Z" /> 
<path style="fill:#000000; fill-opacity:1.0000; stroke:none;fill-rule:evenodd;"
d="M 95.6500,81.8140
95.6500,83.0140
95.1500,83.0140
95.1500,81.8140
Z" /> 
<path style="fill:#000000; fill-opacity:1.0000; stroke:none;fill-rule:evenodd;"
d="M 96.4500,85.2140
96.4500,86.4140
95.9500,86.4140
95.9500,85.2140
Z" /> 
<path style="fill:#000000; fill-opacity:1.0000; stroke:none;fill-rule:evenodd;"
d="M 96.4500,81.8140
96.4500,83.0140
95.9500,83.0140
95.9500,81.8140
Z" /> 
<path style="fill:#000000; fill-opacity:1.0000; stroke:none;fill-rule:evenodd;"
d="M 97.2500,85.2140
97.2500,86.4140
96.7500,86.4140
96.7500,85.2140
Z" /> 
<path style="fill:#000000; fill-opacity:1.0000; stroke:none;fill-rule:evenodd;"
d="M 97.2500,81.8140
97.2500,83.0140
96.7500,83.0140
96.7500,81.8140
Z" /> 
<path style="fill:#000000; fill-opacity:1.0000; stroke:none;fill-rule:evenodd;"
d="M 98.0500,85.2140
98.0500,86.4140
97.5500,86.4140
97.5500,85.2140
Z" /> 
<path style="fill:#000000; fill-opacity:1.0000; stroke:none;fill-rule:evenodd;"
d="M 98.0500,81.8140
98.0500,83.0140
97.5500,83.0140
97.5500,81.8140
Z" /> 
<path style="fill:#000000; fill-opacity:1.0000; stroke:none;fill-rule:evenodd;"
d="M 98.8500,85.2140
98.8500,86.4140
98.3500,86.4140
98.3500,85.2140
Z" /> 
<path style="fill:#000000; fill-opacity:1.0000; stroke:none;fill-rule:evenodd;"
d="M 98.8500,81.8140
98.8500,83.0140
98.3500,83.0140
98.3500,81.8140
Z" /> 
<path style="fill:#000000; fill-opacity:1.0000; stroke:none;fill-rule:evenodd;"
d="M 99.6500,85.2140
99.6500,86.4140
99.1500,86.4140
99.1500,85.2140
Z" /> 
<path style="fill:#000000; fill-opacity:1.0000; stroke:none;fill-rule:evenodd;"
d="M 99.6500,81.8140
99.6500,83.0140
99.1500,83.0140
99.1500,81.8140
Z" /> 
<path style="fill:#000000; fill-opacity:1.0000; stroke:none;fill-rule:evenodd;"
d="M 103.6500,85.2140
103.6500,86.4140
103.1500,86.4140
103.1500,85.2140
Z" /> 
<path style="fill:#000000; fill-opacity:1.0000; stroke:none;fill-rule:evenodd;"
d="M 103.6500,81.8140
103.6500,83.0140
103.1500,83.0140
103.1500,81.8140
Z" /> 
<path style="fill:#000000; fill-opacity:1.0000; stroke:none;fill-rule:evenodd;"
d="M 104.4500,85.2140
104.4500,86.4140
103.9500,86.4140
103.9500,85.2140
Z" /> 
<path style="fill:#000000; fill-opacity:1.0000; stroke:none;fill-rule:evenodd;"
d="M 104.4500,81.8140
104.4500,83.0140
103.9500,83.0140
103.9500,81.8140
Z" /> 
<path style="fill:#000000; fill-opacity:1.0000; stroke:none;fill-rule:evenodd;"
d="M 105.2500,85.2140
105.2500,86.4140
104.7500,86.4140
104.7500,85.2140
Z" /> 
<path style="fill:#000000; fill-opacity:1.0000; stroke:none;fill-rule:evenodd;"
d="M 105.2500,81.8140
105.2500,83.0140
104.7500,83.0140
104.7500,81.8140
Z" /> 
<path style="fill:#000000; fill-opacity:1.0000; stroke:none;fill-rule:evenodd;"
d="M 106.0500,85.2140
106.0500,86.4140
105.5500,86.4140
105.5500,85.2140
Z" /> 
<path style="fill:#000000; fill-opacity:1.0000; stroke:none;fill-rule:evenodd;"
d="M 106.0500,81.8140
106.0500,83.0140
105.5500,83.0140
105.5500,81.8140
Z" /> 
<path style="fill:#000000; fill-opacity:1.0000; stroke:none;fill-rule:evenodd;"
d="M 106.8500,85.2140
106.8500,86.4140
106.3500,86.4140
106.3500,85.2140
Z" /> 
<path style="fill:#000000; fill-opacity:1.0000; stroke:none;fill-rule:evenodd;"
d="M 106.8500,81.8140
106.8500,83.0140
106.3500,83.0140
106.3500,81.8140
Z" /> 
<path style="fill:#000000; fill-opacity:1.0000; stroke:none;fill-rule:evenodd;"
d="M 107.6500,85.2140
107.6500,86.4140
107.1500,86.4140
107.1500,85.2140
Z" /> 
<path style="fill:#000000; fill-opacity:1.0000; stroke:none;fill-rule:evenodd;"
d="M 107.6500,81.8140
107.6500,83.0140
107.1500,83.0140
107.1500,81.8140
Z" /> 
<path style="fill:#000000; fill-opacity:1.0000; stroke:none;fill-rule:evenodd;"
d="M 108.4500,85.2140
108.4500,86.4140
107.9500,86.4140
107.9500,85.2140
Z" /> 
<path style="fill:#000000; fill-opacity:1.0000; stroke:none;fill-rule:evenodd;"
d="M 108.4500,81.8140
108.4500,83.0140
107.9500,83.0140
107.9500,81.8140
Z" /> 
<path style="fill:#000000; fill-opacity:1.0000; stroke:none;fill-rule:evenodd;"
d="M 109.2500,85.2140
109.2500,86.4140
108.7500,86.4140
108.7500,85.2140
Z" /> 
<path style="fill:#000000; fill-opacity:1.0000; stroke:none;fill-rule:evenodd;"
d="M 109.2500,81.8140
109.2500,83.0140
108.7500,83.0140
108.7500,81.8140
Z" /> 
<path style="fill:#000000; fill-opacity:1.0000; stroke:none;fill-rule:evenodd;"
d="M 110.0500,85.2140
110.0500,86.4140
109.5500,86.4140
109.5500,85.2140
Z" /> 
<path style="fill:#000000; fill-opacity:1.0000; stroke:none;fill-rule:evenodd;"
d="M 110.0500,81.8140
110.0500,83.0140
109.5500,83.0140
109.5500,81.8140
Z" /> 
<path style="fill:#000000; fill-opacity:1.0000; stroke:none;fill-rule:evenodd;"
d="M 110.8500,85.2140
110.8500,86.4140
110.3500,86.4140
110.3500,85.2140
Z" /> 
<path style="fill:#000000; fill-opacity:1.0000; stroke:none;fill-rule:evenodd;"
d="M 110.8500,81.8140
110.8500,83.0140
110.3500,83.0140
110.3500,81.8140
Z" /> 
<path style="fill:#000000; fill-opacity:1.0000; stroke:none;fill-rule:evenodd;"
d="M 111.6500,85.2140
111.6500,86.4140
111.1500,86.4140
111.1500,85.2140
Z" /> 
<path style="fill:#000000; fill-opacity:1.0000; stroke:none;fill-rule:evenodd;"
d="M 111.6500,81.8140
111.6500,83.0140
111.1500,83.0140
111.1500,81.8140
Z" /> 
<path style="fill:#000000; fill-opacity:1.0000; stroke:none;fill-rule:evenodd;"
d="M 112.4500,85.2140
112.4500,86.4140
111.9500,86.4140
111.9500,85.2140
Z" /> 
<path style="fill:#000000; fill-opacity:1.0000; stroke:none;fill-rule:evenodd;"
d="M 112.4500,81.8140
112.4500,83.0140
111.9500,83.0140
111.9500,81.8140
Z" /> 
<path style="fill:#000000; fill-opacity:1.0000; stroke:none;fill-rule:evenodd;"
d="M 113.2500,85.2140
113.2500,86.4140
112.7500,86.4140
112.7500,85.2140
Z" /> 
<path style="fill:#000000; fill-opacity:1.0000; stroke:none;fill-rule:evenodd;"
d="M 113.2500,81.8140
113.2500,83.0140
112.7500,83.0140
112.7500,81.8140
Z" /> 
<path style="fill:#000000; fill-opacity:1.0000; stroke:none;fill-rule:evenodd;"
d="M 114.0500,85.2140
114.0500,86.4140
113.5500,86.4140
113.5500,85.2140
Z" /> 
<path style="fill:#000000; fill-opacity:1.0000; stroke:none;fill-rule:evenodd;"
d="M 114.0500,81.8140
114.0500,83.0140
113.5500,83.0140
113.5500,81.8140
Z" /> 
<path style="fill:#000000; fill-opacity:1.0000; stroke:none;fill-rule:evenodd;"
d="M 114.8500,85.2140
114.8500,86.4140
114.3500,86.4140
114.3500,85.2140
Z" /> 
<path style="fill:#000000; fill-opacity:1.0000; stroke:none;fill-rule:evenodd;"
d="M 114.8500,81.8140
114.8500,83.0140
114.3500,83.0140
114.3500,81.8140
Z" /> 
<path style="fill:#000000; fill-opacity:1.0000; stroke:none;fill-rule:evenodd;"
d="M 115.6500,85.2140
115.6500,86.4140
115.1500,86.4140
115.1500,85.2140
Z" /> 
<path style="fill:#000000; fill-opacity:1.0000; stroke:none;fill-rule:evenodd;"
d="M 115.6500,81.8140
115.6500,83.0140
115.1500,83.0140
115.1500,81.8140
Z" /> 
<path style="fill:#000000; fill-opacity:1.0000; stroke:none;fill-rule:evenodd;"
d="M 116.4500,85.2140
116.4500,86.4140
115.9500,86.4140
115.9500,85.2140
Z" /> 
<path style="fill:#000000; fill-opacity:1.0000; stroke:none;fill-rule:evenodd;"
d="M 116.4500,81.8140
116.4500,83.0140
115.9500,83.0140
115.9500,81.8140
Z" /> 
<path style="fill:#000000; fill-opacity:1.0000; stroke:none;fill-rule:evenodd;"
d="M 117.2500,85.2140
117.2500,86.4140
116.7500,86.4140
116.7500,85.2140
Z" /> 
<path style="fill:#000000; fill-opacity:1.0000; stroke:none;fill-rule:evenodd;"
d="M 117.2500,81.8140
117.2500,83.0140
116.7500,83.0140
116.7500,81.8140
Z" /> 
<path style="fill:#000000; fill-opacity:1.0000; stroke:none;fill-rule:evenodd;"
d="M 118.0500,85.2140
118.0500,86.4140
117.5500,86.4140
117.5500,85.2140
Z" /> 
<path style="fill:#000000; fill-opacity:1.0000; stroke:none;fill-rule:evenodd;"
d="M 118.0500,81.8140
118.0500,83.0140
117.5500,83.0140
117.5500,81.8140
Z" /> 
<path style="fill:#000000; fill-opacity:1.0000; stroke:none;fill-rule:evenodd;"
d="M 118.8500,85.2140
118.8500,86.4140
118.3500,86.4140
118.3500,85.2140
Z" /> 
<path style="fill:#000000; fill-opacity:1.0000; stroke:none;fill-rule:evenodd;"
d="M 118.8500,81.8140
118.8500,83.0140
118.3500,83.0140
118.3500,81.8140
Z" /> 
<path style="fill:#000000; fill-opacity:1.0000; stroke:none;fill-rule:evenodd;"
d="M 119.6500,85.2140
119.6500,86.4140
119.1500,86.4140
119.1500,85.2140
Z" /> 
<path style="fill:#000000; fill-opacity:1.0000; stroke:none;fill-rule:evenodd;"
d="M 119.6500,81.8140
119.6500,83.0140
119.1500,83.0140
119.1500,81.8140
Z" /> 
<path style="fill:#000000; fill-opacity:1.0000; stroke:none;fill-rule:evenodd;"
d="M 120.4500,85.2140
120.4500,86.4140
119.9500,86.4140
119.9500,85.2140
Z" /> 
<path style="fill:#000000; fill-opacity:1.0000; stroke:none;fill-rule:evenodd;"
d="M 120.4500,81.8140
120.4500,83.0140
119.9500,83.0140
119.9500,81.8140
Z" /> 
<path style="fill:#000000; fill-opacity:1.0000; stroke:none;fill-rule:evenodd;"
d="M 121.2500,85.2140
121.2500,86.4140
120.7500,86.4140
120.7500,85.2140
Z" /> 
<path style="fill:#000000; fill-opacity:1.0000; stroke:none;fill-rule:evenodd;"
d="M 121.2500,81.8140
121.2500,83.0140
120.7500,83.0140
120.7500,81.8140
Z" /> 
<path style="fill:#000000; fill-opacity:1.0000; stroke:none;fill-rule:evenodd;"
d="M 122.0500,85.2140
122.0500,86.4140
121.5500,86.4140
121.5500,85.2140
Z" /> 
<path style="fill:#000000; fill-opacity:1.0000; stroke:none;fill-rule:evenodd;"
d="M 122.0500,81.8140
122.0500,83.0140
121.5500,83.0140
121.5500,81.8140
Z" /> 
<path style="fill:#000000; fill-opacity:1.0000; stroke:none;fill-rule:evenodd;"
d="M 122.8500,85.2140
122.8500,86.4140
122.3500,86.4140
122.3500,85.2140
Z" /> 
<path style="fill:#000000; fill-opacity:1.0000; stroke:none;fill-rule:evenodd;"
d="M 122.8500,81.8140
122.8500,83.0140
122.3500,83.0140
122.3500,81.8140
Z" /> 
<path style="fill:#000000; fill-opacity:1.0000; stroke:none;fill-rule:evenodd;"
d="M 123.6500,85.2140
123.6500,86.4140
123.1500,86.4140
123.1500,85.2140
Z" /> 
<path style="fill:#000000; fill-opacity:1.0000; stroke:none;fill-rule:evenodd;"
d="M 123.6500,81.8140
123.6500,83.0140
123.1500,83.0140
123.1500,81.8140
Z" /> 
<path style="fill:#000000; fill-opacity:1.0000; stroke:none;fill-rule:evenodd;"
d="M 124.4500,85.2140
124.4500,86.4140
123.9500,86.4140
123.9500,85.2140
Z" /> 
<path style="fill:#000000; fill-opacity:1.0000; stroke:none;fill-rule:evenodd;"
d="M 124.4500,81.8140
124.4500,83.0140
123.9500,83.0140
123.9500,81.8140
Z" /> 
<path style="fill:#000000; fill-opacity:1.0000; stroke:none;fill-rule:evenodd;"
d="M 125.2500,85.2140
125.2500,86.4140
124.7500,86.4140
124.7500,85.2140
Z" /> 
<path style="fill:#000000; fill-opacity:1.0000; stroke:none;fill-rule:evenodd;"
d="M 125.2500,81.8140
125.2500,83.0140
124.7500,83.0140
124.7500,81.8140
Z" /> 
<path style="fill:#000000; fill-opacity:1.0000; stroke:none;fill-rule:evenodd;"
d="M 126.0500,85.2140
126.0500,86.4140
125.5500,86.4140
125.5500,85.2140
Z" /> 
<path style="fill:#000000; fill-opacity:1.0000; stroke:none;fill-rule:evenodd;"
d="M 126.0500,81.8140
126.0500,83.0140
125.5500,83.0140
125.5500,81.8140
Z" /> 
<path style="fill:#000000; fill-opacity:1.0000; stroke:none;fill-rule:evenodd;"
d="M 126.8500,85.2140
126.8500,86.4140
126.3500,86.4140
126.3500,85.2140
Z" /> 
<path style="fill:#000000; fill-opacity:1.0000; stroke:none;fill-rule:evenodd;"
d="M 126.8500,81.8140
126.8500,83.0140
126.3500,83.0140
126.3500,81.8140
Z" /> 
<path style="fill:#000000; fill-opacity:1.0000; stroke:none;fill-rule:evenodd;"
d="M 127.6500,85.2140
127.6500,86.4140
127.1500,86.4140
127.1500,85.2140
Z" /> 
<path style="fill:#000000; fill-opacity:1.0000; stroke:none;fill-rule:evenodd;"
d="M 127.6500,81.8140
127.6500,83.0140
127.1500,83.0140
127.1500,81.8140
Z" /> 
<path style="fill:#000000; fill-opacity:1.0000; stroke:none;fill-rule:evenodd;"
d="M 128.4500,85.2140
128.4500,86.4140
127.9500,86.4140
127.9500,85.2140
Z" /> 
<path style="fill:#000000; fill-opacity:1.0000; stroke:none;fill-rule:evenodd;"
d="M 128.4500,81.8140
128.4500,83.0140
127.9500,83.0140
127.9500,81.8140
Z" /> 
<path style="fill:#000000; fill-opacity:1.0000; stroke:none;fill-rule:evenodd;"
d="M 129.2500,85.2140
129.2500,86.4140
128.7500,86.4140
128.7500,85.2140
Z" /> 
<path style="fill:#000000; fill-opacity:1.0000; stroke:none;fill-rule:evenodd;"
d="M 129.2500,81.8140
129.2500,83.0140
128.7500,83.0140
128.7500,81.8140
Z" /> 
<path style="fill:#000000; fill-opacity:1.0000; stroke:none;fill-rule:evenodd;"
d="M 130.0500,85.2140
130.0500,86.4140
129.5500,86.4140
129.5500,85.2140
Z" /> 
<path style="fill:#000000; fill-opacity:1.0000; stroke:none;fill-rule:evenodd;"
d="M 130.0500,81.8140
130.0500,83.0140
129.5500,83.0140
129.5500,81.8140
Z" /> 
<path style="fill:#000000; fill-opacity:1.0000; stroke:none;fill-rule:evenodd;"
d="M 130.8500,85.2140
130.8500,86.4140
130.3500,86.4140
130.3500,85.2140
Z" /> 
<path style="fill:#000000; fill-opacity:1.0000; stroke:none;fill-rule:evenodd;"
d="M 130.8500,81.8140
130.8500,83.0140
130.3500,83.0140
130.3500,81.8140
Z" /> 
<path style="fill:#000000; fill-opacity:1.0000; stroke:none;fill-rule:evenodd;"
d="M 131.6500,85.2140
131.6500,86.4140
131.1500,86.4140
131.1500,85.2140
Z" /> 
<path style="fill:#000000; fill-opacity:1.0000; stroke:none;fill-rule:evenodd;"
d="M 131.6500,81.8140
131.6500,83.0140
131.1500,83.0140
131.1500,81.8140
Z" /> 
<path style="fill:#000000; fill-opacity:1.0000; stroke:none;fill-rule:evenodd;"
d="M 132.4500,85.2140
132.4500,86.4140
131.9500,86.4140
131.9500,85.2140
Z" /> 
<path style="fill:#000000; fill-opacity:1.0000; stroke:none;fill-rule:evenodd;"
d="M 132.4500,81.8140
132.4500,83.0140
131.9500,83.0140
131.9500,81.8140
Z" /> 
<path style="fill:#000000; fill-opacity:1.0000; stroke:none;fill-rule:evenodd;"
d="M 133.2500,85.2140
133.2500,86.4140
132.7500,86.4140
132.7500,85.2140
Z" /> 
<path style="fill:#000000; fill-opacity:1.0000; stroke:none;fill-rule:evenodd;"
d="M 133.2500,81.8140
133.2500,83.0140
132.7500,83.0140
132.7500,81.8140
Z" /> 
</g> 
</svg>
