<?xml version="1.0" standalone="no"?>
 <!DOCTYPE svg PUBLIC "-//W3C//DTD SVG 1.1//EN" 
 "http://www.w3.org/Graphics/SVG/1.1/DTD/svg11.dtd"> 
<svg
  xmlns:svg="http://www.w3.org/2000/svg"
  xmlns="http://www.w3.org/2000/svg"
  xmlns:xlink="http://www.w3.org/1999/xlink"
  version="1.1"
  width="297.0022mm" height="210.0072mm" viewBox="0.0000 0.0000 297.0022 210.0072">
<title>SVG Image created as DarkQuest_A5202_Adapter-Edge_Cuts.svg date 2025/06/11 08:11:06 </title>
  <desc>Image generated by PCBNEW </desc>
<g style="fill:#000000; fill-opacity:1.0000;stroke:#000000; stroke-opacity:1.0000;
stroke-linecap:round; stroke-linejoin:round;"
 transform="translate(0 0) scale(1 1)">
</g>
<g style="fill:none; 
stroke:#000000; stroke-width:0.0500; stroke-opacity:1; 
stroke-linecap:round; stroke-linejoin:round;">
<path d="M52.2988 104.6128 A6.0000 6.0000 0.0 0 0 58.2988 110.6128" />
<circle cx="150.6317" cy="62.2799" r="1.7650" /> 
<path d="M52.2988 104.5828
L52.2988 104.6128
" />
<path d="M155.2988 63.6128 A6.0000 6.0000 0.0 0 0 149.2988 57.6128" />
<path d="M155.2988 104.5928
L155.2988 104.6128
" />
<path d="M149.2988 57.6128
L58.2988 57.6128
" />
<path d="M58.2988 57.6128 A6.0012 6.0012 0.0 0 0 52.2988 63.6128" />
<path d="M149.2988 110.6128 A6.0000 6.0000 0.0 0 0 155.2988 104.6128" />
<path d="M52.2988 63.6128
L52.2988 104.5828
" />
<circle cx="56.9659" cy="105.9457" r="1.7650" /> 
<path d="M155.2988 104.5928
L155.2988 63.6128
" />
<circle cx="56.9663" cy="62.2803" r="1.7650" /> 
<path d="M58.2988 110.6128
L149.2988 110.6128
" />
<circle cx="150.6317" cy="105.9457" r="1.7650" /> 
</g> 
</svg>
